<?xml version="1.0" standalone="no"?>
<!DOCTYPE svg PUBLIC "-//W3C//DTD SVG 1.1//EN" "http://www.w3.org/Graphics/SVG/1.1/DTD/svg11.dtd" >
<svg xmlns="http://www.w3.org/2000/svg" xmlns:xlink="http://www.w3.org/1999/xlink" version="1.1">
<metadata>
Created by FontForge 20170731 at Mon Dec 26 15:37:52 2022
 By Aleksey,,,
Copyright (c) 2020 by Locomotype. All rights reserved.
</metadata>
<defs>
<font id="GigaSans-ExtraBold" horiz-adv-x="1433" >
  <font-face 
    font-family="Giga Sans ExtBd"
    font-weight="800"
    font-stretch="normal"
    units-per-em="2048"
    panose-1="0 0 0 0 0 0 0 0 0 0"
    ascent="1434"
    descent="-614"
    x-height="1024"
    cap-height="1434"
    bbox="-260 -614 2714 1978"
    underline-thickness="102"
    underline-position="-358"
    unicode-range="U+000D-FB02"
  />
<missing-glyph horiz-adv-x="1024" 
d="M0 -614v2048h1024v-2048h-1024zM145 1331l367 -799l367 799h-734zM102 -360l353 770l-353 770v-1540zM922 1180l-353 -770l353 -770v1540zM512 287l-367 -799h734z" />
    <glyph glyph-name="fi" unicode="fi" horiz-adv-x="1521" 
d="M57 723v301h90v72q0 179 96 271.5t277 92.5q145 0 299 -61l-76 -242q-73 25 -112 25q-49 0 -70.5 -28t-23.5 -89v-41h223v-301h-223v-723h-390v723h-90zM989 0v1024h387l2 -1024h-389zM1182 1116q-92 0 -154.5 48.5t-62.5 117.5q0 68 63.5 117.5t153.5 48.5
q88 -2 153.5 -51t65.5 -115q0 -68 -65 -117t-154 -49z" />
    <glyph glyph-name="fl" unicode="fl" horiz-adv-x="1482" 
d="M57 723v301h90v72q0 179 96 271.5t277 92.5q145 0 299 -61l-76 -242q-73 25 -112 25q-49 0 -70.5 -28t-23.5 -89v-41h223v-301h-223v-723h-390v723h-90zM973 0v1434h389v-1434h-389z" />
    <glyph glyph-name=".notdef" horiz-adv-x="1024" 
d="M0 -614v2048h1024v-2048h-1024zM145 1331l367 -799l367 799h-734zM102 -360l353 770l-353 770v-1540zM922 1180l-353 -770l353 -770v1540zM512 287l-367 -799h734z" />
    <glyph glyph-name="uni0000" horiz-adv-x="0" 
 />
    <glyph glyph-name="uni0000" horiz-adv-x="0" 
 />
    <glyph glyph-name="uni000D" unicode="&#xd;" horiz-adv-x="512" 
 />
    <glyph glyph-name="space" unicode=" " horiz-adv-x="532" 
 />
    <glyph glyph-name="exclam" unicode="!" horiz-adv-x="651" 
d="M145 514l-34 920h428l-33 -920h-361zM98 199q0 88 66.5 152.5t161.5 64.5q92 0 159.5 -65t67.5 -152t-68.5 -153t-158.5 -66q-95 0 -161.5 64.5t-66.5 154.5z" />
    <glyph glyph-name="quotedbl" unicode="&#x22;" horiz-adv-x="1222" 
d="M1055 793h-340v641h409zM459 793h-340v641h409z" />
    <glyph glyph-name="numbersign" unicode="#" horiz-adv-x="1398" 
d="M37 293v237h223l86 383h-172v238h223l64 283h272l-61 -283h250l61 283h274l-63 -283h168v-238h-221l-84 -383h170v-237h-223l-66 -293h-274l65 293h-248l-65 -293h-275l66 293h-170zM618 913l-83 -383h247l86 383h-250z" />
    <glyph glyph-name="dollar" unicode="$" horiz-adv-x="1259" 
d="M506 -2q-121 25 -247 88t-204 147l154 211q57 -61 138.5 -114t158.5 -76v403q-73 20 -127.5 39t-116 52.5t-101 73.5t-65.5 100.5t-26 134.5q0 91 36 163.5t98.5 118.5t138 73t163.5 36v141l264 -2v-151q101 -22 208.5 -70.5t176.5 -110.5l-129 -215q-43 52 -114.5 91
t-141.5 51v-342q74 -21 129 -41.5t115.5 -55.5t99.5 -76.5t64.5 -103.5t25.5 -137q0 -122 -59.5 -217.5t-156 -150t-218.5 -70.5v-164h-264v174zM770 580v-342q69 19 109.5 68t40.5 120q0 58 -41.5 93t-108.5 61zM352 1061q0 -29 13.5 -53t39.5 -42t48 -28.5t53 -22.5v289
q-154 -27 -154 -143z" />
    <glyph glyph-name="percent" unicode="%" horiz-adv-x="1902" 
d="M1085 393q0 192 95 304t284 112q191 0 287 -111t94 -305q-2 -193 -100.5 -302t-288.5 -109q-188 0 -279.5 109t-91.5 302zM57 1034q0 192 95.5 303t285.5 111q189 0 285 -111t94 -303t-97 -303t-282 -110q-193 1 -287 110t-94 303zM371 0l927 1434h238l-928 -1434h-237z
M307 1034q0 -40 5 -75t18 -71.5t40.5 -58t67.5 -20.5q28 0 49.5 10t35 28.5t22.5 38.5t13.5 48t6 50t2.5 50q1 40 -3.5 75.5t-17.5 72t-40.5 57.5t-67.5 21q-131 0 -131 -226zM1335 393q0 -40 5 -74.5t17.5 -71t40 -57.5t66.5 -20q131 2 131 223q0 225 -131 225
q-129 0 -129 -225z" />
    <glyph glyph-name="ampersand" unicode="&#x26;" horiz-adv-x="1589" 
d="M78 403q0 246 313 426q-86 145 -86 271q0 56 25 116t73 115t129.5 90t182.5 35q100 0 178 -32t123 -83.5t67.5 -110t22.5 -118.5q0 -104 -69 -197t-187 -157l174 -205q47 85 47 231h311q0 -151 -29 -262t-108 -225l266 -297h-409l-82 88q-174 -106 -406 -106
q-123 0 -225 34t-169.5 91.5t-104.5 134t-37 161.5zM410 399q0 -70 58 -116.5t146 -46.5q54 0 112 19t101 50l-260 307q-157 -95 -157 -213zM678 979q96 51 96 133q0 35 -16.5 60.5t-50.5 25.5t-54 -27t-20 -67q0 -64 45 -125z" />
    <glyph glyph-name="quotesingle" unicode="'" horiz-adv-x="626" 
d="M528 1434l-69 -641h-340v641h409z" />
    <glyph glyph-name="parenleft" unicode="(" horiz-adv-x="794" 
d="M362 -410q-124 196 -194 436t-70 482q0 240 68 479t190 447h377q-18 -32 -38.5 -74t-56.5 -136.5t-63 -193.5t-48 -240.5t-21 -281.5q0 -171 30.5 -342t73 -289t76 -191t51.5 -96h-375z" />
    <glyph glyph-name="parenright" unicode=")" horiz-adv-x="794" 
d="M57 -410q14 21 38 67t59.5 136.5t64.5 192.5t50.5 243t21.5 281q-1 140 -21.5 280.5t-48.5 242.5t-62.5 193t-57.5 137t-38 71h375q123 -206 191.5 -445.5t68.5 -480.5q0 -240 -70 -479.5t-194 -438.5h-377z" />
    <glyph glyph-name="asterisk" unicode="*" horiz-adv-x="1052" 
d="M934 1143l-180 -96l180 -97l-121 -211l-158 101l7 -181h-269l4 181l-157 -99l-121 209l180 97l-180 96l121 209l157 -99l-4 181h269l-7 -181l158 99z" />
    <glyph glyph-name="plus" unicode="+" horiz-adv-x="1206" 
d="M119 565v303h327v301h314v-301h327v-303h-327v-301h-314v301h-327z" />
    <glyph glyph-name="comma" unicode="," horiz-adv-x="651" 
d="M98 199q0 88 66.5 152t161.5 65q93 2 159.5 -61t67.5 -156q1 -100 -65.5 -224t-145.5 -200l-180 88q39 54 67 139q-59 25 -95 78.5t-36 118.5z" />
    <glyph glyph-name="hyphen" unicode="-" horiz-adv-x="1030" 
d="M913 358h-794v304h794v-304z" />
    <glyph glyph-name="period" unicode="." horiz-adv-x="651" 
d="M98 199q0 88 66.5 152.5t161.5 64.5q92 0 159.5 -65t67.5 -152t-68.5 -153t-158.5 -66q-95 0 -161.5 64.5t-66.5 154.5z" />
    <glyph glyph-name="slash" unicode="/" horiz-adv-x="923" 
d="M1040 1618l-852 -1792h-305l854 1794z" />
    <glyph glyph-name="zero" unicode="0" horiz-adv-x="1386" 
d="M694 -23q-106 0 -193.5 21.5t-150.5 59t-111.5 92.5t-78.5 117t-48.5 138t-26 150.5t-7.5 159.5q0 119 19 223.5t64 201.5t114 165.5t176 109.5t243 41q138 0 246.5 -42t176.5 -111.5t112.5 -166.5t62 -199.5t17.5 -219.5q0 -84 -9 -160.5t-30.5 -151.5t-53.5 -138.5
t-81.5 -117.5t-111.5 -91.5t-146 -59t-183 -21.5zM694 1124q-110 0 -159.5 -104t-49.5 -305q0 -406 209 -406q207 0 207 406q0 409 -207 409z" />
    <glyph glyph-name="one" unicode="1" horiz-adv-x="966" 
d="M16 1096l467 338l324 2v-1436h-408v971l-184 -137z" />
    <glyph glyph-name="two" unicode="2" horiz-adv-x="1228" 
d="M57 1157q226 299 586 299q124 0 225.5 -35t166.5 -94.5t100.5 -136t35.5 -160.5q0 -71 -21.5 -141t-50.5 -123t-82 -116.5t-92 -102.5t-104 -102q-15 -14 -22 -21l-103 -98h463v-326h-1032v254l274 264q6 6 46.5 45t54 52.5t51.5 52t55 59t47.5 56.5t45 61t32 56.5
t24.5 59.5t7 54q0 57 -36.5 86.5t-102.5 29.5q-56 -1 -109.5 -20.5t-90 -47t-65 -55t-42.5 -46.5l-13 -19z" />
    <glyph glyph-name="three" unicode="3" horiz-adv-x="1282" 
d="M57 188l197 265q59 -70 156.5 -110t220.5 -40q90 0 148.5 39.5t58.5 108.5q0 75 -77 114t-190 39h-165l2 285h155q76 0 132.5 37.5t56.5 105.5q0 45 -40.5 74t-97.5 29q-53 0 -104.5 -14t-87.5 -33.5t-65.5 -41t-43.5 -35.5t-16 -18l-227 221q107 131 249 188.5t328 57.5
q77 0 150 -14t139 -44.5t115.5 -74t78.5 -106.5t29 -138q0 -89 -56 -176t-142 -121q117 -26 200.5 -126t83.5 -232q0 -90 -39.5 -170.5t-113 -144t-189 -101t-256.5 -37.5q-82 0 -155.5 9.5t-130.5 27.5t-100.5 35t-81 43t-56.5 40t-43 36z" />
    <glyph glyph-name="four" unicode="4" horiz-adv-x="1325" 
d="M51 264v252l776 918h363v-844h123v-326h-123v-264h-408v264h-731zM547 590h235v293z" />
    <glyph glyph-name="five" unicode="5" horiz-adv-x="1253" 
d="M88 98l119 301q136 -96 356 -96q100 0 173 54.5t73 150.5q0 60 -37 104t-89.5 63t-111.5 19q-154 0 -268 -86l-188 90l86 736h925v-318h-612l-14 -143q39 8 127 8q89 0 173 -17.5t160 -55.5t133 -92.5t90.5 -133.5t33.5 -174q0 -99 -33 -185.5t-90.5 -149.5t-134.5 -108
t-166.5 -67.5t-184.5 -22.5q-132 0 -279 31.5t-241 91.5z" />
    <glyph glyph-name="six" unicode="6" horiz-adv-x="1327" 
d="M68 694q0 121 25.5 231.5t82 208.5t138.5 170t202.5 114t267.5 42q153 0 274 -40t181 -87l-156 -270q0 3 -35.5 23t-106.5 41.5t-142 21.5q-68 0 -123 -23t-90 -63t-56.5 -87t-31.5 -102q7 3 44 24.5t64 33.5t77.5 24.5t104.5 12.5q226 0 364 -125t138 -340
q0 -163 -83.5 -285t-218.5 -183t-298 -61q-127 0 -231.5 39t-176 106.5t-120.5 159.5t-71.5 196t-22.5 218zM707 672q-82 0 -136 -49t-53 -131q2 -80 54 -135.5t135 -55.5q81 0 133 50.5t51 131.5q0 77 -48.5 133t-135.5 56z" />
    <glyph glyph-name="seven" unicode="7" horiz-adv-x="1169" 
d="M1143 1196l-598 -1196h-443l553 1108h-598v326h1086v-238z" />
    <glyph glyph-name="eight" unicode="8" horiz-adv-x="1345" 
d="M674 -35q-181 0 -319.5 52t-218 154.5t-79.5 242.5q0 99 57 187.5t160 150.5q-174 116 -174 303q0 85 35.5 155.5t93.5 117t133.5 79t153.5 47t156 14.5q80 0 159 -14t154 -46.5t132.5 -79t92.5 -116.5t35 -155q0 -190 -172 -305q103 -61 159 -149.5t56 -188.5
q0 -210 -169.5 -329.5t-444.5 -119.5zM674 610q-85 -2 -147 -44.5t-62 -119.5q0 -78 61.5 -118.5t147.5 -42.5q85 -2 146.5 39.5t60.5 119.5t-62 122t-145 44zM672 1176q-70 0 -122 -41.5t-52 -102.5t49.5 -104t120.5 -43q68 0 123 41t55 106q0 62 -51 103t-123 41z" />
    <glyph glyph-name="nine" unicode="9" horiz-adv-x="1327" 
d="M37 932q0 123 48.5 224.5t131 167t190.5 101t230 35.5q127 0 231.5 -39t176.5 -106t121 -159t71.5 -196t22.5 -219q0 -121 -25.5 -230.5t-82 -208t-139 -170.5t-203 -114t-267.5 -43q-151 0 -272.5 41t-182.5 88l156 271q6 -6 37.5 -23.5t103.5 -40t143 -22.5
q68 0 123 23t90 62.5t56.5 86.5t31.5 102q-7 -4 -44 -25t-64 -33.5t-77.5 -25t-104.5 -12.5q-224 0 -363 125.5t-139 339.5zM621 1137q-80 0 -133 -52t-52 -133q2 -77 50 -131.5t135 -54.5q84 0 136.5 48.5t51.5 131.5q-2 81 -54 136.5t-134 54.5z" />
    <glyph glyph-name="colon" unicode=":" horiz-adv-x="692" 
d="M119 829q0 90 66 154t161 64q92 0 159.5 -65.5t67.5 -150.5q0 -89 -68.5 -154t-158.5 -65q-95 0 -161 63.5t-66 153.5zM119 199q0 89 66.5 153t160.5 64q92 0 159.5 -65t67.5 -152t-68.5 -153t-158.5 -66q-95 0 -161 64.5t-66 154.5z" />
    <glyph glyph-name="semicolon" unicode=";" horiz-adv-x="692" 
d="M252 2q-59 25 -96 78.5t-37 118.5q0 88 66 152t161 65q93 2 160 -61t67 -156q0 -100 -65.5 -224.5t-142.5 -199.5l-183 88q42 54 70 139zM119 829q0 90 66 154t161 64q92 0 159.5 -65.5t67.5 -150.5q0 -89 -68.5 -154t-158.5 -65q-95 0 -161 63.5t-66 153.5z" />
    <glyph glyph-name="less" unicode="&#x3c;" horiz-adv-x="1230" 
d="M1112 139l-993 441v274l993 440v-358l-494 -219l494 -219v-359z" />
    <glyph glyph-name="equal" unicode="=" horiz-adv-x="1056" 
d="M938 797h-819v270h819v-270zM938 371h-819v268h819v-268z" />
    <glyph glyph-name="greater" unicode="&#x3e;" horiz-adv-x="1148" 
d="M553 717l-496 219v358l994 -440v-274l-994 -441v359z" />
    <glyph glyph-name="question" unicode="?" horiz-adv-x="1232" 
d="M266 952l-229 219q98 139 255 214t335 75q97 0 185.5 -20t168 -62.5t127 -120t47.5 -180.5q0 -85 -38 -158.5t-94 -124.5t-113 -95.5t-103.5 -91.5t-56.5 -93h-359q9 50 34 94t57 77.5t69 65t71.5 61.5t63 61.5t45.5 71.5t17 85q0 51 -44.5 78t-97.5 27
q-92 0 -186.5 -52.5t-153.5 -130.5zM358 199q0 91 68 154t160 63q89 0 157 -64.5t68 -152.5q0 -90 -68.5 -154.5t-158.5 -64.5q-92 0 -159 64t-67 155z" />
    <glyph glyph-name="at" unicode="@" horiz-adv-x="1990" 
d="M1032 -350q-150 0 -290 36t-261.5 109.5t-212 176.5t-142.5 244.5t-52 305.5q0 147 39 283t119 253.5t192.5 204.5t268.5 137t339 50t347.5 -68.5t282 -184.5t186.5 -276.5t69 -338.5q0 -65 -11.5 -126.5t-38.5 -120t-67 -102t-101.5 -70t-137.5 -26.5q-103 0 -176 41.5
t-113 114.5q-91 -158 -293 -158q-184 0 -294 125.5t-110 312.5q0 186 109 301t295 115q77 0 153.5 -29t110.5 -71v72h236v-439q-1 -47 4 -85.5t23 -68.5t48 -30q44 0 76.5 80t32.5 157q0 107 -22 200.5t-70.5 174.5t-121 139.5t-179 91.5t-238.5 33q-197 0 -353.5 -90.5
t-243 -248t-87.5 -353.5q-1 -115 36 -216.5t101 -177t148.5 -130.5t181.5 -83t197 -28q80 0 185 25t175 72l105 -220q-237 -114 -445 -114zM1032 776q-76 0 -129.5 -59.5t-52.5 -143.5q2 -86 55 -148.5t127 -62.5q76 0 131.5 63t53.5 148t-55.5 144t-129.5 59z" />
    <glyph glyph-name="A" unicode="A" horiz-adv-x="1767" 
d="M455 0h-430l647 1434h426l645 -1434h-428l-103 231h-655zM698 555h371l-184 414z" />
    <glyph glyph-name="B" unicode="B" horiz-adv-x="1574" 
d="M139 1434h779q260 0 397 -104t137 -267q0 -106 -50.5 -186t-137.5 -119q97 -25 167 -114t70 -216q0 -195 -137.5 -311.5t-402.5 -116.5h-822v1434zM936 582h-389v-256h385q76 0 119 35t43 94q0 62 -41.5 94.5t-116.5 32.5zM895 1108h-348v-231h348q75 0 115.5 31t38.5 83
q-2 54 -42 85.5t-112 31.5z" />
    <glyph glyph-name="C" unicode="C" horiz-adv-x="1540" 
d="M854 -20q-160 0 -302 51.5t-248.5 144.5t-168 232t-61.5 305q0 163 62.5 302.5t168.5 234t248.5 148t300.5 54.5q215 0 377 -83t248 -208l-273 -200q-120 163 -332 163q-163 0 -278 -114.5t-115 -296.5q0 -181 113 -292.5t278 -111.5q232 0 342 168l263 -182
q-31 -54 -83 -106t-127.5 -100.5t-183 -78.5t-229.5 -30z" />
    <glyph glyph-name="D" unicode="D" horiz-adv-x="1609" 
d="M139 1434h635q172 0 315.5 -53.5t241 -148t151.5 -227t54 -288.5q0 -324 -207.5 -520.5t-554.5 -196.5h-635v1434zM547 326h227q154 0 254 111t100 280q0 174 -98 282.5t-256 108.5h-227v-782z" />
    <glyph glyph-name="E" unicode="E" horiz-adv-x="1390" 
d="M139 1434h1153v-322h-745v-240h643v-311h-643v-239h745v-322h-1153v1434z" />
    <glyph glyph-name="F" unicode="F" horiz-adv-x="1363" 
d="M139 0v1434h1153v-322h-745v-297h643v-321h-643v-494h-408z" />
    <glyph glyph-name="G" unicode="G" horiz-adv-x="1574" 
d="M74 713q0 161 62.5 301.5t168.5 237t248.5 151.5t300.5 55q384 0 604 -235l-237 -242q-139 147 -347 149q-168 2 -280.5 -117t-112.5 -300q0 -179 111.5 -294.5t279.5 -113.5q125 0 215 51v174h-352v295h721v-571q-34 -48 -86.5 -94t-126.5 -89.5t-176 -70.5t-213 -27
q-214 1 -391 92.5t-283 261.5t-106 386z" />
    <glyph glyph-name="H" unicode="H" horiz-adv-x="1673" 
d="M141 1434h406v-555h577v555h408v-1434h-408v553h-575v-553h-408v1434z" />
    <glyph glyph-name="I" unicode="I" horiz-adv-x="710" 
d="M559 1434v-1434h-407v1434h407z" />
    <glyph glyph-name="J" unicode="J" horiz-adv-x="1249" 
d="M33 199l211 252q42 -55 111 -97.5t153 -42.5q86 0 140 57.5t54 161.5l-2 904h408l2 -938q0 -234 -155 -378.5t-412 -144.5q-294 0 -510 226z" />
    <glyph glyph-name="K" unicode="K" horiz-adv-x="1619" 
d="M547 0h-408v1434h408v-510l506 510h514l-590 -592l606 -842h-485l-406 557l-145 -145v-412z" />
    <glyph glyph-name="L" unicode="L" horiz-adv-x="1277" 
d="M547 326h661v-326h-1069v1434h408v-1108z" />
    <glyph glyph-name="M" unicode="M" horiz-adv-x="1933" 
d="M139 0v1434h412l414 -619l417 619h412v-1434h-408v782l-421 -641l-418 639v-780h-408z" />
    <glyph glyph-name="N" unicode="N" horiz-adv-x="1662" 
d="M139 1434h412l565 -781v781h408v-1434h-414l-563 782v-782h-408v1434z" />
    <glyph glyph-name="O" unicode="O" horiz-adv-x="1705" 
d="M74 721q0 153 59.5 289t162.5 234t248.5 155t309.5 57t309.5 -57.5t248 -156t162 -234t58.5 -287.5q-1 -154 -60.5 -291.5t-162 -237.5t-247.5 -158t-308 -57q-164 1 -309.5 60t-248.5 159t-162.5 236.5t-59.5 288.5zM481 721q0 -164 109 -280.5t264 -116.5
q154 0 262.5 116t108.5 281q0 163 -108 275t-263 112q-156 0 -264.5 -112.5t-108.5 -274.5z" />
    <glyph glyph-name="P" unicode="P" horiz-adv-x="1449" 
d="M139 0v1434h717q123 0 225 -39.5t170.5 -108t106.5 -162t39 -200.5q1 -105 -36 -197.5t-105.5 -161.5t-171 -109t-226.5 -40h-311v-416h-408zM547 741h276q88 0 136.5 53t48.5 130q0 79 -49 131.5t-136 52.5h-276v-367z" />
    <glyph glyph-name="Q" unicode="Q" horiz-adv-x="1705" 
d="M74 721q0 153 59.5 289t162.5 234t248.5 155t309.5 57t309 -57.5t247.5 -156t162 -234t59.5 -287.5q0 -174 -74.5 -323.5t-207.5 -252.5l194 -268h-389l-92 125q-103 -25 -209 -25q-164 0 -309.5 59t-248.5 159t-162.5 237t-59.5 289zM481 721q0 -149 98.5 -261.5
t245.5 -127.5l-149 207l262 176l182 -250q48 48 76.5 115.5t28.5 140.5q0 163 -108 275t-263 112q-156 0 -264.5 -112.5t-108.5 -274.5z" />
    <glyph glyph-name="R" unicode="R" horiz-adv-x="1490" 
d="M139 0v1434h731q123 0 225 -39.5t170.5 -108t106 -162t37.5 -200.5q0 -149 -72 -268.5t-202 -180.5l323 -475h-461l-284 416h-166v-416h-408zM547 1108v-367h289q89 0 136.5 52.5t49.5 130.5q0 79 -49.5 131.5t-136.5 52.5h-289z" />
    <glyph glyph-name="S" unicode="S" horiz-adv-x="1409" 
d="M55 162l174 293q40 -26 72.5 -44t98.5 -46.5t153.5 -44.5t187.5 -17q96 0 150.5 28.5t54.5 82.5q0 33 -30 59.5t-81.5 45t-117.5 35.5t-139.5 36.5t-146.5 42.5t-139 58.5t-117.5 80t-81.5 111.5t-30 149q0 86 37 160t109 132.5t190.5 92.5t270.5 35q132 0 243.5 -17.5
t192 -49.5t120.5 -53t87 -52l-166 -276q-174 120 -477 120q-199 0 -199 -88q0 -29 30.5 -52t81.5 -39t117.5 -31t140 -32.5t147 -39.5t139.5 -56.5t117 -78.5t81 -110.5t29 -147.5q-2 -207 -172.5 -339.5t-462.5 -132.5q-380 0 -664 185z" />
    <glyph glyph-name="T" unicode="T" horiz-adv-x="1347" 
d="M41 1108v326h1266v-326h-430v-1108h-408v1108h-428z" />
    <glyph glyph-name="U" unicode="U" horiz-adv-x="1566" 
d="M784 -23q-131 0 -247 38t-205 109t-141 182.5t-52 248.5v879h408v-879q0 -107 62 -179.5t173 -72.5q113 0 175.5 72.5t62.5 179.5v879h407v-879q0 -137 -52 -248.5t-141 -182.5t-204.5 -109t-245.5 -38z" />
    <glyph glyph-name="V" unicode="V" horiz-adv-x="1861" 
d="M57 1434h430l445 -963l442 963h430l-655 -1434h-434z" />
    <glyph glyph-name="W" unicode="W" horiz-adv-x="2607" 
d="M573 0l-516 1434h420l307 -850l310 850h419l310 -850l307 850h420l-516 -1434h-422l-307 854l-310 -854h-422z" />
    <glyph glyph-name="X" unicode="X" horiz-adv-x="1789" 
d="M541 0h-488l598 752l-540 682h483l301 -377l299 377h483l-540 -682l600 -752h-490l-352 446z" />
    <glyph glyph-name="Y" unicode="Y" horiz-adv-x="1634" 
d="M612 567l-555 867h457l303 -473l305 473h455l-557 -867v-567h-408v567z" />
    <glyph glyph-name="Z" unicode="Z" horiz-adv-x="1376" 
d="M94 1434h1188v-326l-680 -782h680v-326h-1188v326l682 782h-682v326z" />
    <glyph glyph-name="bracketleft" unicode="[" horiz-adv-x="823" 
d="M766 -410h-627v1844h627v-326h-219v-1192h219v-326z" />
    <glyph glyph-name="backslash" unicode="\" horiz-adv-x="923" 
d="M1040 -174h-305l-852 1792l303 2z" />
    <glyph glyph-name="bracketright" unicode="]" horiz-adv-x="823" 
d="M57 1434h627v-1844h-627v326h219v1192h-219v326z" />
    <glyph glyph-name="asciicircum" unicode="^" horiz-adv-x="1128" 
d="M74 659l385 775h211l385 -775h-312l-180 363l-180 -363h-309z" />
    <glyph glyph-name="underscore" unicode="_" horiz-adv-x="909" 
d="M57 -266v235h795v-235h-795z" />
    <glyph glyph-name="grave" unicode="`" horiz-adv-x="821" 
d="M682 1178h-244l-299 198l158 158z" />
    <glyph glyph-name="a" unicode="a" horiz-adv-x="1388" 
d="M578 -20q-98 0 -190 39.5t-161.5 108t-111 167.5t-41.5 211q0 113 40.5 214t107.5 171.5t157.5 111.5t187.5 41q190 0 314 -114v94h389v-1024h-389v100q-123 -120 -303 -120zM449 508q0 -95 60.5 -162t156.5 -67q94 0 153.5 67t59.5 162q0 97 -60.5 164.5t-154.5 66.5
q-94 0 -154.5 -68t-60.5 -163z" />
    <glyph glyph-name="b" unicode="b" horiz-adv-x="1388" 
d="M119 1434h389v-504q124 114 311 114q98 0 189 -41t159 -111.5t108.5 -171.5t39.5 -214q-1 -112 -42.5 -211t-111 -167.5t-161 -108t-189.5 -39.5q-180 0 -303 120v-100h-389v1434zM508 508q0 -95 60.5 -162t154.5 -67q95 0 156 67t61 162t-60.5 163.5t-154.5 67.5
q-94 0 -154.5 -67.5t-62.5 -163.5z" />
    <glyph glyph-name="c" unicode="c" horiz-adv-x="1171" 
d="M74 508q0 112 39 211t109.5 173.5t177 117.5t233.5 43q87 0 166 -21.5t137 -57t99.5 -73.5t68.5 -78l-211 -184q-77 106 -203 106q-95 0 -161 -65t-66 -164q0 -105 65.5 -170t167.5 -65q120 0 197 114l217 -194q-27 -35 -63.5 -69.5t-95.5 -74t-143 -64t-179 -24.5
q-165 0 -293 73.5t-195 195.5t-67 270z" />
    <glyph glyph-name="d" unicode="d" horiz-adv-x="1388" 
d="M578 -20q-98 0 -190 39.5t-161.5 108t-111 167.5t-41.5 211q0 113 40.5 214t107.5 171.5t157.5 111.5t187.5 41q190 0 314 -114v504h389v-1434h-389v100q-123 -120 -303 -120zM449 508q0 -95 60.5 -162t156.5 -67q94 0 153.5 67t59.5 162q0 96 -60 163.5t-155 67.5
q-94 0 -154.5 -68t-60.5 -163z" />
    <glyph glyph-name="e" unicode="e" horiz-adv-x="1247" 
d="M74 510q0 115 36 212.5t104.5 170.5t175.5 114.5t241 41.5q139 0 247.5 -49t174 -133t97 -192.5t24.5 -230.5h-705q15 -87 71.5 -134.5t135.5 -47.5q73 0 128 25.5t99 85.5l225 -164q-27 -42 -69 -81t-102 -74.5t-142.5 -57t-173.5 -21.5q-126 0 -233 41.5t-180 113.5
t-113.5 170t-40.5 210zM481 647h348q-6 58 -52.5 95.5t-114.5 37.5q-66 0 -113.5 -34.5t-67.5 -98.5z" />
    <glyph glyph-name="f" unicode="f" horiz-adv-x="851" 
d="M57 1024h90v72q0 179 96 271.5t277 92.5q145 0 299 -61l-76 -242q-70 25 -112 25q-49 0 -70.5 -28t-23.5 -89v-41h223v-301h-223v-723h-390v723h-90v301z" />
    <glyph glyph-name="g" unicode="g" horiz-adv-x="1378" 
d="M74 510q0 113 40 213.5t107.5 170t157.5 110t188 40.5q194 0 312 -112v92h389v-967q0 -127 -44 -225t-123 -158.5t-184.5 -91t-232.5 -28.5q-171 0 -300 42t-198 103l140 223q53 -45 120.5 -66.5t169.5 -21.5q117 0 190 58t73 161v53q-121 -118 -301 -118
q-133 0 -248 65.5t-185.5 186.5t-70.5 270zM449 512q0 -95 60.5 -160t156.5 -65q92 0 152.5 66t60.5 159q0 100 -57.5 163.5t-157.5 63.5q-94 1 -154.5 -65.5t-60.5 -161.5z" />
    <glyph glyph-name="h" unicode="h" horiz-adv-x="1372" 
d="M119 0v1434h389v-508q122 125 301 125q204 -2 330.5 -134.5t126.5 -375.5v-541h-392v502q0 99 -47 157.5t-129 57.5q-90 -1 -140 -66t-50 -166v-485h-389z" />
    <glyph glyph-name="i" unicode="i" horiz-adv-x="677" 
d="M532 0h-389v1024h389v-1024zM338 1116q-92 0 -154.5 48.5t-62.5 117.5t63 118t154 48q87 -2 153 -51t66 -115q0 -67 -65.5 -116.5t-153.5 -49.5z" />
    <glyph glyph-name="j" unicode="j" horiz-adv-x="673" 
d="M199 -434q-108 0 -236 31v262q41 -15 84 -15q100 0 100 107v1073h390v-1096q0 -186 -76.5 -274t-261.5 -88zM121 1282q0 68 63 117t154 49q86 0 151.5 -50t65.5 -116q0 -67 -64.5 -116.5t-152.5 -49.5q-92 0 -154.5 48.5t-62.5 117.5z" />
    <glyph glyph-name="k" unicode="k" horiz-adv-x="1404" 
d="M119 1434h389v-717l348 307h475l-452 -418l464 -606h-452l-275 356l-108 -98v-258h-389v1434z" />
    <glyph glyph-name="l" unicode="l" horiz-adv-x="630" 
d="M510 1434v-1434h-389v1434h389z" />
    <glyph glyph-name="m" unicode="m" horiz-adv-x="2023" 
d="M119 0v1024h389v-100q122 125 303 125q109 0 196 -51.5t140 -151.5q60 94 153.5 148.5t215.5 54.5q175 0 288 -132.5t113 -375.5v-541h-389v502q0 98 -41 156.5t-113 58.5q-75 0 -118.5 -65.5t-43.5 -166.5v-485h-389v502q0 98 -40.5 156.5t-112.5 58.5q-76 0 -119 -65.5
t-43 -168.5v-483h-389z" />
    <glyph glyph-name="n" unicode="n" horiz-adv-x="1372" 
d="M508 0h-389v1024h389v-98q123 123 303 123q203 0 329 -132t126 -376v-541h-389v502q0 98 -48 156.5t-131 58.5q-90 0 -140 -65.5t-50 -168.5v-483z" />
    <glyph glyph-name="o" unicode="o" horiz-adv-x="1275" 
d="M639 -25q-176 0 -306 72.5t-194.5 193t-64.5 271.5q0 152 64 272.5t193.5 192.5t305.5 72q177 0 307 -72t194 -192.5t64 -272.5q0 -151 -64.5 -271.5t-194 -193t-304.5 -72.5zM637 743q-79 0 -126.5 -66.5t-47.5 -164.5q0 -96 48 -162.5t126 -66.5q80 0 128 66t48 163
q0 99 -47.5 165t-128.5 66z" />
    <glyph glyph-name="p" unicode="p" horiz-adv-x="1386" 
d="M119 1024h389v-94q124 114 313 114q97 0 187 -41t157.5 -111.5t107.5 -171t40 -212.5q0 -114 -41.5 -213.5t-110.5 -167.5t-160.5 -107.5t-189.5 -39.5q-180 0 -303 120v-510h-389v1434zM508 508q0 -95 60.5 -162t154.5 -67q95 0 156 67t61 162t-61.5 163t-155.5 68
q-93 0 -153 -67.5t-62 -163.5z" />
    <glyph glyph-name="q" unicode="q" horiz-adv-x="1378" 
d="M74 508q0 112 40 212.5t107 171t157.5 111.5t188.5 41q188 0 312 -114v94h389v-1434h-389v510q-120 -120 -304 -120q-98 0 -189 39.5t-160 107.5t-110.5 167.5t-41.5 213.5zM664 739q-94 0 -154.5 -68t-60.5 -163t60.5 -162t154.5 -67t154.5 67t60.5 162q0 96 -61 163.5
t-154 67.5z" />
    <glyph glyph-name="r" unicode="r" horiz-adv-x="1064" 
d="M119 0v1024h389v-113q117 133 309 133q116 0 225 -45l-108 -327q-76 39 -162 39q-45 0 -88.5 -14.5t-84.5 -46t-66 -91.5t-25 -141v-418h-389z" />
    <glyph glyph-name="s" unicode="s" horiz-adv-x="1036" 
d="M51 96l142 230q43 -34 128 -56t189 -22q35 0 61.5 14.5t26.5 36.5q0 24 -29 44.5t-75 37.5t-102 35.5t-112 45t-102 59.5t-75 85.5t-29 116.5q0 152 125.5 239t335.5 87q235 0 407 -99l-127 -243q-109 71 -270 71q-90 0 -90 -45q0 -26 55 -50.5t133 -52t156 -65t133 -106
t55 -158.5q0 -153 -131 -240.5t-348 -87.5q-100 0 -182.5 13t-139.5 37.5t-81 38t-54 34.5z" />
    <glyph glyph-name="t" unicode="t" horiz-adv-x="888" 
d="M166 723h-131v301h131v266h389v-266h223v-301h-223v-340q0 -56 18 -85.5t64 -29.5q63 0 121 25l69 -266q-111 -54 -290 -54q-89 0 -155.5 21t-107 56t-65.5 88.5t-34 111.5t-9 133v340z" />
    <glyph glyph-name="u" unicode="u" horiz-adv-x="1372" 
d="M561 -25q-203 -2 -329 130.5t-126 377.5v541h390v-502q0 -98 47 -156.5t131 -58.5q90 0 140 65.5t50 168.5v483h389v-1024h-389v98q-123 -123 -303 -123z" />
    <glyph glyph-name="v" unicode="v" horiz-adv-x="1470" 
d="M532 0l-483 1024h416l270 -586l271 586h415l-483 -1024h-406z" />
    <glyph glyph-name="w" unicode="w" horiz-adv-x="2037" 
d="M444 0l-391 1024h410l184 -537l182 537h377l183 -537l184 537h412l-396 -1024h-401l-170 446l-172 -446h-402z" />
    <glyph glyph-name="x" unicode="x" horiz-adv-x="1372" 
d="M489 0h-444l420 524l-395 500h436l180 -223l178 223h439l-398 -500l422 -524h-444l-197 248z" />
    <glyph glyph-name="y" unicode="y" horiz-adv-x="1447" 
d="M588 8l-539 1016h422l293 -565l223 565h412l-477 -1184q-59 -145 -181 -218t-276 -73q-131 0 -215 33.5t-158 91.5l121 228q81 -66 186 -66q123 0 168 117z" />
    <glyph glyph-name="z" unicode="z" horiz-adv-x="1191" 
d="M1098 0h-1004v301l492 422h-492v301h1004v-301l-490 -422h490v-301z" />
    <glyph glyph-name="braceleft" unicode="{" horiz-adv-x="905" 
d="M16 662q93 0 142 44.5t49 116.5v260q0 154 112 252.5t275 98.5h254v-322h-172q-28 0 -45 -16t-17 -43v-260q0 -101 -55.5 -181.5t-138.5 -99.5q84 -15 139 -93.5t55 -187.5v-256q0 -28 17 -45.5t45 -17.5h172v-322h-254q-160 0 -273.5 107.5t-113.5 259.5v258
q-2 63 -50.5 105t-140.5 42v300z" />
    <glyph glyph-name="bar" unicode="|" horiz-adv-x="602" 
d="M463 1583v-1993h-324v1993h324z" />
    <glyph glyph-name="braceright" unicode="}" horiz-adv-x="905" 
d="M57 -88h172q28 0 45 17.5t17 45.5v256q0 102 55 183t139 98q-84 15 -139 93.5t-55 187.5v260q0 28 -16.5 43.5t-45.5 15.5h-172v322h254q160 0 273.5 -105.5t113.5 -257.5v-262q2 -63 50.5 -105t140.5 -42v-300q-93 0 -142 -44.5t-49 -116.5v-256q0 -154 -112.5 -254.5
t-274.5 -100.5h-254v322z" />
    <glyph glyph-name="asciitilde" unicode="~" horiz-adv-x="1275" 
d="M311 465l-213 35q9 65 23.5 123.5t42.5 124t64.5 112.5t93 78t124.5 31t127 -28t97.5 -67.5t70 -79.5t60 -68t53.5 -28q45 0 77 86t40 170l207 -24q-3 -67 -15 -130.5t-37.5 -127.5t-62 -111t-93 -76.5t-126.5 -29.5q-53 0 -100.5 20.5t-80 50.5t-63.5 66t-52.5 66
t-45 50.5t-43.5 20.5q-33 0 -67.5 -52.5t-54.5 -111.5t-26 -100z" />
    <glyph glyph-name="exclamdown" unicode="&#xa1;" horiz-adv-x="651" 
d="M539 -412h-428l34 922h361zM326 606q-92 0 -160 66t-68 151q0 89 68.5 154t159.5 65q95 0 161 -64t66 -155q0 -88 -66 -152t-161 -65z" />
    <glyph glyph-name="cent" unicode="&#xa2;" horiz-adv-x="1171" 
d="M74 711q0 243 160.5 394.5t404.5 149.5l37 179h207l-43 -213q91 -32 159 -84.5t105 -110.5l-201 -164q-51 70 -119 101l-106 -510q70 3 134 36.5t101 90.5l197 -177q-180 -231 -492 -231l-36 -172h-207l43 207q-160 58 -252 195t-92 309zM479 502l103 481
q-92 -20 -147.5 -95t-55.5 -171q0 -66 26.5 -123t73.5 -92z" />
    <glyph glyph-name="sterling" unicode="&#xa3;" horiz-adv-x="1204" 
d="M1092 0h-1035v305h123q60 24 86.5 65.5t26.5 84.5q0 41 -17 141h-219v227h172q-14 82 -14 140q0 234 124 360.5t382 126.5q40 0 80.5 -4t74.5 -11.5t66.5 -16.5t59 -19.5t50 -20.5t40.5 -19t29.5 -16.5t18.5 -11.5l7 -4l-158 -242q-12 8 -33.5 19.5t-82 31t-115.5 19.5
q-82 0 -122 -49.5t-40 -138.5q0 -62 14 -144h463v-227h-416q14 -102 13 -129q-3 -92 -39 -162h461v-305z" />
    <glyph glyph-name="currency" unicode="&#xa4;" horiz-adv-x="1275" 
d="M231 928l-92 94l197 197l96 -97q93 49 199 49q125 0 215 -49l94 97l197 -197l-93 -94q54 -100 54 -209q0 -116 -54 -213l93 -94l-197 -197l-94 96q-91 -49 -207 -49t-207 49l-96 -96l-197 197l92 94q-53 98 -53 211t53 211zM473 717q0 -74 49.5 -128t116.5 -54
q66 0 115 54.5t49 127.5q0 72 -49.5 127t-114.5 55q-67 0 -116.5 -54t-49.5 -128z" />
    <glyph glyph-name="yen" unicode="&#xa5;" horiz-adv-x="1634" 
d="M522 709l-465 725h463l297 -457l297 457h463l-465 -725h221v-213h-313v-111h313v-213h-313v-172h-408v172h-311v213h311v111h-311v213h221z" />
    <glyph glyph-name="brokenbar" unicode="&#xa6;" horiz-adv-x="604" 
d="M465 -410h-326v852h326v-852zM139 1575h326v-846h-326v846z" />
    <glyph glyph-name="section" unicode="&#xa7;" horiz-adv-x="1157" 
d="M55 -123l201 236q69 -62 171 -105t194 -43q65 0 110 28t45 89q0 34 -38.5 61t-99.5 46.5t-135 39.5t-148 48.5t-135 66t-99.5 98t-38.5 138.5q0 137 137 223q-137 101 -137 276q0 79 27 143t73 106t108.5 70.5t130.5 41t142 12.5q125 0 265 -42t237 -114l-139 -247
q-177 114 -373 114q-145 0 -145 -80q0 -32 38.5 -55.5t99.5 -40.5t135 -35.5t148 -48.5t135 -72t99.5 -113.5t38.5 -164.5q0 -130 -88 -236q88 -91 88 -235q0 -100 -39 -180.5t-106.5 -130.5t-153 -76.5t-182.5 -26.5q-151 0 -306.5 56.5t-259.5 152.5zM408 612
q0 -23 24 -44t65 -36.5t78 -26.5t80 -21.5t54 -14.5q26 14 46.5 37t20.5 47q0 20 -21.5 39t-58.5 34t-70 25.5t-72 21t-48 13.5q-98 -19 -98 -74z" />
    <glyph glyph-name="dieresis" unicode="&#xa8;" horiz-adv-x="933" 
d="M653 1444q66 0 104 -43t38 -90q0 -46 -37 -89.5t-105 -43.5q-67 0 -103 43t-36 90t36.5 89.5t102.5 43.5zM281 1444q64 0 101.5 -43t37.5 -90t-36 -90t-103 -43q-68 0 -105 43.5t-37 89.5t38 89t104 44z" />
    <glyph glyph-name="copyright" unicode="&#xa9;" horiz-adv-x="1624" 
d="M811 1450q150 0 287 -57.5t236 -155.5t157.5 -234t58.5 -286q0 -148 -58 -283.5t-156 -234t-235.5 -157t-289.5 -58.5q-200 0 -369.5 97.5t-268.5 266.5t-99 369q0 148 57.5 283.5t156 234.5t235.5 157.5t288 57.5zM219 717q1 -163 80.5 -302t215.5 -219.5t296 -80.5
q121 0 230.5 47.5t189 128.5t126 192.5t46.5 233.5q1 248 -173 424t-419 178q-120 1 -229.5 -47t-189 -128.5t-126.5 -192.5t-47 -234zM334 717q0 128 65 236.5t175 170.5t237 62q106 0 182.5 -34t163.5 -108l-131 -151q-53 47 -103 66.5t-112 19.5q-103 0 -177.5 -77.5
t-74.5 -184.5t74.5 -184.5t177.5 -77.5q138 4 205 84l145 -144q-83 -74 -167 -110.5t-183 -36.5q-127 0 -237 62t-175 170.5t-65 236.5z" />
    <glyph glyph-name="ordfeminine" unicode="&#xaa;" horiz-adv-x="884" 
d="M379 809q-122 0 -211.5 90t-89.5 225q0 136 87.5 229t207.5 93q110 0 184 -64v52h236v-613h-236v58q-73 -70 -178 -70zM305 1124q0 -55 35.5 -94t91.5 -39t90.5 39t34.5 96q0 56 -35.5 96t-91.5 40q-54 0 -89.5 -40.5t-35.5 -97.5z" />
    <glyph glyph-name="guillemotleft" unicode="&#xab;" horiz-adv-x="1110" 
d="M743 111l-231 401l231 401h289l-229 -401l229 -401h-289zM57 512l232 401h289l-230 -401l230 -401h-289z" />
    <glyph glyph-name="logicalnot" unicode="&#xac;" horiz-adv-x="1245" 
d="M98 815l1049 -2v-537h-316v236h-733v303z" />
    <glyph glyph-name="uni00AD" unicode="&#xad;" horiz-adv-x="1058" 
d="M895 358h-731v304h731v-304z" />
    <glyph glyph-name="registered" unicode="&#xae;" horiz-adv-x="1624" 
d="M74 717q0 148 57.5 283.5t156 234t235 157t288.5 58.5q150 0 287 -57.5t236 -155.5t157.5 -234t58.5 -286q0 -148 -58 -283t-156.5 -233.5t-235.5 -157t-289 -59.5q-200 0 -369.5 97.5t-268.5 266.5t-99 369zM219 717q1 -163 80.5 -302t215.5 -219.5t296 -80.5
q121 0 230.5 47.5t189 128.5t126 192.5t46.5 233.5q0 163 -79.5 301.5t-215.5 219t-297 81.5q-120 1 -230 -47t-189.5 -128.5t-126.5 -192.5t-46 -234zM719 293h-219v860h403q134 0 220.5 -80t86.5 -201q0 -90 -54 -162.5t-144 -103.5l188 -313h-256l-162 295h-63v-295z
M719 977v-211h129q143 0 143 106q0 56 -36 80.5t-107 24.5h-129z" />
    <glyph glyph-name="macron" unicode="&#xaf;" horiz-adv-x="802" 
d="M664 1368v-186h-525v186h525z" />
    <glyph glyph-name="degree" unicode="&#xb0;" horiz-adv-x="831" 
d="M416 1452q141 0 241.5 -100.5t100.5 -241.5t-100.5 -241.5t-241.5 -100.5t-241.5 100.5t-100.5 241.5t100.5 241.5t241.5 100.5zM236 1110q0 -74 53 -127t127 -53q75 0 127.5 53t52.5 127q0 75 -53 127.5t-127 52.5t-127 -53t-53 -127z" />
    <glyph glyph-name="plusminus" unicode="&#xb1;" horiz-adv-x="1075" 
d="M381 657h-328v304h328v301h313v-301h328v-304h-328v-301h-313v301zM53 252h969v-252h-969v252z" />
    <glyph glyph-name="twosuperior" unicode="&#xb2;" horiz-adv-x="892" 
d="M465 1759q72 0 135 -13.5t118.5 -42.5t87.5 -82t32 -124q0 -56 -25 -111t-71 -105t-88.5 -86.5t-100.5 -78.5l-53 -39h348v-205h-782v170l190 136q2 2 30 21t39.5 28t41.5 30.5t46 35.5t41.5 36t39.5 39.5t29.5 37.5t22.5 38.5t7 34.5q0 31 -26 51t-81 20
q-148 0 -231 -116l-166 127q144 198 416 198z" />
    <glyph glyph-name="threesuperior" unicode="&#xb3;" horiz-adv-x="907" 
d="M37 1008l139 153q51 -47 129 -70.5t146 -23.5t105.5 21.5t37.5 56.5q0 23 -22.5 40t-52.5 25.5t-71 13.5t-65.5 6t-48.5 1h-74v176h68q29 0 59 3.5t65.5 12.5t57.5 29t22 49t-26.5 44.5t-71.5 15.5q-60 0 -132 -27.5t-132 -77.5l-131 148q142 151 416 151
q159 0 252.5 -57.5t93.5 -153.5q0 -81 -43.5 -129.5t-106.5 -62.5q34 -4 68.5 -19.5t66 -42t51.5 -67.5t21 -90q0 -127 -113 -202t-303 -75q-152 0 -252.5 46t-152.5 106z" />
    <glyph glyph-name="acute" unicode="&#xb4;" horiz-adv-x="821" 
d="M682 1376l-297 -198h-246l387 356z" />
    <glyph glyph-name="paragraph" unicode="&#xb6;" horiz-adv-x="1261" 
d="M37 983q0 184 129.5 317.5t312.5 133.5h643v-1670h-291v1389h-159v-1389h-293v785q-148 37 -245 158t-97 276z" />
    <glyph glyph-name="periodcentered" unicode="&#xb7;" horiz-adv-x="733" 
d="M139 719q0 90 66.5 153.5t161.5 63.5q92 0 159.5 -65t67.5 -152t-68.5 -153t-158.5 -66q-95 0 -161.5 64.5t-66.5 154.5z" />
    <glyph glyph-name="cedilla" unicode="&#xb8;" horiz-adv-x="780" 
d="M139 -375l60 150q47 -26 81 -38.5t82 -12.5q37 0 55.5 14.5t18.5 36.5q0 51 -69 51q-42 0 -64 -16l-86 90l109 202h161l-41 -131q90 -8 143.5 -60.5t53.5 -133.5q0 -92 -71 -153.5t-191 -61.5q-153 0 -242 63z" />
    <glyph glyph-name="onesuperior" unicode="&#xb9;" horiz-adv-x="921" 
d="M115 1536l309 205h219v-666h219v-203h-745v203h260v367l-119 -80z" />
    <glyph glyph-name="ordmasculine" unicode="&#xba;" horiz-adv-x="841" 
d="M102 1124q0 135 99 229.5t241 94.5q141 0 239.5 -94.5t98.5 -229.5t-99 -229t-239 -94q-141 0 -240.5 94t-99.5 229zM440 961q64 0 105 47.5t41 115.5t-40.5 115t-105.5 47t-104 -46.5t-39 -115.5q0 -68 39.5 -115.5t103.5 -47.5z" />
    <glyph glyph-name="guillemotright" unicode="&#xbb;" horiz-adv-x="1110" 
d="M532 111l230 401l-230 401h291l230 -401l-230 -401h-291zM369 111h-291l229 401l-229 401h291l229 -401z" />
    <glyph glyph-name="onequarter" unicode="&#xbc;" horiz-adv-x="2187" 
d="M1237 322l512 546h213v-493h152v-201h-152v-174h-266v174h-459v148zM221 1055l-143 174l309 205h221v-666h217v-203h-745v203h260v367zM807 0h-238l928 1434h238zM1696 530l-137 -155h137v155z" />
    <glyph glyph-name="onehalf" unicode="&#xbd;" horiz-adv-x="2240" 
d="M1784 887q77 0 142.5 -15t118 -45t82.5 -82t30 -120q0 -56 -23 -109t-67 -101.5t-86 -84.5t-101 -80l-61 -45h348v-205h-783v168l191 137q9 7 44 31.5t55.5 40t54.5 42.5t55.5 48t43.5 46t33 48t11 43q0 30 -26 52t-81 22q-144 0 -233 -129l-164 139q130 199 416 199z
M221 1055l-143 174l309 205h221v-666h217v-203h-745v203h260v367zM563 0l928 1434h238l-928 -1434h-238z" />
    <glyph glyph-name="threequarters" unicode="&#xbe;" horiz-adv-x="2072" 
d="M74 700l139 154q50 -47 127.5 -70.5t146.5 -23.5q67 0 105.5 22t38.5 56q0 27 -28.5 45.5t-74 26.5t-83 11t-74.5 3h-74l-2 178l70 -2q30 0 59.5 3.5t65 12.5t57 29t20.5 49q0 29 -26 44t-70 15q-61 0 -132 -27t-132 -77l-131 147q143 152 413 152q159 0 253 -57.5
t94 -153.5q0 -82 -43 -131t-105 -62q33 -4 67.5 -19.5t66 -42t51.5 -67.5t20 -90q0 -127 -112.5 -201.5t-303.5 -74.5q-151 0 -251 46t-152 105zM1581 174h-461v148l514 546h215v-493h150v-201h-150v-174h-268v174zM758 0h-238l928 1434h238zM1444 375h137v155z" />
    <glyph glyph-name="questiondown" unicode="&#xbf;" horiz-adv-x="1232" 
d="M606 -436q-97 0 -185.5 20t-168 62.5t-127 120t-47.5 180.5q0 85 38 158.5t94 124.5t113 95.5t103.5 91.5t56.5 93h359q-9 -50 -34 -94t-57 -77.5t-69 -65t-71.5 -61.5t-63 -61.5t-45.5 -71.5t-17 -85q0 -51 44.5 -78t97.5 -27q92 0 186.5 52.5t153.5 130.5l229 -219
q-98 -139 -255 -214t-335 -75zM647 608q-89 0 -157 64.5t-68 152.5q0 90 68.5 154.5t158.5 64.5q92 0 158.5 -64t66.5 -155t-67.5 -154t-159.5 -63z" />
    <glyph glyph-name="Agrave" unicode="&#xc0;" horiz-adv-x="1767" 
d="M455 0h-430l647 1434h426l645 -1434h-428l-103 231h-655zM909 1587l-297 199l158 158l385 -357h-246zM885 969l-187 -414h371z" />
    <glyph glyph-name="Aacute" unicode="&#xc1;" horiz-adv-x="1767" 
d="M455 0h-430l647 1434h426l645 -1434h-428l-103 231h-655zM858 1587h-246l387 357l156 -158zM698 555h371l-184 414z" />
    <glyph glyph-name="Acircumflex" unicode="&#xc2;" horiz-adv-x="1767" 
d="M455 0h-430l647 1434h426l645 -1434h-428l-103 231h-655zM512 1587l268 297h207l268 -297h-223l-147 131l-148 -131h-225zM885 969l-187 -414h371z" />
    <glyph glyph-name="Atilde" unicode="&#xc3;" horiz-adv-x="1767" 
d="M455 0h-430l647 1434h426l645 -1434h-428l-103 231h-655zM682 1591h-158q7 57 20.5 105t39.5 95t70.5 74.5t103.5 28.5q56 0 99 -19t64 -41t44 -41t43 -19q31 0 51.5 33t27.5 65h158q-12 -301 -225 -301q-45 0 -85 19t-64.5 41.5t-55 41.5t-57.5 19q-32 0 -51 -31.5
t-25 -69.5zM885 969l-187 -414h371z" />
    <glyph glyph-name="Adieresis" unicode="&#xc4;" horiz-adv-x="1767" 
d="M25 0l647 1434h426l645 -1434h-428l-103 231h-655l-102 -231h-430zM698 555h371l-184 414zM1071 1853q66 0 103.5 -43t37.5 -90q0 -46 -37 -89.5t-104 -43.5q-68 0 -104.5 43t-36.5 90t37 89.5t104 43.5zM696 1853q66 0 104 -43t38 -90q0 -46 -37.5 -89.5t-104.5 -43.5
t-103 43t-36 90t36.5 89.5t102.5 43.5z" />
    <glyph glyph-name="Aring" unicode="&#xc5;" horiz-adv-x="1767" 
d="M25 0l647 1434h426l645 -1434h-428l-103 231h-655l-102 -231h-430zM651 1761q0 35 14.5 71.5t42 69.5t74 54.5t103.5 21.5t103 -21t73 -54.5t41 -70t14 -71.5t-14 -71.5t-41 -70t-73 -54.5t-103 -21t-103.5 21.5t-74 54.5t-42 69.5t-14.5 71.5zM698 555h371l-184 414z
M885 1671q30 0 50.5 23.5t20.5 66.5t-21 66.5t-50 23.5q-30 0 -52 -23.5t-22 -66.5t22 -66.5t52 -23.5z" />
    <glyph glyph-name="AE" unicode="&#xc6;" horiz-adv-x="2297" 
d="M25 0l671 1434h1504v-326h-742v-229h647v-324h-647v-229h742v-326h-1149v307h-453l-143 -307h-430zM971 1108l-221 -477h301v477h-80z" />
    <glyph glyph-name="Ccedilla" unicode="&#xc7;" horiz-adv-x="1540" 
d="M657 0q-126 27 -232 88.5t-184.5 151.5t-122.5 211.5t-44 261.5q0 163 62.5 302.5t168.5 234t248.5 148t300.5 54.5q215 0 377 -83t248 -208l-273 -200q-120 163 -332 163q-163 0 -278 -114.5t-115 -296.5q0 -181 113 -292.5t278 -111.5q232 0 342 168l263 -182
q-31 -54 -83 -106t-127.5 -100.5t-183 -78.5t-229.5 -30h-20l-9 -25q89 -6 142 -58.5t53 -134.5q0 -94 -70.5 -155t-191.5 -60q-156 0 -240 62l60 149q47 -26 81 -38.5t82 -12.5q36 0 54 15t18 38q0 52 -70 52q-37 0 -61 -17l-86 90z" />
    <glyph glyph-name="Egrave" unicode="&#xc8;" horiz-adv-x="1390" 
d="M139 0v1434h1153v-322h-745v-240h643v-311h-643v-239h745v-322h-1153zM721 1587l-297 199l158 158l385 -357h-246z" />
    <glyph glyph-name="Eacute" unicode="&#xc9;" horiz-adv-x="1390" 
d="M1292 0h-1153v1434h1153v-322h-745v-240h643v-311h-643v-239h745v-322zM424 1587l387 357l156 -158l-297 -199h-246z" />
    <glyph glyph-name="Ecircumflex" unicode="&#xca;" horiz-adv-x="1390" 
d="M139 0v1434h1153v-322h-745v-240h643v-311h-643v-239h745v-322h-1153zM549 1587h-225l268 297h207l268 -297h-221l-150 131z" />
    <glyph glyph-name="Edieresis" unicode="&#xcb;" horiz-adv-x="1390" 
d="M139 0v1434h1153v-322h-745v-240h643v-311h-643v-239h745v-322h-1153zM883 1853q66 0 103.5 -43t37.5 -90q0 -46 -37 -89.5t-104 -43.5q-68 0 -105 43.5t-37 89.5q0 47 37.5 89.5t104.5 43.5zM508 1853q66 0 103.5 -43t37.5 -90q0 -46 -37 -89.5t-104 -43.5t-103 43
t-36 90t36.5 89.5t102.5 43.5z" />
    <glyph glyph-name="Igrave" unicode="&#xcc;" horiz-adv-x="710" 
d="M559 1434v-1434h-407v1434h407zM627 1587h-246l-297 199l158 158z" />
    <glyph glyph-name="Iacute" unicode="&#xcd;" horiz-adv-x="710" 
d="M559 1434v-1434h-407v1434h407zM627 1786l-297 -199h-246l387 357z" />
    <glyph glyph-name="Icircumflex" unicode="&#xce;" horiz-adv-x="710" 
d="M152 1434h407v-1434h-407v1434zM-16 1587l268 297h207l268 -297h-223l-148 131l-147 -131h-225z" />
    <glyph glyph-name="Idieresis" unicode="&#xcf;" horiz-adv-x="710" 
d="M152 1434h407v-1434h-407v1434zM543 1587q-68 0 -105 43.5t-37 89.5q0 47 37.5 90t104.5 43q66 0 103.5 -43t37.5 -90q0 -46 -37 -89.5t-104 -43.5zM29 1720q0 47 36.5 90t102.5 43t103.5 -43t37.5 -90q0 -46 -37 -89.5t-104 -43.5t-103 43t-36 90z" />
    <glyph glyph-name="Eth" unicode="&#xd0;" horiz-adv-x="1609" 
d="M139 561h-102v305h102v568h635q172 0 315.5 -53.5t241 -148t151.5 -227t54 -288.5q0 -324 -207.5 -520.5t-554.5 -196.5h-635v561zM547 561v-235h227q154 0 254 111t100 280q0 174 -98 282.5t-256 108.5h-227v-242h284v-305h-284z" />
    <glyph glyph-name="Ntilde" unicode="&#xd1;" horiz-adv-x="1662" 
d="M547 0h-408v1434h412l565 -781v781h408v-1434h-414l-563 782v-782zM471 1591q7 57 21 105t40 95t70.5 74.5t102.5 28.5q56 0 100 -19t64.5 -41t43.5 -41t43 -19q30 0 52 33.5t28 64.5h156q-12 -301 -225 -301q-45 0 -85 19t-64 41.5t-54 41.5t-57 19q-58 0 -78 -101h-158
z" />
    <glyph glyph-name="Ograve" unicode="&#xd2;" horiz-adv-x="1705" 
d="M854 -23q-164 0 -309.5 59t-248.5 159t-162.5 237t-59.5 289q0 153 59.5 289t162.5 234t248.5 155t309.5 57t309.5 -57.5t248 -156t162 -234t58.5 -287.5q-1 -206 -102 -376t-279.5 -269t-396.5 -99zM481 721q0 -164 109 -280.5t264 -116.5q154 0 262.5 116t108.5 281
q0 163 -108 275t-263 112q-156 0 -264.5 -112.5t-108.5 -274.5zM582 1786l157 158l385 -357h-245z" />
    <glyph glyph-name="Oacute" unicode="&#xd3;" horiz-adv-x="1705" 
d="M854 -23q-164 0 -309.5 59t-248.5 159t-162.5 237t-59.5 289q0 153 59.5 289t162.5 234t248.5 155t309.5 57t309.5 -57.5t248 -156t162 -234t58.5 -287.5q-1 -206 -102 -376t-279.5 -269t-396.5 -99zM481 721q0 -164 109 -280.5t264 -116.5q154 0 262.5 116t108.5 281
q0 163 -108 275t-263 112q-156 0 -264.5 -112.5t-108.5 -274.5zM582 1587l387 357l155 -158l-297 -199h-245z" />
    <glyph glyph-name="Ocircumflex" unicode="&#xd4;" horiz-adv-x="1705" 
d="M74 721q0 153 59.5 289t162.5 234t248.5 155t309.5 57t309.5 -57.5t248 -156t162 -234t58.5 -287.5q-1 -154 -60.5 -291.5t-162 -237.5t-247.5 -158t-308 -57q-164 1 -309.5 60t-248.5 159t-162.5 236.5t-59.5 288.5zM481 721q0 -164 109 -280.5t264 -116.5
q154 0 262.5 116t108.5 281q0 163 -108 275t-263 112q-156 0 -264.5 -112.5t-108.5 -274.5zM707 1587h-226l269 297h206l269 -297h-224l-147 131z" />
    <glyph glyph-name="Otilde" unicode="&#xd5;" horiz-adv-x="1705" 
d="M854 -23q-164 0 -309.5 59t-248.5 159t-162.5 237t-59.5 289q0 153 59.5 289t162.5 234t248.5 155t309.5 57t309.5 -57.5t248 -156t162 -234t58.5 -287.5q-1 -206 -102 -376t-279.5 -269t-396.5 -99zM481 721q0 -164 109 -280.5t264 -116.5q154 0 262.5 116t108.5 281
q0 163 -108 275t-263 112q-156 0 -264.5 -112.5t-108.5 -274.5zM651 1591h-157q36 301 231 303q56 0 100 -19t65 -41t44 -41t43 -19q31 0 52 33t28 65h155q-8 -301 -223 -301q-45 0 -85.5 19t-65 41.5t-54.5 41.5t-57 19q-32 0 -51 -31.5t-25 -69.5z" />
    <glyph glyph-name="Odieresis" unicode="&#xd6;" horiz-adv-x="1705" 
d="M74 721q0 153 59.5 289t162.5 234t248.5 155t309.5 57t309.5 -57.5t248 -156t162 -234t58.5 -287.5q-1 -154 -60.5 -291.5t-162 -237.5t-247.5 -158t-308 -57q-164 1 -309.5 60t-248.5 159t-162.5 236.5t-59.5 288.5zM481 721q0 -164 109 -280.5t264 -116.5
q154 0 262.5 116t108.5 281q0 163 -108 275t-263 112q-156 0 -264.5 -112.5t-108.5 -274.5zM1040 1587q-68 0 -104.5 43t-36.5 90t37 90t104 43q66 0 104 -43t38 -90q0 -46 -37.5 -89.5t-104.5 -43.5zM666 1587q-67 0 -104.5 43.5t-37.5 89.5q0 47 38 90t104 43t103.5 -43
t37.5 -90q0 -46 -37 -89.5t-104 -43.5z" />
    <glyph glyph-name="multiply" unicode="&#xd7;" horiz-adv-x="1122" 
d="M313 254l-215 215l248 250l-246 246l215 215l246 -248l248 248l215 -215l-248 -248l248 -246l-215 -215l-246 246z" />
    <glyph glyph-name="Oslash" unicode="&#xd8;" horiz-adv-x="1638" 
d="M74 721q0 154 59.5 290t162.5 234t248 154.5t310 56.5q108 0 221 -29l45 86l269 3l-95 -185q157 -100 247.5 -260t90.5 -350q0 -154 -59.5 -292t-162.5 -237.5t-248 -157.5t-308 -57q-115 0 -227 31l-41 -82h-269l93 178q-157 102 -246.5 264.5t-89.5 352.5zM793 332
q24 -8 61 -8q154 0 262.5 116t108.5 281q0 157 -107 264zM854 1108q-156 0 -264.5 -112.5t-108.5 -274.5q0 -153 105 -266l323 647q-27 6 -55 6z" />
    <glyph glyph-name="Ugrave" unicode="&#xd9;" horiz-adv-x="1566" 
d="M784 -23q-131 0 -247 38t-205 109t-141 182.5t-52 248.5v879h408v-879q0 -107 62 -179.5t173 -72.5q113 0 175.5 72.5t62.5 179.5v879h407v-879q0 -137 -52 -248.5t-141 -182.5t-204.5 -109t-245.5 -38zM512 1786l156 158l387 -357h-246z" />
    <glyph glyph-name="Uacute" unicode="&#xda;" horiz-adv-x="1566" 
d="M784 -23q-131 0 -247 38t-205 109t-141 182.5t-52 248.5v879h408v-879q0 -107 62 -179.5t173 -72.5q113 0 175.5 72.5t62.5 179.5v879h407v-879q0 -137 -52 -248.5t-141 -182.5t-204.5 -109t-245.5 -38zM758 1587h-246l387 357l156 -158z" />
    <glyph glyph-name="Ucircumflex" unicode="&#xdb;" horiz-adv-x="1566" 
d="M784 -23q-131 0 -247 38t-205 109t-141 182.5t-52 248.5v879h408v-879q0 -107 62 -179.5t173 -72.5q113 0 175.5 72.5t62.5 179.5v879h407v-879q0 -137 -52 -248.5t-141 -182.5t-204.5 -109t-245.5 -38zM637 1587h-225l268 297h207l268 -297h-223l-148 131z" />
    <glyph glyph-name="Udieresis" unicode="&#xdc;" horiz-adv-x="1566" 
d="M784 -23q-131 0 -247 38t-205 109t-141 182.5t-52 248.5v879h408v-879q0 -107 62 -179.5t173 -72.5q113 0 175.5 72.5t62.5 179.5v879h407v-879q0 -137 -52 -248.5t-141 -182.5t-204.5 -109t-245.5 -38zM971 1587q-68 0 -105 43.5t-37 89.5q0 47 37.5 90t104.5 43
q66 0 103.5 -43t37.5 -90q0 -46 -37 -89.5t-104 -43.5zM455 1720q0 47 37.5 90t103.5 43t103.5 -43t37.5 -90q0 -46 -37 -89.5t-104 -43.5t-104 43.5t-37 89.5z" />
    <glyph glyph-name="Yacute" unicode="&#xdd;" horiz-adv-x="1634" 
d="M612 567l-555 867h457l303 -473l305 473h455l-557 -867v-567h-408v567zM545 1587l387 357l158 -158l-299 -199h-246z" />
    <glyph glyph-name="Thorn" unicode="&#xde;" horiz-adv-x="1449" 
d="M547 0h-408v1434h408v-205h309q123 0 225 -39.5t171 -108.5t107 -162t38 -200q-2 -219 -147.5 -364.5t-391.5 -145.5h-311v-209zM547 537h276q88 0 136.5 52.5t48.5 129.5q0 79 -49 130.5t-136 51.5h-276v-364z" />
    <glyph glyph-name="germandbls" unicode="&#xdf;" horiz-adv-x="1220" 
d="M139 926q0 243 124 384.5t360 141.5q66 0 128 -11.5t121 -37.5t103 -65t70.5 -99t25.5 -133q0 -36 -8 -68.5t-18.5 -57t-30.5 -49t-35 -40t-41 -34.5t-39.5 -27.5t-41 -24.5t-34.5 -21q10 -6 49 -27t58.5 -32.5t58 -37.5t60.5 -47t51 -55t45 -67.5t27.5 -78t11.5 -93.5
q0 -178 -110.5 -272t-293.5 -94q-64 0 -127 11.5t-92 21t-43 16.5l66 247q55 -34 159 -38q56 -2 102 30.5t46 96.5q0 53 -28 93t-69.5 62t-90 44.5t-90 41t-69.5 50.5t-28 73t18 73t44.5 50.5t57.5 40.5t57.5 43t44.5 58t18 85q0 58 -42 85.5t-91 27.5q-86 0 -127 -72.5
t-41 -193.5v-926h-316v926z" />
    <glyph glyph-name="agrave" unicode="&#xe0;" horiz-adv-x="1386" 
d="M74 506q0 113 40.5 214t107.5 171.5t157.5 111.5t187.5 41q190 0 314 -114v94h389v-1024h-389v100q-123 -120 -303 -120q-98 0 -190 39.5t-161.5 108t-111 167.5t-41.5 211zM449 508q0 -95 60.5 -162t156.5 -67q94 0 153.5 67t59.5 162q0 97 -60.5 164.5t-154.5 66.5
q-94 0 -154.5 -68t-60.5 -163zM422 1376l158 158l387 -356h-246z" />
    <glyph glyph-name="aacute" unicode="&#xe1;" horiz-adv-x="1386" 
d="M578 -20q-98 0 -190 39.5t-161.5 108t-111 167.5t-41.5 211q0 113 40.5 214t107.5 171.5t157.5 111.5t187.5 41q190 0 314 -114v94h389v-1024h-389v100q-123 -120 -303 -120zM449 508q0 -95 60.5 -162t156.5 -67q94 0 153.5 67t59.5 162q0 97 -60.5 164.5t-154.5 66.5
q-94 0 -154.5 -68t-60.5 -163zM668 1178h-246l387 356l158 -158z" />
    <glyph glyph-name="acircumflex" unicode="&#xe2;" horiz-adv-x="1386" 
d="M74 506q0 113 40.5 214t107.5 171.5t157.5 111.5t187.5 41q190 0 314 -114v94h389v-1024h-389v100q-123 -120 -303 -120q-98 0 -190 39.5t-161.5 108t-111 167.5t-41.5 211zM449 508q0 -95 60.5 -162t156.5 -67q94 0 153.5 67t59.5 162q0 97 -60.5 164.5t-154.5 66.5
q-94 0 -154.5 -68t-60.5 -163zM322 1178l270 297h205l268 -297h-221l-150 131l-147 -131h-225z" />
    <glyph glyph-name="atilde" unicode="&#xe3;" horiz-adv-x="1386" 
d="M578 -20q-98 0 -190 39.5t-161.5 108t-111 167.5t-41.5 211q0 113 40.5 214t107.5 171.5t157.5 111.5t187.5 41q190 0 314 -114v94h389v-1024h-389v100q-123 -120 -303 -120zM449 508q0 -95 60.5 -162t156.5 -67q94 0 153.5 67t59.5 162q0 97 -60.5 164.5t-154.5 66.5
q-94 0 -154.5 -68t-60.5 -163zM334 1182q36 301 233 303q56 0 100 -19t65 -41.5t43.5 -41.5t41.5 -19q31 0 53.5 33.5t28.5 64.5h156q-12 -301 -226 -301q-45 0 -85 19t-64 41.5t-54 41.5t-57 19q-57 0 -77 -100h-158z" />
    <glyph glyph-name="adieresis" unicode="&#xe4;" horiz-adv-x="1386" 
d="M578 -20q-98 0 -190 39.5t-161.5 108t-111 167.5t-41.5 211q0 113 40.5 214t107.5 171.5t157.5 111.5t187.5 41q190 0 314 -114v94h389v-1024h-389v100q-123 -120 -303 -120zM449 508q0 -95 60.5 -162t156.5 -67q94 0 153.5 67t59.5 162q0 97 -60.5 164.5t-154.5 66.5
q-94 0 -154.5 -68t-60.5 -163zM881 1178q-67 0 -103.5 43.5t-36.5 89.5q0 47 36.5 90t103.5 43q66 0 103.5 -43t37.5 -90q0 -46 -37 -89.5t-104 -43.5zM508 1178q-68 0 -104.5 43t-36.5 90t37 90t104 43q64 0 101.5 -43t37.5 -90t-36 -90t-103 -43z" />
    <glyph glyph-name="aring" unicode="&#xe5;" horiz-adv-x="1386" 
d="M74 506q0 113 40.5 214t107.5 171.5t157.5 111.5t187.5 41q190 0 314 -114v94h389v-1024h-389v100q-123 -120 -303 -120q-98 0 -190 39.5t-161.5 108t-111 167.5t-41.5 211zM694 1135q-57 0 -103.5 21.5t-73.5 54.5t-41.5 69.5t-14.5 71.5t14.5 71.5t41.5 69.5t73.5 54.5
t103.5 21.5t103.5 -21.5t74 -54.5t42 -69.5t14.5 -71.5t-14.5 -71.5t-42 -69.5t-74 -54.5t-103.5 -21.5zM449 508q0 -95 60.5 -162t156.5 -67q94 0 153.5 67t59.5 162q0 97 -60.5 164.5t-154.5 66.5q-94 0 -154.5 -68t-60.5 -163zM621 1352q0 -43 22 -66.5t51 -23.5
q30 0 51 23.5t21 66.5t-21.5 66.5t-50.5 23.5t-51 -23.5t-22 -66.5z" />
    <glyph glyph-name="ae" unicode="&#xe6;" horiz-adv-x="2054" 
d="M74 506q0 113 40.5 214t107.5 171.5t157.5 111.5t187.5 41q190 0 314 -114v94h237v-61q131 86 318 86q139 0 248 -49t174.5 -133t96.5 -192.5t23 -230.5h-702q15 -87 71.5 -134.5t135.5 -47.5q73 0 128 25.5t99 85.5l225 -164q-27 -42 -69 -81t-102 -74.5t-142.5 -57
t-173.5 -21.5q-188 0 -330 95v-70h-237v100q-123 -120 -303 -120q-98 0 -190 39.5t-161.5 108t-111 167.5t-41.5 211zM449 508q0 -95 60.5 -162t156.5 -67q94 0 153.5 67t59.5 162q0 97 -60.5 164.5t-154.5 66.5q-94 0 -154.5 -68t-60.5 -163zM1288 647h348q-6 58 -53 95.5
t-115 37.5q-138 0 -180 -133z" />
    <glyph glyph-name="ccedilla" unicode="&#xe7;" horiz-adv-x="1171" 
d="M477 -14q-185 45 -294 189t-109 333q0 112 39 211t109.5 173.5t177 117.5t233.5 43q87 0 166 -21.5t137 -57t99.5 -73.5t68.5 -78l-211 -184q-77 106 -203 106q-95 0 -161.5 -65.5t-65.5 -163.5q1 -105 66 -170t167 -65q120 0 197 114l217 -194q-88 -117 -217 -174.5
t-283 -57.5l-10 -26q97 0 167.5 -52.5t70.5 -146.5q0 -93 -71.5 -155t-191.5 -62q-152 0 -241 63l59 150q33 -18 51.5 -27t49 -16.5t63.5 -7.5q38 0 56 15t18 38q0 25 -18.5 35t-51.5 14q-36 3 -63 -16l-84 92z" />
    <glyph glyph-name="egrave" unicode="&#xe8;" horiz-adv-x="1247" 
d="M74 510q0 115 36 212.5t104.5 170.5t175.5 114.5t241 41.5q139 0 247.5 -49t174 -133t97 -192.5t24.5 -230.5h-705q15 -87 71.5 -134.5t135.5 -47.5q73 0 128 25.5t99 85.5l225 -164q-27 -42 -69 -81t-102 -74.5t-142.5 -57t-173.5 -21.5q-126 0 -233 41.5t-180 113.5
t-113.5 170t-40.5 210zM352 1376l158 158l385 -356h-246zM662 780q-66 0 -113.5 -34.5t-67.5 -98.5h348q-6 58 -52.5 95.5t-114.5 37.5z" />
    <glyph glyph-name="eacute" unicode="&#xe9;" horiz-adv-x="1247" 
d="M74 510q0 115 36 212.5t104.5 170.5t175.5 114.5t241 41.5q139 0 247.5 -49t174 -133t97 -192.5t24.5 -230.5h-705q15 -87 71.5 -134.5t135.5 -47.5q73 0 128 25.5t99 85.5l225 -164q-27 -42 -69 -81t-102 -74.5t-142.5 -57t-173.5 -21.5q-126 0 -233 41.5t-180 113.5
t-113.5 170t-40.5 210zM352 1178l387 356l156 -158l-297 -198h-246zM662 780q-66 0 -113.5 -34.5t-67.5 -98.5h348q-6 58 -52.5 95.5t-114.5 37.5z" />
    <glyph glyph-name="ecircumflex" unicode="&#xea;" horiz-adv-x="1247" 
d="M641 -25q-126 0 -233 41.5t-180 113.5t-113.5 170t-40.5 210q0 115 36 212.5t104.5 170.5t175.5 114.5t241 41.5q139 0 247.5 -49t174 -133t97 -192.5t24.5 -230.5h-705q15 -87 71.5 -134.5t135.5 -47.5q73 0 128 25.5t99 85.5l225 -164q-27 -42 -69 -81t-102 -74.5
t-142.5 -57t-173.5 -21.5zM252 1178l268 297h207l268 -297h-221l-149 131l-148 -131h-225zM481 647h348q-6 58 -52.5 95.5t-114.5 37.5q-66 0 -113.5 -34.5t-67.5 -98.5z" />
    <glyph glyph-name="edieresis" unicode="&#xeb;" horiz-adv-x="1247" 
d="M641 -25q-126 0 -233 41.5t-180 113.5t-113.5 170t-40.5 210q0 115 36 212.5t104.5 170.5t175.5 114.5t241 41.5q139 0 247.5 -49t174 -133t97 -192.5t24.5 -230.5h-705q15 -87 71.5 -134.5t135.5 -47.5q73 0 128 25.5t99 85.5l225 -164q-27 -42 -69 -81t-102 -74.5
t-142.5 -57t-173.5 -21.5zM811 1178q-67 0 -104 43.5t-37 89.5q0 47 37 90t104 43q66 0 103.5 -43t37.5 -90q0 -46 -37 -89.5t-104 -43.5zM436 1178q-67 0 -103 43t-36 90t36.5 90t102.5 43t104 -43t38 -90q0 -46 -37 -89.5t-105 -43.5zM481 647h348q-6 58 -52.5 95.5
t-114.5 37.5q-66 0 -113.5 -34.5t-67.5 -98.5z" />
    <glyph glyph-name="igrave" unicode="&#xec;" horiz-adv-x="675" 
d="M143 1024h389v-1024h-389v1024zM610 1178h-245l-297 198l155 158z" />
    <glyph glyph-name="iacute" unicode="&#xed;" horiz-adv-x="675" 
d="M143 1024h389v-1024h-389v1024zM610 1376l-297 -198h-245l385 356z" />
    <glyph glyph-name="icircumflex" unicode="&#xee;" horiz-adv-x="675" 
d="M143 0v1024h389v-1024h-389zM-33 1178l269 297h206l269 -297h-224l-147 131l-150 -131h-223z" />
    <glyph glyph-name="idieresis" unicode="&#xef;" horiz-adv-x="675" 
d="M143 0v1024h389v-1024h-389zM526 1178q-68 0 -104.5 43t-36.5 90t37 90t104 43q65 0 102.5 -43t37.5 -90q0 -46 -36.5 -89.5t-103.5 -43.5zM152 1178q-68 0 -105 43.5t-37 89.5q0 47 38 90t104 43t103.5 -43t37.5 -90q0 -46 -37 -89.5t-104 -43.5z" />
    <glyph glyph-name="eth" unicode="&#xf0;" horiz-adv-x="1327" 
d="M637 -25q-98 0 -186 19t-164 59.5t-131.5 98.5t-87 140.5t-31.5 180.5q0 141 71.5 251t185.5 167t247 57q106 0 208 -27.5t150 -80.5q0 118 -65 213l-115 -80l-96 139l84 59q-87 54 -175 54l11 235q246 0 418 -117l124 87l95 -138l-93 -63q87 -105 131 -243.5t42 -291.5
q-1 -115 -24 -218.5t-72 -195.5t-120 -159.5t-175.5 -106.5t-231.5 -39zM436 483q-1 -81 51.5 -131.5t133.5 -50.5t133.5 55.5t54.5 135.5q1 82 -52.5 131t-135.5 49q-87 0 -136 -56.5t-49 -132.5z" />
    <glyph glyph-name="ntilde" unicode="&#xf1;" horiz-adv-x="1372" 
d="M119 1024h389v-98q123 123 303 123q203 0 329 -132t126 -376v-541h-389v502q0 98 -48 156.5t-131 58.5q-90 0 -140 -65.5t-50 -168.5v-483h-389v1024zM326 1182q36 301 233 303q56 0 99.5 -19t64.5 -41.5t44 -41.5t42 -19q31 0 53.5 34t26.5 64h158q-12 -301 -226 -301
q-45 0 -85 19t-64 41.5t-54 41.5t-57 19q-58 0 -78 -100h-157z" />
    <glyph glyph-name="ograve" unicode="&#xf2;" horiz-adv-x="1275" 
d="M639 -25q-176 0 -306 72.5t-194.5 193t-64.5 271.5q0 152 64 272.5t193.5 192.5t305.5 72q177 0 307 -72t194 -192.5t64 -272.5q0 -151 -64.5 -271.5t-194 -193t-304.5 -72.5zM637 743q-79 0 -126.5 -66.5t-47.5 -164.5q0 -96 48 -162.5t126 -66.5q80 0 128 66t48 163
q0 99 -47.5 165t-128.5 66zM664 1178l-297 198l157 158l385 -356h-245z" />
    <glyph glyph-name="oacute" unicode="&#xf3;" horiz-adv-x="1275" 
d="M74 512q0 152 64 272.5t193.5 192.5t305.5 72q177 0 307 -72t194 -192.5t64 -272.5q0 -151 -64.5 -271.5t-194 -193t-304.5 -72.5q-176 0 -306 72.5t-194.5 193t-64.5 271.5zM463 512q0 -96 48 -162.5t126 -66.5q80 0 128 66t48 163q0 99 -47.5 165t-128.5 66
q-79 0 -126.5 -66.5t-47.5 -164.5zM367 1178l387 356l155 -158l-297 -198h-245z" />
    <glyph glyph-name="ocircumflex" unicode="&#xf4;" horiz-adv-x="1275" 
d="M74 512q0 152 64 272.5t193.5 192.5t305.5 72q177 0 307 -72t194 -192.5t64 -272.5q0 -151 -64.5 -271.5t-194 -193t-304.5 -72.5q-176 0 -306 72.5t-194.5 193t-64.5 271.5zM463 512q0 -96 48 -162.5t126 -66.5q80 0 128 66t48 163q0 99 -47.5 165t-128.5 66
q-79 0 -126.5 -66.5t-47.5 -164.5zM266 1178l269 297h206l269 -297h-222l-149 131l-147 -131h-226z" />
    <glyph glyph-name="otilde" unicode="&#xf5;" horiz-adv-x="1275" 
d="M74 512q0 152 64 272.5t193.5 192.5t305.5 72q177 0 307 -72t194 -192.5t64 -272.5q0 -151 -64.5 -271.5t-194 -193t-304.5 -72.5q-176 0 -306 72.5t-194.5 193t-64.5 271.5zM436 1182h-157q36 301 233 303q56 0 99 -19t64 -41.5t44 -41.5t43 -19q31 0 52 33t28 65h157
q-12 -301 -225 -301q-45 0 -85 19t-64.5 41.5t-55 41.5t-57.5 19q-32 0 -51 -31t-25 -69zM463 512q0 -96 48 -162.5t126 -66.5q80 0 128 66t48 163q0 99 -47.5 165t-128.5 66q-79 0 -126.5 -66.5t-47.5 -164.5z" />
    <glyph glyph-name="odieresis" unicode="&#xf6;" horiz-adv-x="1275" 
d="M639 -25q-176 0 -306 72.5t-194.5 193t-64.5 271.5q0 152 64 272.5t193.5 192.5t305.5 72q177 0 307 -72t194 -192.5t64 -272.5q0 -151 -64.5 -271.5t-194 -193t-304.5 -72.5zM463 512q0 -96 48 -162.5t126 -66.5q80 0 128 66t48 163q0 99 -47.5 165t-128.5 66
q-79 0 -126.5 -66.5t-47.5 -164.5zM825 1178q-67 0 -104 43.5t-37 89.5q0 47 37 90t104 43q66 0 104 -43t38 -90q0 -46 -37.5 -89.5t-104.5 -43.5zM451 1178q-67 0 -103.5 43.5t-36.5 89.5q0 47 37 90t103 43t103.5 -43t37.5 -90q0 -46 -37 -89.5t-104 -43.5z" />
    <glyph glyph-name="divide" unicode="&#xf7;" horiz-adv-x="892" 
d="M111 420v188h655v-188h-655zM438 305q61 1 105.5 -41t46.5 -100q1 -61 -44.5 -104.5t-107.5 -43.5q-64 0 -107.5 43t-43.5 105q0 57 44 99t107 42zM438 1006q61 0 105.5 -43t46.5 -99q1 -61 -44.5 -104t-107.5 -43q-64 0 -107.5 42.5t-43.5 104.5q0 58 44.5 100t106.5 42
z" />
    <glyph glyph-name="oslash" unicode="&#xf8;" horiz-adv-x="1253" 
d="M92 512q0 234 150 386t413 151q102 0 191 -25l53 88h215l-100 -166q101 -73 154 -185.5t53 -248.5q0 -112 -38 -209.5t-108.5 -170t-178 -114.5t-239.5 -43q-107 0 -202 29l-47 -78h-215l96 162q-95 73 -146 183t-51 241zM612 262q28 -4 43 -4q103 0 164.5 76.5
t61.5 187.5q0 78 -43 137zM655 788q-104 -1 -163.5 -77t-59.5 -189q0 -74 41 -135l225 395q-21 6 -43 6z" />
    <glyph glyph-name="ugrave" unicode="&#xf9;" horiz-adv-x="1372" 
d="M106 483v541h390v-502q0 -98 47 -156.5t131 -58.5q90 0 140 65.5t50 168.5v483h389v-1024h-389v98q-123 -123 -303 -123q-203 -2 -329 130.5t-126 377.5zM713 1178l-299 198l157 158l387 -356h-245z" />
    <glyph glyph-name="uacute" unicode="&#xfa;" horiz-adv-x="1372" 
d="M106 1024h390v-502q0 -98 47 -156.5t131 -58.5q90 0 140 65.5t50 168.5v483h389v-1024h-389v98q-123 -123 -303 -123q-203 -2 -329 130.5t-126 377.5v541zM414 1178l387 356l157 -158l-299 -198h-245z" />
    <glyph glyph-name="ucircumflex" unicode="&#xfb;" horiz-adv-x="1372" 
d="M561 -25q-203 -2 -329 130.5t-126 377.5v541h390v-502q0 -98 47 -156.5t131 -58.5q90 0 140 65.5t50 168.5v483h389v-1024h-389v98q-123 -123 -303 -123zM539 1178h-226l271 297h204l269 -297h-221l-150 131z" />
    <glyph glyph-name="udieresis" unicode="&#xfc;" horiz-adv-x="1372" 
d="M561 -25q-203 -2 -329 130.5t-126 377.5v541h390v-502q0 -98 47 -156.5t131 -58.5q90 0 140 65.5t50 168.5v483h389v-1024h-389v98q-123 -123 -303 -123zM872 1178q-67 0 -103 43t-36 90q0 48 36 90.5t103 42.5q66 0 104 -43t38 -90q0 -46 -37.5 -89.5t-104.5 -43.5z
M358 1311q0 47 37 90t103 43t103.5 -43t37.5 -90t-36.5 -90t-104.5 -43q-67 0 -103.5 43.5t-36.5 89.5z" />
    <glyph glyph-name="yacute" unicode="&#xfd;" horiz-adv-x="1447" 
d="M49 1024h422l293 -565l223 565h412l-477 -1184q-59 -145 -181 -218t-276 -73q-131 0 -215 33.5t-158 91.5l121 228q81 -66 186 -66q123 0 168 117l21 55zM453 1178l385 356l157 -158l-297 -198h-245z" />
    <glyph glyph-name="thorn" unicode="&#xfe;" horiz-adv-x="1386" 
d="M119 1434h389v-504q124 114 311 114q131 0 244 -69t181.5 -193t68.5 -274q0 -114 -41.5 -213.5t-110.5 -167.5t-160.5 -107.5t-189.5 -39.5q-180 0 -303 120v-510h-389v1844zM723 279q95 0 156 67.5t61 163.5q0 93 -61.5 161t-155.5 68q-93 0 -154 -67.5t-61 -161.5
q0 -96 60 -163.5t155 -67.5z" />
    <glyph glyph-name="ydieresis" unicode="&#xff;" horiz-adv-x="1447" 
d="M49 1024h422l293 -565l223 565h412l-477 -1184q-59 -145 -181 -218t-276 -73q-131 0 -215 33.5t-158 91.5l121 228q81 -66 186 -66q123 0 168 117l21 55zM911 1178q-68 0 -104.5 43t-36.5 90t37 90t104 43q66 0 104 -43t38 -90q0 -46 -37.5 -89.5t-104.5 -43.5zM395 1311
q0 47 38 90t104 43t103.5 -43t37.5 -90q0 -46 -37 -89.5t-104 -43.5t-104.5 43.5t-37.5 89.5z" />
    <glyph glyph-name="Amacron" unicode="&#x100;" horiz-adv-x="1767" 
d="M455 0h-430l647 1434h426l645 -1434h-428l-103 231h-655zM1145 1591h-522v187h522v-187zM698 555h371l-184 414z" />
    <glyph glyph-name="amacron" unicode="&#x101;" horiz-adv-x="1386" 
d="M74 506q0 113 40.5 214t107.5 171.5t157.5 111.5t187.5 41q190 0 314 -114v94h389v-1024h-389v100q-123 -120 -303 -120q-98 0 -190 39.5t-161.5 108t-111 167.5t-41.5 211zM449 508q0 -95 60.5 -162t156.5 -67q94 0 153.5 67t59.5 162q0 97 -60.5 164.5t-154.5 66.5
q-94 0 -154.5 -68t-60.5 -163zM432 1182v186h524v-186h-524z" />
    <glyph glyph-name="Abreve" unicode="&#x102;" horiz-adv-x="1767" 
d="M455 0h-430l647 1434h426l645 -1434h-428l-103 231h-655zM563 1880h166q0 -56 43.5 -91.5t112.5 -35.5q67 0 110 35.5t43 91.5h168q0 -145 -84.5 -230t-236.5 -85t-237 85.5t-85 229.5zM698 555h371l-184 414z" />
    <glyph glyph-name="abreve" unicode="&#x103;" horiz-adv-x="1386" 
d="M74 506q0 113 40.5 214t107.5 171.5t157.5 111.5t187.5 41q190 0 314 -114v94h389v-1024h-389v100q-123 -120 -303 -120q-98 0 -190 39.5t-161.5 108t-111 167.5t-41.5 211zM449 508q0 -95 60.5 -162t156.5 -67q94 0 153.5 67t59.5 162q0 97 -60.5 164.5t-154.5 66.5
q-94 0 -154.5 -68t-60.5 -163zM694 1155q-152 0 -236.5 85t-84.5 230h166q0 -56 43 -91.5t112 -35.5q67 0 110.5 35.5t43.5 91.5h168q0 -144 -85 -229.5t-237 -85.5z" />
    <glyph glyph-name="Aogonek" unicode="&#x104;" horiz-adv-x="1767" 
d="M25 0l647 1434h426l645 -1434h-289q-82 -97 -82 -180q0 -64 74 -64q53 0 110 41l62 -151q-79 -71 -205 -74q-121 0 -184.5 56.5t-63.5 150.5q0 61 38.5 129t96.5 127l-88 196h-655l-102 -231h-430zM698 555h371l-184 414z" />
    <glyph glyph-name="aogonek" unicode="&#x105;" horiz-adv-x="1386" 
d="M578 -20q-98 0 -190 39.5t-161.5 108t-111 167.5t-41.5 211q0 113 40.5 214t107.5 171.5t157.5 111.5t187.5 41q190 0 314 -114v94h389v-1024h-215q-84 -99 -84 -180q0 -64 76 -64q56 0 108 41l64 -151q-79 -71 -207 -74q-119 0 -181 56t-65 151q-2 96 115 235v86
q-123 -120 -303 -120zM449 508q0 -95 60.5 -162t156.5 -67q94 0 153.5 67t59.5 162q0 96 -60 163.5t-155 67.5q-94 0 -154.5 -68t-60.5 -163z" />
    <glyph glyph-name="Cacute" unicode="&#x106;" horiz-adv-x="1540" 
d="M74 713q0 163 62.5 302.5t168.5 234t248.5 148t300.5 54.5q215 0 377 -83t248 -208l-273 -200q-120 163 -332 163q-163 0 -278 -114.5t-115 -296.5q0 -181 113 -292.5t278 -111.5q232 0 342 168l263 -182q-31 -54 -83 -106t-127.5 -100.5t-183 -78.5t-229.5 -30
q-160 0 -302 51.5t-248.5 144.5t-168 232t-61.5 305zM498 1587l387 357l157 -158l-299 -199h-245z" />
    <glyph glyph-name="cacute" unicode="&#x107;" horiz-adv-x="1171" 
d="M74 508q0 112 39 211t109.5 173.5t177 117.5t233.5 43q87 0 166 -21.5t137 -57t99.5 -73.5t68.5 -78l-211 -184q-77 106 -203 106q-95 0 -161 -65t-66 -164q0 -105 65.5 -170t167.5 -65q120 0 197 114l217 -194q-27 -35 -63.5 -69.5t-95.5 -74t-143 -64t-179 -24.5
q-165 0 -293 73.5t-195 195.5t-67 270zM313 1178l387 356l158 -158l-299 -198h-246z" />
    <glyph glyph-name="Ccircumflex" unicode="&#x108;" horiz-adv-x="1540" 
d="M854 -20q-160 0 -302 51.5t-248.5 144.5t-168 232t-61.5 305q0 163 62.5 302.5t168.5 234t248.5 148t300.5 54.5q215 0 377 -83t248 -208l-273 -200q-120 163 -332 163q-163 0 -278 -114.5t-115 -296.5q0 -181 113 -292.5t278 -111.5q232 0 342 168l263 -182
q-31 -54 -83 -106t-127.5 -100.5t-183 -78.5t-229.5 -30zM623 1587h-226l271 297h204l269 -297h-221l-150 131z" />
    <glyph glyph-name="ccircumflex" unicode="&#x109;" horiz-adv-x="1171" 
d="M74 508q0 112 39 211t109.5 173.5t177 117.5t233.5 43q87 0 166 -21.5t137 -57t99.5 -73.5t68.5 -78l-211 -184q-77 106 -203 106q-95 0 -161 -65t-66 -164q0 -105 65.5 -170t167.5 -65q120 0 197 114l217 -194q-27 -35 -63.5 -69.5t-95.5 -74t-143 -64t-179 -24.5
q-165 0 -293 73.5t-195 195.5t-67 270zM438 1178h-225l270 297h205l268 -297h-221l-149 131z" />
    <glyph glyph-name="Cdotaccent" unicode="&#x10a;" horiz-adv-x="1540" 
d="M854 -20q-160 0 -302 51.5t-248.5 144.5t-168 232t-61.5 305q0 163 62.5 302.5t168.5 234t248.5 148t300.5 54.5q215 0 377 -83t248 -208l-273 -200q-120 163 -332 163q-163 0 -278 -114.5t-115 -296.5q0 -181 113 -292.5t278 -111.5q232 0 342 168l263 -182
q-31 -54 -83 -106t-127.5 -100.5t-183 -78.5t-229.5 -30zM770 1587q-68 0 -104.5 43t-36.5 90t37.5 90t103.5 43q65 0 102 -42.5t39 -90.5q0 -46 -37 -89.5t-104 -43.5z" />
    <glyph glyph-name="cdotaccent" unicode="&#x10b;" horiz-adv-x="1171" 
d="M74 508q0 112 39 211t109.5 173.5t177 117.5t233.5 43q87 0 166 -21.5t137 -57t99.5 -73.5t68.5 -78l-211 -184q-77 106 -203 106q-95 0 -161 -65t-66 -164q0 -105 65.5 -170t167.5 -65q120 0 197 114l217 -194q-27 -35 -63.5 -69.5t-95.5 -74t-143 -64t-179 -24.5
q-165 0 -293 73.5t-195 195.5t-67 270zM444 1311q0 47 38 90t104 43t103.5 -43t37.5 -90q0 -46 -37 -89.5t-104 -43.5q-68 0 -105 43.5t-37 89.5z" />
    <glyph glyph-name="Ccaron" unicode="&#x10c;" horiz-adv-x="1540" 
d="M74 713q0 163 62.5 302.5t168.5 234t248.5 148t300.5 54.5q215 0 377 -83t248 -208l-273 -200q-120 163 -332 163q-163 0 -278 -114.5t-115 -296.5q0 -181 113 -292.5t278 -111.5q232 0 342 168l263 -182q-31 -54 -83 -106t-127.5 -100.5t-183 -78.5t-229.5 -30
q-160 0 -302 51.5t-248.5 144.5t-168 232t-61.5 305zM397 1884h224l149 -131l148 131h223l-269 -297h-204z" />
    <glyph glyph-name="ccaron" unicode="&#x10d;" horiz-adv-x="1171" 
d="M74 508q0 112 39 211t109.5 173.5t177 117.5t233.5 43q87 0 166 -21.5t137 -57t99.5 -73.5t68.5 -78l-211 -184q-77 106 -203 106q-95 0 -161 -65t-66 -164q0 -105 65.5 -170t167.5 -65q120 0 197 114l217 -194q-27 -35 -63.5 -69.5t-95.5 -74t-143 -64t-179 -24.5
q-165 0 -293 73.5t-195 195.5t-67 270zM213 1475h223l150 -132l147 132h223l-268 -297h-205z" />
    <glyph glyph-name="Dcaron" unicode="&#x10e;" horiz-adv-x="1609" 
d="M139 1434h635q172 0 315.5 -53.5t241 -148t151.5 -227t54 -288.5q0 -324 -207.5 -520.5t-554.5 -196.5h-635v1434zM774 1108h-227v-782h227q154 0 254 111t100 280q0 174 -98 282.5t-256 108.5zM559 1587l-268 297h221l150 -131l147 131h225l-268 -297h-207z" />
    <glyph glyph-name="dcaron" unicode="&#x10f;" horiz-adv-x="1970" 
d="M74 506q0 113 40.5 214t107.5 171.5t157.5 111.5t187.5 41q190 0 314 -114v504h389v-1434h-389v100q-123 -120 -303 -120q-98 0 -190 39.5t-161.5 108t-111 167.5t-41.5 211zM1532 1047q-59 27 -95 79.5t-36 116.5q0 90 65.5 153.5t161.5 63.5q92 0 159.5 -62.5
t67.5 -154.5q0 -100 -66.5 -224t-143.5 -198l-181 86q40 58 68 140zM449 508q0 -95 60.5 -162t156.5 -67q94 0 153.5 67t59.5 162q0 96 -60 163.5t-155 67.5q-94 0 -154.5 -68t-60.5 -163z" />
    <glyph glyph-name="Dcroat" unicode="&#x110;" horiz-adv-x="1609" 
d="M139 561h-102v305h102v568h635q172 0 315.5 -53.5t241 -148t151.5 -227t54 -288.5q0 -324 -207.5 -520.5t-554.5 -196.5h-635v561zM547 561v-235h227q154 0 254 111t100 280q0 174 -98 282.5t-256 108.5h-227v-242h284v-305h-284z" />
    <glyph glyph-name="dcroat" unicode="&#x111;" horiz-adv-x="1386" 
d="M578 -20q-98 0 -190 39.5t-161.5 108t-111 167.5t-41.5 211q0 113 40.5 214t107.5 171.5t157.5 111.5t187.5 41q190 0 314 -114v211h-211v186h211v107h389v-107h108v-186h-108v-1141h-389v100q-123 -120 -303 -120zM449 508q0 -95 60.5 -162t156.5 -67q94 0 153.5 67
t59.5 162q0 96 -60 163.5t-155 67.5q-94 0 -154.5 -68t-60.5 -163z" />
    <glyph glyph-name="Emacron" unicode="&#x112;" horiz-adv-x="1390" 
d="M139 0v1434h1153v-322h-745v-240h643v-311h-643v-239h745v-322h-1153zM956 1591h-522v187h522v-187z" />
    <glyph glyph-name="emacron" unicode="&#x113;" horiz-adv-x="1247" 
d="M74 510q0 115 36 212.5t104.5 170.5t175.5 114.5t241 41.5q139 0 247.5 -49t174 -133t97 -192.5t24.5 -230.5h-705q15 -87 71.5 -134.5t135.5 -47.5q73 0 128 25.5t99 85.5l225 -164q-27 -42 -69 -81t-102 -74.5t-142.5 -57t-173.5 -21.5q-126 0 -233 41.5t-180 113.5
t-113.5 170t-40.5 210zM362 1368h525v-186h-525v186zM662 780q-66 0 -113.5 -34.5t-67.5 -98.5h348q-6 58 -52.5 95.5t-114.5 37.5z" />
    <glyph glyph-name="Ebreve" unicode="&#x114;" horiz-adv-x="1390" 
d="M1292 0h-1153v1434h1153v-322h-745v-240h643v-311h-643v-239h745v-322zM375 1880h166q0 -56 43 -91.5t112 -35.5q67 0 110.5 35.5t43.5 91.5h168q0 -144 -85 -229.5t-237 -85.5t-236.5 85t-84.5 230z" />
    <glyph glyph-name="ebreve" unicode="&#x115;" horiz-adv-x="1247" 
d="M641 -25q-126 0 -233 41.5t-180 113.5t-113.5 170t-40.5 210q0 115 36 212.5t104.5 170.5t175.5 114.5t241 41.5q139 0 247.5 -49t174 -133t97 -192.5t24.5 -230.5h-705q15 -87 71.5 -134.5t135.5 -47.5q73 0 128 25.5t99 85.5l225 -164q-27 -42 -69 -81t-102 -74.5
t-142.5 -57t-173.5 -21.5zM303 1470h166q0 -56 43.5 -91.5t112.5 -35.5q67 0 110 35.5t43 91.5h168q0 -145 -84.5 -230t-236.5 -85t-237 85.5t-85 229.5zM662 780q-66 0 -113.5 -34.5t-67.5 -98.5h348q-6 58 -52.5 95.5t-114.5 37.5z" />
    <glyph glyph-name="Edotaccent" unicode="&#x116;" horiz-adv-x="1390" 
d="M139 0v1434h1153v-322h-745v-240h643v-311h-643v-239h745v-322h-1153zM696 1853q65 0 102.5 -43t37.5 -90q0 -46 -36.5 -89.5t-103.5 -43.5q-68 0 -104.5 43t-36.5 90q0 46 37.5 89t103.5 44z" />
    <glyph glyph-name="edotaccent" unicode="&#x117;" horiz-adv-x="1247" 
d="M74 510q0 115 36 212.5t104.5 170.5t175.5 114.5t241 41.5q139 0 247.5 -49t174 -133t97 -192.5t24.5 -230.5h-705q15 -87 71.5 -134.5t135.5 -47.5q73 0 128 25.5t99 85.5l225 -164q-27 -42 -69 -81t-102 -74.5t-142.5 -57t-173.5 -21.5q-126 0 -233 41.5t-180 113.5
t-113.5 170t-40.5 210zM625 1178q-68 0 -105 43.5t-37 89.5q0 47 38 90t104 43q64 0 101.5 -43t37.5 -90t-36 -90t-103 -43zM662 780q-66 0 -113.5 -34.5t-67.5 -98.5h348q-6 58 -52.5 95.5t-114.5 37.5z" />
    <glyph glyph-name="Eogonek" unicode="&#x118;" horiz-adv-x="1390" 
d="M139 0v1434h1153v-322h-745v-240h643v-311h-643v-239h745v-322h-166q-84 -99 -84 -180q0 -33 23 -48.5t57 -15.5q50 0 107 41l61 -151q-83 -74 -207 -74q-119 0 -182 56.5t-63 150.5q0 99 102 221h-801z" />
    <glyph glyph-name="eogonek" unicode="&#x119;" horiz-adv-x="1247" 
d="M74 510q0 115 36 212.5t104.5 170.5t175.5 114.5t241 41.5q139 0 247.5 -49t174 -133t97 -192.5t24.5 -230.5h-705q15 -87 71.5 -134.5t135.5 -47.5q73 0 128 25.5t99 85.5l225 -164q-51 -81 -158 -147t-253 -82q-65 -82 -68 -160q0 -32 19.5 -48t50.5 -16q64 0 117 41
l61 -151q-79 -71 -207 -74q-119 0 -181 56t-65 151q-2 84 88 205q-208 32 -333 178t-125 348zM662 780q-68 0 -114.5 -34.5t-66.5 -98.5h348q-6 58 -52.5 95.5t-114.5 37.5z" />
    <glyph glyph-name="Ecaron" unicode="&#x11a;" horiz-adv-x="1390" 
d="M1292 0h-1153v1434h1153v-322h-745v-240h643v-311h-643v-239h745v-322zM324 1884h223l147 -131l148 131h225l-268 -297h-207z" />
    <glyph glyph-name="ecaron" unicode="&#x11b;" horiz-adv-x="1247" 
d="M641 -25q-126 0 -233 41.5t-180 113.5t-113.5 170t-40.5 210q0 115 36 212.5t104.5 170.5t175.5 114.5t241 41.5q139 0 247.5 -49t174 -133t97 -192.5t24.5 -230.5h-705q15 -87 71.5 -134.5t135.5 -47.5q73 0 128 25.5t99 85.5l225 -164q-27 -42 -69 -81t-102 -74.5
t-142.5 -57t-173.5 -21.5zM252 1475h223l150 -132l147 132h223l-268 -297h-207zM481 647h348q-6 58 -52.5 95.5t-114.5 37.5q-66 0 -113.5 -34.5t-67.5 -98.5z" />
    <glyph glyph-name="Gcircumflex" unicode="&#x11c;" horiz-adv-x="1574" 
d="M74 713q0 161 62.5 301.5t168.5 237t248.5 151.5t300.5 55q384 0 604 -235l-237 -242q-139 147 -347 149q-168 2 -280.5 -117t-112.5 -300q0 -179 111.5 -294.5t279.5 -113.5q125 0 215 51v174h-352v295h721v-571q-34 -48 -86.5 -94t-126.5 -89.5t-176 -70.5t-213 -27
q-214 1 -391 92.5t-283 261.5t-106 386zM641 1587h-225l268 297h207l268 -297h-221l-150 131z" />
    <glyph glyph-name="gcircumflex" unicode="&#x11d;" horiz-adv-x="1378" 
d="M74 510q0 113 40 213.5t107.5 170t157.5 110t188 40.5q194 0 312 -112v92h389v-967q0 -127 -44 -225t-123 -158.5t-184.5 -91t-232.5 -28.5q-171 0 -300 42t-198 103l140 223q53 -45 120.5 -66.5t169.5 -21.5q117 0 190 58t73 161v53q-121 -118 -301 -118
q-133 0 -248 65.5t-185.5 186.5t-70.5 270zM449 512q0 -95 60.5 -160t156.5 -65q92 0 152.5 66t60.5 159q0 100 -57.5 163.5t-157.5 63.5q-94 1 -154.5 -65.5t-60.5 -161.5zM317 1178l269 297h207l268 -297h-221l-150 131l-147 -131h-226z" />
    <glyph glyph-name="Gbreve" unicode="&#x11e;" horiz-adv-x="1574" 
d="M74 713q0 161 62.5 301.5t168.5 237t248.5 151.5t300.5 55q384 0 604 -235l-237 -242q-139 147 -347 149q-168 2 -280.5 -117t-112.5 -300q0 -179 111.5 -294.5t279.5 -113.5q125 0 215 51v174h-352v295h721v-571q-34 -48 -86.5 -94t-126.5 -89.5t-176 -70.5t-213 -27
q-214 1 -391 92.5t-283 261.5t-106 386zM467 1880h166q0 -56 43 -91.5t112 -35.5q67 0 110.5 35.5t43.5 91.5h168q0 -144 -85 -229.5t-237 -85.5t-236.5 85t-84.5 230z" />
    <glyph glyph-name="gbreve" unicode="&#x11f;" horiz-adv-x="1378" 
d="M74 510q0 113 40 213.5t107.5 170t157.5 110t188 40.5q194 0 312 -112v92h389v-967q0 -127 -44 -225t-123 -158.5t-184.5 -91t-232.5 -28.5q-171 0 -300 42t-198 103l140 223q53 -45 120.5 -66.5t169.5 -21.5q117 0 190 58t73 161v53q-121 -118 -301 -118
q-133 0 -248 65.5t-185.5 186.5t-70.5 270zM449 512q0 -95 60.5 -160t156.5 -65q92 0 152.5 66t60.5 159q0 100 -57.5 163.5t-157.5 63.5q-94 1 -154.5 -65.5t-60.5 -161.5zM690 1155q-152 0 -236.5 85t-84.5 230h166q0 -56 43 -91.5t112 -35.5q67 0 110.5 35.5t43.5 91.5
h168q0 -144 -85 -229.5t-237 -85.5z" />
    <glyph glyph-name="Gdotaccent" unicode="&#x120;" horiz-adv-x="1574" 
d="M74 713q0 161 62.5 301.5t168.5 237t248.5 151.5t300.5 55q384 0 604 -235l-237 -242q-139 147 -347 149q-168 2 -280.5 -117t-112.5 -300q0 -179 111.5 -294.5t279.5 -113.5q125 0 215 51v174h-352v295h721v-571q-34 -48 -86.5 -94t-126.5 -89.5t-176 -70.5t-213 -27
q-214 1 -391 92.5t-283 261.5t-106 386zM788 1587q-68 0 -104.5 43t-36.5 90t37.5 90t103.5 43q65 0 102.5 -43t37.5 -90q0 -46 -36.5 -89.5t-103.5 -43.5z" />
    <glyph glyph-name="gdotaccent" unicode="&#x121;" horiz-adv-x="1378" 
d="M74 510q0 113 40 213.5t107.5 170t157.5 110t188 40.5q194 0 312 -112v92h389v-967q0 -127 -44 -225t-123 -158.5t-184.5 -91t-232.5 -28.5q-171 0 -300 42t-198 103l140 223q53 -45 120.5 -66.5t169.5 -21.5q117 0 190 58t73 161v53q-121 -118 -301 -118
q-133 0 -248 65.5t-185.5 186.5t-70.5 270zM449 512q0 -95 60.5 -160t156.5 -65q92 0 152.5 66t60.5 159q0 100 -57.5 163.5t-157.5 63.5q-94 1 -154.5 -65.5t-60.5 -161.5zM549 1311q0 47 37.5 90t103.5 43q64 0 101.5 -43t37.5 -90t-36 -90t-103 -43q-68 0 -104.5 43
t-36.5 90z" />
    <glyph glyph-name="uni0122" unicode="&#x122;" horiz-adv-x="1574" 
d="M854 -27q-159 0 -302 54t-248.5 149.5t-167.5 235t-62 301.5q0 161 62.5 301.5t168.5 237t248.5 151.5t300.5 55q384 0 604 -235l-237 -242q-139 147 -347 149q-168 2 -280.5 -117t-112.5 -300q0 -179 111.5 -294.5t279.5 -113.5q125 0 215 51v174h-352v295h721v-571
q-34 -48 -86.5 -94t-126.5 -89.5t-176 -70.5t-213 -27zM813 -317q-33 14 -53.5 42.5t-20.5 63.5q0 48 35.5 82.5t87.5 34.5q50 0 85.5 -33.5t35.5 -83.5q0 -56 -35.5 -123.5t-77.5 -109.5l-96 47q20 25 39 80z" />
    <glyph glyph-name="uni0123" unicode="&#x123;" horiz-adv-x="1378" 
d="M74 510q0 113 40 213.5t107.5 170t157.5 110t188 40.5q194 0 312 -112v92h389v-967q0 -127 -44 -225t-123 -158.5t-184.5 -91t-232.5 -28.5q-171 0 -300 42t-198 103l140 223q53 -45 120.5 -66.5t169.5 -21.5q117 0 190 58t73 161v53q-121 -118 -301 -118
q-133 0 -248 65.5t-185.5 186.5t-70.5 270zM449 512q0 -95 60.5 -160t156.5 -65q92 0 152.5 66t60.5 159q0 100 -57.5 164t-157.5 63q-96 0 -155.5 -66t-59.5 -161zM545 1298q-1 55 35.5 124.5t78.5 109.5l97 -45q-27 -39 -39 -82q33 -12 53.5 -41.5t20.5 -65.5
q0 -48 -35.5 -82t-87.5 -34q-49 0 -86 33t-37 83z" />
    <glyph glyph-name="Hcircumflex" unicode="&#x124;" horiz-adv-x="1671" 
d="M141 1434h406v-555h577v555h408v-1434h-408v553h-575v-553h-408v1434zM690 1587h-225l268 297h207l268 -297h-223l-147 131z" />
    <glyph glyph-name="hcircumflex" unicode="&#x125;" horiz-adv-x="1372" 
d="M508 0h-389v1434h389v-508q122 125 301 125q204 -2 330.5 -134.5t126.5 -375.5v-541h-392v502q0 99 -47 157.5t-129 57.5q-90 -1 -140 -66t-50 -166v-485zM322 1587l268 297h207l268 -297h-223l-148 131l-147 -131h-225z" />
    <glyph glyph-name="Hbar" unicode="&#x126;" horiz-adv-x="1671" 
d="M66 1235h75v199h406v-199h577v199h408v-199h88v-186h-88v-1049h-408v553h-575v-553h-408v1049h-75v186zM1124 1049h-577v-170h577v170z" />
    <glyph glyph-name="hbar" unicode="&#x127;" horiz-adv-x="1372" 
d="M33 1329h86v105h389v-105h315v-186h-315v-217q122 125 301 125q204 -2 330.5 -134.5t126.5 -375.5v-541h-392v502q0 99 -47 157.5t-129 57.5q-90 -1 -140 -66t-50 -166v-485h-389v1143h-86v186z" />
    <glyph glyph-name="Itilde" unicode="&#x128;" horiz-adv-x="710" 
d="M152 0v1434h407v-1434h-407zM-4 1591q36 301 231 303q56 0 100 -19t65 -41t44 -41t43 -19q31 0 52 33t28 65h156q-8 -301 -223 -301q-45 0 -85.5 19t-65 41.5t-55 41.5t-57.5 19q-32 0 -50.5 -31t-24.5 -70h-158z" />
    <glyph glyph-name="itilde" unicode="&#x129;" horiz-adv-x="675" 
d="M532 0h-389v1024h389v-1024zM135 1182h-158q40 301 234 303q56 0 100 -19t65 -41.5t44 -41.5t43 -19q31 0 52 33t28 65h155q-12 -301 -223 -301q-46 0 -86.5 19t-64.5 41.5t-54 41.5t-57 19q-32 0 -51 -30.5t-27 -69.5z" />
    <glyph glyph-name="Imacron" unicode="&#x12a;" horiz-adv-x="710" 
d="M559 1434v-1434h-407v1434h407zM616 1778v-187h-522v187h522z" />
    <glyph glyph-name="imacron" unicode="&#x12b;" horiz-adv-x="675" 
d="M143 1024h389v-1024h-389v1024zM600 1368v-186h-524v186h524z" />
    <glyph glyph-name="Iogonek" unicode="&#x12e;" horiz-adv-x="710" 
d="M377 -428q-119 0 -182.5 56.5t-63.5 150.5q0 99 102 221h-81v1434h407v-1434h-139q-84 -99 -84 -180q0 -64 76 -64q56 0 108 41l64 -151q-83 -74 -207 -74z" />
    <glyph glyph-name="iogonek" unicode="&#x12f;" horiz-adv-x="675" 
d="M117 -221q0 99 102 221h-76v1024h389v-1024h-129q-81 -95 -81 -180q0 -64 73 -64q59 0 111 41l63 -151q-83 -74 -207 -74q-109 0 -176.5 50.5t-68.5 156.5zM338 1116q-92 0 -154.5 48.5t-62.5 117.5q0 68 63 117t154 49q86 0 152.5 -50t66.5 -116q0 -67 -65.5 -116.5
t-153.5 -49.5z" />
    <glyph glyph-name="Idotaccent" unicode="&#x130;" horiz-adv-x="710" 
d="M152 1434h407v-1434h-407v1434zM356 1587q-68 0 -104.5 43t-36.5 90t37 90t104 43q65 0 102.5 -43t37.5 -90q0 -46 -36.5 -89.5t-103.5 -43.5z" />
    <glyph glyph-name="dotlessi" unicode="&#x131;" horiz-adv-x="675" 
d="M143 1024h389v-1024h-389v1024z" />
    <glyph glyph-name="IJ" unicode="&#x132;" horiz-adv-x="1388" 
d="M172 199l213 252q39 -54 109 -97t153 -43q87 0 141 57.5t54 161.5v904h407v-938q0 -235 -154.5 -379t-412.5 -144q-89 0 -168 19t-142 54t-109 71t-91 82zM139 571v863h408v-863h-408z" />
    <glyph glyph-name="ij" unicode="&#x133;" horiz-adv-x="1351" 
d="M641 -403v262q41 -15 82 -15q50 0 75 24.5t25 82.5v1073h389v-1096q0 -187 -75 -274.5t-260 -87.5q-108 0 -236 31zM532 0h-389v1024h389v-1024zM338 1116q-92 0 -154.5 48.5t-62.5 117.5t63 118t154 48q87 -2 153 -51t66 -115q0 -67 -65.5 -116.5t-153.5 -49.5z
M797 1282q0 68 63 117t154 49q86 0 151.5 -50t67.5 -116q1 -67 -64 -116.5t-155 -49.5q-92 0 -154.5 48.5t-62.5 117.5z" />
    <glyph glyph-name="Jcircumflex" unicode="&#x134;" horiz-adv-x="1247" 
d="M33 199l211 252q42 -55 111 -97.5t153 -42.5q86 0 140 57.5t54 161.5l-2 904h408l2 -938q0 -234 -155 -378.5t-412 -144.5q-294 0 -510 226zM520 1587l268 297h207l269 -297h-224l-149 131l-148 -131h-223z" />
    <glyph glyph-name="jcircumflex" unicode="&#x135;" horiz-adv-x="675" 
d="M-37 -141q41 -15 84 -15q100 0 100 107v1073h390v-1096q0 -186 -76.5 -274t-261.5 -88q-108 0 -236 31v262zM190 1178h-225l268 297h207l269 -297h-222l-149 131z" />
    <glyph glyph-name="uni0136" unicode="&#x136;" horiz-adv-x="1619" 
d="M547 0h-408v1434h408v-510l506 510h514l-590 -592l606 -842h-485l-406 557l-145 -145v-412zM756 -317q-34 14 -54 42.5t-20 63.5q0 48 35.5 82.5t87.5 34.5q50 0 85.5 -33.5t35.5 -83.5q0 -56 -35.5 -123.5t-77.5 -109.5l-96 47q20 25 39 80z" />
    <glyph glyph-name="uni0137" unicode="&#x137;" horiz-adv-x="1404" 
d="M119 0v1434h389v-717l348 307h475l-452 -418l464 -606h-452l-275 356l-108 -98v-258h-389zM567 -211q0 48 35 82.5t86 34.5q52 0 88 -33.5t35 -83.5q-1 -56 -36.5 -124t-76.5 -109l-96 47q25 35 37 80q-33 14 -52.5 42.5t-19.5 63.5z" />
    <glyph glyph-name="kgreenlandic" unicode="&#x138;" horiz-adv-x="1404" 
d="M508 0h-389v1024h389v-307l348 307h475l-452 -418l464 -606h-452l-275 356l-108 -98v-258z" />
    <glyph glyph-name="Lacute" unicode="&#x139;" horiz-adv-x="1277" 
d="M547 326h661v-326h-1069v1434h408v-1108zM911 1786l-299 -199h-245l387 357z" />
    <glyph glyph-name="lacute" unicode="&#x13a;" horiz-adv-x="630" 
d="M510 1434v-1434h-389v1434h389zM289 1587h-246l387 357l158 -158z" />
    <glyph glyph-name="uni013B" unicode="&#x13b;" horiz-adv-x="1277" 
d="M139 0v1434h408v-1108h661v-326h-1069zM557 -211q0 48 35.5 82.5t87.5 34.5q50 0 86.5 -33.5t36.5 -83.5q0 -56 -36 -124t-79 -109l-94 47q25 35 37 80q-33 14 -53.5 42.5t-20.5 63.5z" />
    <glyph glyph-name="uni013C" unicode="&#x13c;" horiz-adv-x="630" 
d="M121 0v1434h389v-1434h-389zM195 -211q0 48 35 82.5t87 34.5q50 0 86.5 -33.5t36.5 -83.5q0 -55 -36 -123t-78 -110l-95 47q25 35 37 80q-33 14 -53 42.5t-20 63.5z" />
    <glyph glyph-name="Lcaron" unicode="&#x13d;" horiz-adv-x="1277" 
d="M139 1434h408v-1108h639v-326h-1047v1434zM657 1223q0 88 66.5 151.5t161.5 63.5q92 2 159 -60t68 -155q1 -99 -66 -223t-145 -201l-180 88q39 54 67 139q-59 25 -95 78.5t-36 118.5z" />
    <glyph glyph-name="lcaron" unicode="&#x13e;" horiz-adv-x="1282" 
d="M121 1434h389v-1434h-389v1434zM731 1040q-59 25 -95 79t-36 118q0 89 66.5 153t160.5 64q93 0 160.5 -62.5t67.5 -154.5q0 -100 -66.5 -224.5t-144.5 -197.5l-180 86q41 59 67 139z" />
    <glyph glyph-name="Ldot" unicode="&#x13f;" horiz-adv-x="1277" 
d="M139 0v1434h408v-1108h661v-326h-1069zM942 682q-95 0 -161 64.5t-66 154.5t66 153.5t161 63.5q92 0 159.5 -65t67.5 -152t-68.5 -153t-158.5 -66z" />
    <glyph glyph-name="ldot" unicode="&#x140;" horiz-adv-x="1105" 
d="M121 1434h389v-1434h-389v1434zM641 717q0 90 65.5 153.5t161.5 63.5q91 0 159.5 -65t68.5 -150q0 -89 -69.5 -154t-160.5 -65q-93 0 -159 63.5t-66 153.5z" />
    <glyph glyph-name="Lslash" unicode="&#x141;" horiz-adv-x="1310" 
d="M-27 604l199 144v686h408v-398l163 117l146 -203l-309 -219v-405h661v-326h-1069v440l-55 -39z" />
    <glyph glyph-name="lslash" unicode="&#x142;" horiz-adv-x="700" 
d="M-47 668l205 145v621h389v-344l55 38l146 -202l-201 -142v-784h-389v506l-60 -43z" />
    <glyph glyph-name="Nacute" unicode="&#x143;" horiz-adv-x="1662" 
d="M139 0v1434h412l565 -781v781h408v-1434h-414l-563 782v-782h-408zM805 1587h-246l387 357l158 -158z" />
    <glyph glyph-name="nacute" unicode="&#x144;" horiz-adv-x="1372" 
d="M508 0h-389v1024h389v-98q123 123 303 123q203 0 329 -132t126 -376v-541h-389v502q0 98 -48 156.5t-131 58.5q-90 0 -140 -65.5t-50 -168.5v-483zM659 1178h-245l387 356l157 -158z" />
    <glyph glyph-name="uni0145" unicode="&#x145;" horiz-adv-x="1662" 
d="M139 0v1434h412l565 -781v781h408v-1434h-414l-563 782v-782h-408zM813 -317q-33 14 -53.5 42.5t-20.5 63.5q0 48 35.5 82.5t87.5 34.5q50 0 86.5 -33.5t36.5 -83.5q0 -56 -36 -124t-79 -109l-94 47q25 35 37 80z" />
    <glyph glyph-name="uni0146" unicode="&#x146;" horiz-adv-x="1372" 
d="M119 1024h389v-98q123 123 303 123q203 0 329 -132t126 -376v-541h-389v502q0 98 -48 156.5t-131 58.5q-90 0 -140 -65.5t-50 -168.5v-483h-389v1024zM586 -211q0 48 36 82.5t87 34.5q50 0 86 -33.5t36 -83.5q0 -56 -36 -124t-78 -109l-94 47q23 33 36 80
q-32 13 -51.5 42t-21.5 64z" />
    <glyph glyph-name="Ncaron" unicode="&#x147;" horiz-adv-x="1662" 
d="M139 0v1434h412l565 -781v781h408v-1434h-414l-563 782v-782h-408zM461 1884h221l149 -131l148 131h225l-270 -297h-205z" />
    <glyph glyph-name="ncaron" unicode="&#x148;" horiz-adv-x="1372" 
d="M508 0h-389v1024h389v-98q123 123 303 123q203 0 329 -132t126 -376v-541h-389v502q0 98 -48 156.5t-131 58.5q-90 0 -140 -65.5t-50 -168.5v-483zM584 1178l-271 297h224l149 -132l148 132h223l-269 -297h-204z" />
    <glyph glyph-name="napostrophe" unicode="&#x149;" horiz-adv-x="1785" 
d="M532 1024h390v-98q123 123 303 123q203 0 328.5 -132t125.5 -376v-541h-389v502q0 98 -48 156.5t-130 58.5q-90 0 -140 -65.5t-50 -168.5v-483h-390v1024zM410 793h-340v641h409z" />
    <glyph glyph-name="Omacron" unicode="&#x14c;" horiz-adv-x="1705" 
d="M854 -23q-164 0 -309.5 59t-248.5 159t-162.5 237t-59.5 289q0 153 59.5 289t162.5 234t248.5 155t309.5 57t309.5 -57.5t248 -156t162 -234t58.5 -287.5q-1 -206 -102 -376t-279.5 -269t-396.5 -99zM481 721q0 -164 109 -280.5t264 -116.5q154 0 262.5 116t108.5 281
q0 163 -108 275t-263 112q-156 0 -264.5 -112.5t-108.5 -274.5zM592 1591v187h522v-187h-522z" />
    <glyph glyph-name="omacron" unicode="&#x14d;" horiz-adv-x="1275" 
d="M639 -25q-176 0 -306 72.5t-194.5 193t-64.5 271.5q0 152 64 272.5t193.5 192.5t305.5 72q177 0 307 -72t194 -192.5t64 -272.5q0 -151 -64.5 -271.5t-194 -193t-304.5 -72.5zM463 512q0 -96 48 -162.5t126 -66.5q80 0 128 66t48 163q0 99 -47.5 165t-128.5 66
q-79 0 -126.5 -66.5t-47.5 -164.5zM899 1182h-522v186h522v-186z" />
    <glyph glyph-name="Obreve" unicode="&#x14e;" horiz-adv-x="1705" 
d="M74 721q0 153 59.5 289t162.5 234t248.5 155t309.5 57t309.5 -57.5t248 -156t162 -234t58.5 -287.5q-1 -154 -60.5 -291.5t-162 -237.5t-247.5 -158t-308 -57q-164 1 -309.5 60t-248.5 159t-162.5 236.5t-59.5 288.5zM481 721q0 -164 109 -280.5t264 -116.5
q154 0 262.5 116t108.5 281q0 163 -108 275t-263 112q-156 0 -264.5 -112.5t-108.5 -274.5zM854 1565q-152 0 -238 85.5t-86 229.5h168q0 -56 43.5 -91.5t112.5 -35.5q67 0 110.5 35.5t43.5 91.5h168q0 -144 -85 -229.5t-237 -85.5z" />
    <glyph glyph-name="obreve" unicode="&#x14f;" horiz-adv-x="1275" 
d="M74 512q0 152 64 272.5t193.5 192.5t305.5 72q177 0 307 -72t194 -192.5t64 -272.5q0 -151 -64.5 -271.5t-194 -193t-304.5 -72.5q-176 0 -306 72.5t-194.5 193t-64.5 271.5zM639 1155q-152 0 -237 85.5t-85 229.5h166q0 -56 43.5 -91.5t112.5 -35.5q67 0 110.5 35.5
t43.5 91.5h168q0 -144 -85 -229.5t-237 -85.5zM463 512q0 -96 48 -162.5t126 -66.5q80 0 128 66t48 163q0 99 -47.5 165t-128.5 66q-79 0 -126.5 -66.5t-47.5 -164.5z" />
    <glyph glyph-name="Ohungarumlaut" unicode="&#x150;" horiz-adv-x="1705" 
d="M854 -23q-164 0 -309.5 59t-248.5 159t-162.5 237t-59.5 289q0 153 59.5 289t162.5 234t248.5 155t309.5 57t309.5 -57.5t248 -156t162 -234t58.5 -287.5q-1 -206 -102 -376t-279.5 -269t-396.5 -99zM481 721q0 -164 109 -280.5t264 -116.5q154 0 262.5 116t108.5 281
q0 163 -108 275t-263 112q-156 0 -264.5 -112.5t-108.5 -274.5zM590 1587h-246l387 357l156 -158zM819 1587l385 357l158 -158l-297 -199h-246z" />
    <glyph glyph-name="ohungarumlaut" unicode="&#x151;" horiz-adv-x="1275" 
d="M74 512q0 152 64 272.5t193.5 192.5t305.5 72q177 0 307 -72t194 -192.5t64 -272.5q0 -151 -64.5 -271.5t-194 -193t-304.5 -72.5q-176 0 -306 72.5t-194.5 193t-64.5 271.5zM637 743q-79 0 -126.5 -66.5t-47.5 -164.5q0 -96 48 -162.5t126 -66.5q80 0 128 66t48 163
q0 99 -47.5 165t-128.5 66zM604 1178l387 356l156 -158l-297 -198h-246zM375 1178h-246l387 356l158 -158z" />
    <glyph glyph-name="OE" unicode="&#x152;" horiz-adv-x="2349" 
d="M74 721q0 201 107.5 370t286.5 264.5t386 94.5q136 0 248 -47v31h1149v-326h-742v-229h648v-324h-648l-2 -229h744v-326h-1149v31q-120 -49 -250 -49q-158 0 -302 58.5t-248 157t-166 235.5t-62 288zM481 721q0 -167 109.5 -289.5t263.5 -122.5q135 0 248 113v594
q-111 108 -248 108q-155 0 -264 -119t-109 -284z" />
    <glyph glyph-name="oe" unicode="&#x153;" horiz-adv-x="2000" 
d="M74 512q0 152 64 272.5t193.5 192.5t305.5 72q232 0 375 -127q143 127 372 127q187 0 317 -80t186.5 -216t39.5 -309h-702q13 -86 70.5 -134t134.5 -48q148 0 229 111l225 -164q-59 -92 -186 -163t-301 -71q-223 0 -377 134q-150 -134 -381 -134q-176 0 -306 72.5
t-194.5 193t-64.5 271.5zM463 512q0 -96 48 -162.5t126 -66.5q80 0 128 66t48 163q0 99 -47.5 165t-128.5 66q-79 0 -126.5 -66.5t-47.5 -164.5zM1235 647h348q-5 57 -51.5 95t-114.5 38t-115 -34.5t-67 -98.5z" />
    <glyph glyph-name="Racute" unicode="&#x154;" horiz-adv-x="1490" 
d="M547 0h-408v1434h731q123 0 225 -39.5t170.5 -108t106 -162t37.5 -200.5q0 -149 -72 -268.5t-202 -180.5l323 -475h-461l-284 416h-166v-416zM547 1108v-367h289q89 0 137.5 53t48.5 130q0 79 -49.5 131.5t-136.5 52.5h-289zM719 1587h-244l385 357l158 -158z" />
    <glyph glyph-name="racute" unicode="&#x155;" horiz-adv-x="1064" 
d="M508 0h-389v1024h389v-113q117 133 309 133q116 0 225 -45l-108 -327q-76 39 -162 39q-45 0 -88.5 -14.5t-84.5 -46t-66 -91.5t-25 -141v-418zM262 1178l385 356l158 -158l-297 -198h-246z" />
    <glyph glyph-name="uni0156" unicode="&#x156;" horiz-adv-x="1490" 
d="M547 0h-408v1434h731q123 0 225 -39.5t170.5 -108t106 -162t37.5 -200.5q0 -149 -72 -268.5t-202 -180.5l323 -475h-461l-284 416h-166v-416zM547 1108v-367h289q89 0 137.5 53t48.5 130q0 79 -49.5 131.5t-136.5 52.5h-289zM649 -211q0 48 35 82.5t86 34.5
q52 0 87.5 -33.5t35.5 -83.5q0 -56 -35.5 -123.5t-77.5 -109.5l-96 47q25 35 37 80q-33 14 -52.5 42.5t-19.5 63.5z" />
    <glyph glyph-name="uni0157" unicode="&#x157;" horiz-adv-x="1064" 
d="M508 0h-389v1024h389v-113q117 133 309 133q116 0 225 -45l-108 -327q-76 39 -162 39q-45 0 -88.5 -14.5t-84.5 -46t-66 -91.5t-25 -141v-418zM264 -317q-33 14 -52.5 42.5t-18.5 63.5q0 48 35 82.5t85 34.5t86.5 -33.5t36.5 -83.5q0 -56 -36 -124t-78 -109l-95 47
q25 35 37 80z" />
    <glyph glyph-name="Rcaron" unicode="&#x158;" horiz-adv-x="1490" 
d="M547 0h-408v1434h731q123 0 225 -39.5t170.5 -108t106 -162t37.5 -200.5q0 -149 -72 -268.5t-202 -180.5l323 -475h-461l-284 416h-166v-416zM836 1108h-289v-367h289q89 0 137.5 53t48.5 130q0 79 -49.5 131.5t-136.5 52.5zM375 1884h221l149 -131l148 131h225
l-268 -297h-207z" />
    <glyph glyph-name="rcaron" unicode="&#x159;" horiz-adv-x="1064" 
d="M119 1024h389v-113q117 133 309 133q116 0 225 -45l-108 -327q-76 39 -162 39q-45 0 -88.5 -14.5t-84.5 -46t-66 -91.5t-25 -141v-418h-389v1024zM430 1178l-268 297h221l149 -132l148 132h225l-268 -297h-207z" />
    <glyph glyph-name="Sacute" unicode="&#x15a;" horiz-adv-x="1409" 
d="M55 162l174 293q40 -26 72.5 -44t98.5 -46.5t153.5 -44.5t187.5 -17q96 0 150.5 28.5t54.5 82.5q0 33 -30 59.5t-81.5 45t-117.5 35.5t-139.5 36.5t-146.5 42.5t-139 58.5t-117.5 80t-81.5 111.5t-30 149q0 86 37 160t109 132.5t190.5 92.5t270.5 35q132 0 243.5 -17.5
t192 -49.5t120.5 -53t87 -52l-166 -276q-174 120 -477 120q-199 0 -199 -88q0 -29 30.5 -52t81.5 -39t117.5 -31t140 -32.5t147 -39.5t139.5 -56.5t117 -78.5t81 -110.5t29 -147.5q-2 -207 -172.5 -339.5t-462.5 -132.5q-380 0 -664 185zM432 1587l387 357l158 -158
l-299 -199h-246z" />
    <glyph glyph-name="sacute" unicode="&#x15b;" horiz-adv-x="1036" 
d="M51 96l142 230q43 -34 128 -56t189 -22q35 0 61.5 14.5t26.5 36.5q0 24 -29 44.5t-75 37.5t-102 35.5t-112 45t-102 59.5t-75 85.5t-29 116.5q0 152 125.5 239t335.5 87q235 0 407 -99l-127 -243q-109 71 -270 71q-90 0 -90 -45q0 -26 55 -50.5t133 -52t156 -65t133 -106
t55 -158.5q0 -153 -131 -240.5t-348 -87.5q-100 0 -182.5 13t-139.5 37.5t-81 38t-54 34.5zM492 1178h-246l387 356l158 -158z" />
    <glyph glyph-name="Scircumflex" unicode="&#x15c;" horiz-adv-x="1409" 
d="M55 162l174 293q40 -26 72.5 -44t98.5 -46.5t153.5 -44.5t187.5 -17q96 0 150.5 28.5t54.5 82.5q0 33 -30 59.5t-81.5 45t-117.5 35.5t-139.5 36.5t-146.5 42.5t-139 58.5t-117.5 80t-81.5 111.5t-30 149q0 86 37 160t109 132.5t190.5 92.5t270.5 35q132 0 243.5 -17.5
t192 -49.5t120.5 -53t87 -52l-166 -276q-174 120 -477 120q-199 0 -199 -88q0 -29 30.5 -52t81.5 -39t117.5 -31t140 -32.5t147 -39.5t139.5 -56.5t117 -78.5t81 -110.5t29 -147.5q-2 -207 -172.5 -339.5t-462.5 -132.5q-380 0 -664 185zM334 1587l268 297h205l270 -297
h-223l-149 131l-148 -131h-223z" />
    <glyph glyph-name="scircumflex" unicode="&#x15d;" horiz-adv-x="1036" 
d="M51 96l142 230q43 -34 128 -56t189 -22q35 0 61.5 14.5t26.5 36.5q0 24 -29 44.5t-75 37.5t-102 35.5t-112 45t-102 59.5t-75 85.5t-29 116.5q0 152 125.5 239t335.5 87q235 0 407 -99l-127 -243q-109 71 -270 71q-90 0 -90 -45q0 -26 55 -50.5t133 -52t156 -65t133 -106
t55 -158.5q0 -153 -131 -240.5t-348 -87.5q-100 0 -182.5 13t-139.5 37.5t-81 38t-54 34.5zM371 1178h-224l269 297h205l268 -297h-221l-150 131z" />
    <glyph glyph-name="Scedilla" unicode="&#x15e;" horiz-adv-x="1409" 
d="M55 162l174 293q101 -69 242.5 -110.5t269.5 -41.5q31 0 62.5 4.5t65.5 15.5t55.5 34.5t21.5 56.5q0 37 -38 66t-100 47t-141.5 40t-162 43t-162 57.5t-141.5 82t-100 118.5t-38 164q0 77 26.5 141.5t72.5 109.5t105 78.5t128.5 53t137.5 28.5t137 9q373 0 643 -172
l-166 -276q-93 60 -222.5 90t-254.5 30q-28 0 -56 -3t-63.5 -11t-57.5 -27t-22 -47q0 -33 38 -58.5t100 -41t141.5 -34.5t162 -38.5t162 -54.5t141.5 -79.5t100 -117t38 -163.5q0 -83 -25.5 -154t-71.5 -121.5t-105.5 -88.5t-130.5 -61t-143.5 -34.5t-148.5 -12.5l-10 -26
q103 -2 172.5 -47.5t69.5 -141.5q0 -102 -78 -158.5t-185 -56.5q-146 0 -239 64l59 147q86 -49 164 -49q72 0 72 51q0 52 -68 52q-38 0 -63 -17l-86 90l53 99q-295 27 -535 178z" />
    <glyph glyph-name="scedilla" unicode="&#x15f;" horiz-adv-x="1036" 
d="M51 96l142 230q43 -34 128 -56t189 -22q35 0 61.5 14.5t26.5 36.5q0 24 -29 44.5t-75 37.5t-102 35.5t-112 45t-102 59.5t-75 85.5t-29 116.5q0 152 125.5 239t335.5 87q235 0 407 -99l-127 -243q-109 71 -270 71q-90 0 -90 -45q0 -26 55 -50.5t133 -52t156 -65t133 -106
t55 -158.5q0 -138 -109 -224.5t-294 -101.5l-11 -32q90 -6 143.5 -58.5t53.5 -134.5q0 -92 -71.5 -154t-190.5 -61q-160 3 -242 64l62 147q45 -26 79 -38t82 -13q38 0 56 15t18 38q0 26 -20 38.5t-49 12.5q-38 0 -64 -16l-84 90l55 104q-74 6 -135.5 20.5t-106 36t-63.5 33
t-45 29.5z" />
    <glyph glyph-name="Scaron" unicode="&#x160;" horiz-adv-x="1409" 
d="M55 162l174 293q40 -26 72.5 -44t98.5 -46.5t153.5 -44.5t187.5 -17q96 0 150.5 28.5t54.5 82.5q0 33 -30 59.5t-81.5 45t-117.5 35.5t-139.5 36.5t-146.5 42.5t-139 58.5t-117.5 80t-81.5 111.5t-30 149q0 86 37 160t109 132.5t190.5 92.5t270.5 35q132 0 243.5 -17.5
t192 -49.5t120.5 -53t87 -52l-166 -276q-174 120 -477 120q-199 0 -199 -88q0 -29 30.5 -52t81.5 -39t117.5 -31t140 -32.5t147 -39.5t139.5 -56.5t117 -78.5t81 -110.5t29 -147.5q-2 -207 -172.5 -339.5t-462.5 -132.5q-380 0 -664 185zM602 1587l-268 297h221l150 -131
l147 131h225l-270 -297h-205z" />
    <glyph glyph-name="scaron" unicode="&#x161;" horiz-adv-x="1036" 
d="M51 96l142 230q43 -34 128 -56t189 -22q35 0 61.5 14.5t26.5 36.5q0 24 -29 44.5t-75 37.5t-102 35.5t-112 45t-102 59.5t-75 85.5t-29 116.5q0 152 125.5 239t335.5 87q235 0 407 -99l-127 -243q-109 71 -270 71q-90 0 -90 -45q0 -26 55 -50.5t133 -52t156 -65t133 -106
t55 -158.5q0 -153 -131 -240.5t-348 -87.5q-100 0 -182.5 13t-139.5 37.5t-81 38t-54 34.5zM147 1475h222l149 -132l148 132h225l-270 -297h-205z" />
    <glyph glyph-name="uni0162" unicode="&#x162;" horiz-adv-x="1347" 
d="M41 1108v326h1266v-326h-430v-1108h-142l-8 -29q89 -8 142 -60t53 -134q0 -92 -71 -153.5t-192 -61.5q-153 0 -239 63l59 150q46 -26 81 -38.5t83 -12.5q36 0 55 14.5t17 36.5q-1 27 -19 37t-51 14q-34 3 -61 -16l-86 90l53 100h-82v1108h-428z" />
    <glyph glyph-name="uni0163" unicode="&#x163;" horiz-adv-x="888" 
d="M166 723h-131v301h131v266h389v-266h223v-301h-223v-340q0 -56 18 -85.5t64 -29.5q60 0 121 25l69 -258q-106 -55 -266 -62l-6 -22q87 -7 144 -49t57 -125q0 -101 -78.5 -158t-183.5 -57q-151 0 -242 63l61 150q87 -51 162 -51q74 0 74 51q0 27 -20.5 39t-49.5 12
q-35 3 -63 -16l-84 90l49 96q-215 68 -215 344v383z" />
    <glyph glyph-name="Tcaron" unicode="&#x164;" horiz-adv-x="1347" 
d="M469 1108h-428v326h1266v-326h-430v-1108h-408v1108zM301 1884h223l150 -131l147 131h223l-268 -297h-205z" />
    <glyph glyph-name="tcaron" unicode="&#x165;" horiz-adv-x="968" 
d="M166 723h-131v301h131v266h389v-266h223v-301h-223v-340q0 -57 17 -86t65 -29q43 0 121 25l69 -266q-111 -54 -290 -54q-110 1 -185 30.5t-114.5 86.5t-55.5 125.5t-16 161.5v346zM662 1466q0 49 36 83t86 34t85.5 -34t35.5 -83q0 -57 -35 -124.5t-77 -108.5l-97 45
q23 34 39 82q-33 12 -53 41t-20 65z" />
    <glyph glyph-name="Tbar" unicode="&#x166;" horiz-adv-x="1347" 
d="M41 1434h1266v-326h-430v-352h247v-189h-247v-567h-408v567h-246v189h246v352h-428v326z" />
    <glyph glyph-name="tbar" unicode="&#x167;" horiz-adv-x="888" 
d="M35 1024h131v266h389v-266h223v-301h-223v-117h164v-155h-164v-68q0 -58 18.5 -86.5t73.5 -28.5q45 0 111 25l69 -266q-106 -54 -290 -54q-183 0 -277 93t-94 274v111h-86v155h86v117h-131v301z" />
    <glyph glyph-name="Utilde" unicode="&#x168;" horiz-adv-x="1566" 
d="M784 -23q-131 0 -247 38t-205 109t-141 182.5t-52 248.5v879h408v-879q0 -107 62 -179.5t173 -72.5q113 0 175.5 72.5t62.5 179.5v879h407v-879q0 -137 -52 -248.5t-141 -182.5t-204.5 -109t-245.5 -38zM424 1591q36 301 231 303q56 0 100 -19t65 -41t44 -41t43 -19
q31 0 52 33t28 65h156q-8 -301 -223 -301q-45 0 -85.5 19t-65 41.5t-55 41.5t-57.5 19q-32 0 -50.5 -30.5t-26.5 -70.5h-156z" />
    <glyph glyph-name="utilde" unicode="&#x169;" horiz-adv-x="1372" 
d="M106 1024h390v-502q0 -98 47 -156.5t131 -58.5q90 0 140 65.5t50 168.5v483h389v-1024h-389v98q-123 -123 -303 -123q-203 -2 -329 130.5t-126 377.5v541zM326 1182q36 301 233 303q56 0 99.5 -19t64.5 -41.5t44 -41.5t42 -19q31 0 53.5 34t26.5 64h158
q-12 -301 -226 -301q-45 0 -85 19t-64 41.5t-54 41.5t-57 19q-58 0 -78 -100h-157z" />
    <glyph glyph-name="Umacron" unicode="&#x16a;" horiz-adv-x="1566" 
d="M784 -23q-131 0 -247 38t-205 109t-141 182.5t-52 248.5v879h408v-879q0 -107 62 -179.5t173 -72.5q113 0 175.5 72.5t62.5 179.5v879h407v-879q0 -137 -52 -248.5t-141 -182.5t-204.5 -109t-245.5 -38zM522 1778h522v-187h-522v187z" />
    <glyph glyph-name="umacron" unicode="&#x16b;" horiz-adv-x="1372" 
d="M106 483v541h390v-502q0 -98 47 -156.5t131 -58.5q90 0 140 65.5t50 168.5v483h389v-1024h-389v98q-123 -123 -303 -123q-203 -2 -329 130.5t-126 377.5zM424 1368h524v-186h-524v186z" />
    <glyph glyph-name="Ubreve" unicode="&#x16c;" horiz-adv-x="1566" 
d="M784 -23q-131 0 -247 38t-205 109t-141 182.5t-52 248.5v879h408v-879q0 -107 62 -179.5t173 -72.5q113 0 175.5 72.5t62.5 179.5v879h407v-879q0 -137 -52 -248.5t-141 -182.5t-204.5 -109t-245.5 -38zM784 1565q-152 0 -237.5 85.5t-85.5 229.5h168q0 -56 43 -91.5
t112 -35.5q67 0 110.5 35.5t43.5 91.5h168q0 -144 -85 -229.5t-237 -85.5z" />
    <glyph glyph-name="ubreve" unicode="&#x16d;" horiz-adv-x="1372" 
d="M106 1024h390v-502q0 -98 47 -156.5t131 -58.5q90 0 140 65.5t50 168.5v483h389v-1024h-389v98q-123 -123 -303 -123q-203 -2 -329 130.5t-126 377.5v541zM686 1155q-152 0 -236.5 85t-84.5 230h165q0 -56 43.5 -91.5t112.5 -35.5q67 0 110.5 35.5t43.5 91.5h168
q0 -144 -85 -229.5t-237 -85.5z" />
    <glyph glyph-name="Uring" unicode="&#x16e;" horiz-adv-x="1566" 
d="M784 -23q-131 0 -247 38t-205 109t-141 182.5t-52 248.5v879h408v-879q0 -107 62 -179.5t173 -72.5q113 0 175.5 72.5t62.5 179.5v879h407v-879q0 -137 -52 -248.5t-141 -182.5t-204.5 -109t-245.5 -38zM784 1544q-58 0 -104.5 21t-73.5 54.5t-41 70t-14 71.5t14.5 71.5
t41.5 69.5t73.5 54.5t103.5 21.5q108 0 170 -70t62 -147q0 -35 -14.5 -71.5t-41 -69.5t-73 -54.5t-103.5 -21.5zM711 1761q0 -43 21.5 -66.5t51.5 -23.5t51 23.5t21 66.5t-21.5 66.5t-50.5 23.5q-30 0 -51.5 -23.5t-21.5 -66.5z" />
    <glyph glyph-name="uring" unicode="&#x16f;" horiz-adv-x="1372" 
d="M106 1024h390v-502q0 -98 47 -156.5t131 -58.5q90 0 140 65.5t50 168.5v483h389v-1024h-389v98q-123 -123 -303 -123q-203 -2 -329 130.5t-126 377.5v541zM453 1352q0 35 14.5 71.5t41.5 69.5t73.5 54.5t103.5 21.5t103.5 -21.5t74 -54.5t42 -69.5t14.5 -71.5
t-14.5 -71.5t-42 -69.5t-74 -54.5t-103.5 -21.5t-103.5 21.5t-73.5 54.5t-41.5 69.5t-14.5 71.5zM612 1352q0 -43 22.5 -66.5t51.5 -23.5q30 0 51 23.5t21 66.5t-21.5 66.5t-50.5 23.5t-51.5 -23.5t-22.5 -66.5z" />
    <glyph glyph-name="Uhungarumlaut" unicode="&#x170;" horiz-adv-x="1566" 
d="M784 -23q-131 0 -247 38t-205 109t-141 182.5t-52 248.5v879h408v-879q0 -107 62 -179.5t173 -72.5q113 0 175.5 72.5t62.5 179.5v879h407v-879q0 -137 -52 -248.5t-141 -182.5t-204.5 -109t-245.5 -38zM520 1587h-246l388 357l155 -158zM750 1587l385 357l157 -158
l-297 -199h-245z" />
    <glyph glyph-name="uhungarumlaut" unicode="&#x171;" horiz-adv-x="1372" 
d="M106 483v541h390v-502q0 -98 47 -156.5t131 -58.5q90 0 140 65.5t50 168.5v483h389v-1024h-389v98q-123 -123 -303 -123q-203 -2 -329 130.5t-126 377.5zM422 1178h-246l387 356l158 -158zM651 1178l387 356l156 -158l-297 -198h-246z" />
    <glyph glyph-name="Uogonek" unicode="&#x172;" horiz-adv-x="1566" 
d="M139 555v879h408v-879q0 -107 62 -179.5t173 -72.5q114 1 176 73t62 179v879h407v-879q0 -125 -43.5 -229t-120 -174.5t-176 -113.5t-215.5 -56q-69 -87 -69 -162q0 -64 76 -64q56 0 108 41l64 -151q-79 -71 -207 -74q-119 0 -182.5 56.5t-63.5 150.5q0 92 88 205
q-114 13 -212.5 56.5t-173.5 114t-118 173.5t-43 227z" />
    <glyph glyph-name="uogonek" unicode="&#x173;" horiz-adv-x="1372" 
d="M106 1024h390v-502q0 -98 47 -156.5t131 -58.5q90 0 140 65.5t50 168.5v483h389v-1024h-141q-82 -97 -82 -180q0 -32 19.5 -48t50.5 -16q64 0 114 41l64 -151q-83 -74 -207 -74q-110 0 -178 50.5t-68 156.5q0 97 103 221h-64v98q-123 -123 -303 -123q-203 -2 -329 130.5
t-126 377.5v541z" />
    <glyph glyph-name="Wcircumflex" unicode="&#x174;" horiz-adv-x="2607" 
d="M57 1434h420l307 -850l310 850h419l310 -850l307 850h420l-516 -1434h-422l-307 854l-310 -854h-422zM1157 1587h-225l268 297h207l268 -297h-223l-147 131z" />
    <glyph glyph-name="wcircumflex" unicode="&#x175;" horiz-adv-x="2037" 
d="M53 1024h410l184 -537l182 537h377l183 -537l184 537h412l-396 -1024h-401l-170 446l-172 -446h-402zM872 1178h-225l268 297h207l269 -297h-224l-147 131z" />
    <glyph glyph-name="Ycircumflex" unicode="&#x176;" horiz-adv-x="1634" 
d="M612 567l-555 867h457l303 -473l305 473h455l-557 -867v-567h-408v567zM670 1587h-226l271 297h205l268 -297h-221l-150 131z" />
    <glyph glyph-name="ycircumflex" unicode="&#x177;" horiz-adv-x="1447" 
d="M588 8l-539 1016h422l293 -565l223 565h412l-477 -1184q-59 -145 -181 -218t-276 -73q-131 0 -215 33.5t-158 91.5l121 228q81 -66 186 -66q123 0 168 117zM578 1178h-226l269 297h206l269 -297h-224l-147 131z" />
    <glyph glyph-name="Ydieresis" unicode="&#x178;" horiz-adv-x="1634" 
d="M612 567l-555 867h457l303 -473l305 473h455l-557 -867v-567h-408v567zM1004 1587q-67 0 -103.5 43.5t-36.5 89.5q0 47 36.5 90t103.5 43q66 0 103.5 -43t37.5 -90q0 -46 -37 -89.5t-104 -43.5zM631 1587q-68 0 -105 43.5t-37 89.5q0 47 37.5 90t104.5 43q64 0 101.5 -43
t37.5 -90t-36 -90t-103 -43z" />
    <glyph glyph-name="Zacute" unicode="&#x179;" horiz-adv-x="1376" 
d="M776 1108h-682v326h1188v-326l-680 -782h680v-326h-1188v326zM416 1587l387 357l158 -158l-299 -199h-246z" />
    <glyph glyph-name="zacute" unicode="&#x17a;" horiz-adv-x="1191" 
d="M1098 0h-1004v301l492 422h-492v301h1004v-301l-490 -422h490v-301zM324 1178l387 356l157 -158l-299 -198h-245z" />
    <glyph glyph-name="Zdotaccent" unicode="&#x17b;" horiz-adv-x="1376" 
d="M94 326l682 782h-682v326h1188v-326l-680 -782h680v-326h-1188v326zM688 1587q-67 0 -104 43.5t-37 89.5q0 47 37.5 90t103.5 43t103.5 -43t37.5 -90q0 -46 -37 -89.5t-104 -43.5z" />
    <glyph glyph-name="zdotaccent" unicode="&#x17c;" horiz-adv-x="1191" 
d="M94 0v301l492 422h-492v301h1004v-301l-490 -422h490v-301h-1004zM596 1178q-67 0 -104 43.5t-37 89.5q0 47 37.5 90t103.5 43t103.5 -43t37.5 -90q0 -46 -37 -89.5t-104 -43.5z" />
    <glyph glyph-name="Zcaron" unicode="&#x17d;" horiz-adv-x="1376" 
d="M776 1108h-682v326h1188v-326l-680 -782h680v-326h-1188v326zM586 1587l-269 297h222l149 -131l148 131h225l-270 -297h-205z" />
    <glyph glyph-name="zcaron" unicode="&#x17e;" horiz-adv-x="1191" 
d="M1098 0h-1004v301l492 422h-492v301h1004v-301l-490 -422h490v-301zM494 1178l-269 297h221l150 -132l147 132h226l-271 -297h-204z" />
    <glyph glyph-name="florin" unicode="&#x192;" horiz-adv-x="1126" 
d="M-213 -373l113 252q19 -11 55 -22t70 -11q66 0 96.5 32t38.5 89l116 776h-96v281h139l19 102q59 328 432 328q93 0 293 -47l-86 -221q-76 24 -162 24q-88 0 -106 -116l-11 -70h228v-281h-275l-116 -800q-7 -48 -22 -93.5t-48.5 -96.5t-80 -87.5t-122 -61t-168.5 -24.5
q-168 0 -307 47z" />
    <glyph glyph-name="Ohorn" unicode="&#x1a0;" horiz-adv-x="1705" 
d="M854 -23q-164 0 -309.5 59t-248.5 159t-162.5 237t-59.5 289q0 153 59.5 289t162.5 234t248.5 155t309.5 57q52 0 160.5 -11t159.5 -11q94 0 142 54.5t50 137.5q0 83 -41 154h268q33 -71 33 -174q0 -119 -56.5 -213t-176.5 -136q114 -101 176.5 -239.5t62.5 -296.5
q0 -154 -59.5 -291.5t-162.5 -237t-247.5 -157.5t-308.5 -58zM481 721q0 -164 109 -280.5t264 -116.5q154 0 263 116.5t108 280.5t-109 275.5t-262 111.5q-156 0 -264.5 -112.5t-108.5 -274.5z" />
    <glyph glyph-name="ohorn" unicode="&#x1a1;" horiz-adv-x="1275" 
d="M639 -25q-176 0 -306 72.5t-194.5 193t-64.5 271.5q0 235 150.5 386.5t416.5 150.5q53 0 122 -4.5t111 -4.5q62 0 93.5 32.5t31.5 84.5q0 63 -45 133h230q25 -28 42 -75.5t17 -96.5q0 -101 -41.5 -166t-114.5 -94q115 -142 115 -346q0 -151 -64.5 -271.5t-194 -193
t-304.5 -72.5zM637 743q-79 0 -126.5 -66.5t-47.5 -164.5q0 -96 48 -162.5t126 -66.5q80 0 128 66t48 163q0 99 -47.5 165t-128.5 66z" />
    <glyph glyph-name="Uhorn" unicode="&#x1af;" horiz-adv-x="1566" 
d="M784 -23q-131 0 -247 38t-205 109t-141 182.5t-52 248.5v879h408v-879q0 -107 62 -179.5t173 -72.5q114 1 176 73t62 179v879h221q90 0 137 54t47 136q0 85 -41 156h267q35 -75 35 -174q0 -78 -23.5 -146t-83.5 -128.5t-152 -88.5v-688q0 -137 -52 -248.5t-141 -182.5
t-204.5 -109t-245.5 -38z" />
    <glyph glyph-name="uhorn" unicode="&#x1b0;" horiz-adv-x="1372" 
d="M106 483v541h390v-502q0 -98 47 -156.5t131 -58.5q90 0 140 65.5t50 168.5v483h230q59 0 89.5 35t30.5 90q0 73 -47 141h230q25 -28 42 -76t17 -98q0 -219 -203 -272v-844h-389v98q-123 -123 -303 -123q-203 -2 -329 130.5t-126 377.5z" />
    <glyph glyph-name="uni0218" unicode="&#x218;" horiz-adv-x="1409" 
d="M719 -23q-387 0 -664 185l174 293q241 -152 512 -152q33 0 63.5 4t65 14.5t55.5 34t21 58.5q0 33 -30 59.5t-81.5 45t-117.5 35.5t-139.5 36.5t-146.5 42.5t-139 58.5t-117.5 80t-81.5 111.5t-30 149q0 86 37 160t109 133t190.5 93t270.5 34q133 0 244.5 -17.5t192 -49.5
t119.5 -53t87 -52l-166 -276q-178 120 -477 120q-199 0 -199 -88q0 -29 30 -52t81.5 -39t117.5 -31t139.5 -32.5t146.5 -39.5t139 -56.5t117.5 -78.5t81.5 -110.5t30 -147.5q0 -206 -171 -339t-464 -133zM651 -211q0 47 35 81.5t86 35.5q51 2 87 -33.5t36 -87.5
t-35.5 -119.5t-77.5 -109.5l-96 47q20 29 39 80q-33 14 -53.5 42.5t-20.5 63.5z" />
    <glyph glyph-name="uni0219" unicode="&#x219;" horiz-adv-x="1036" 
d="M51 96l142 230q43 -34 128 -56t189 -22q35 0 61.5 14.5t26.5 36.5q0 24 -29 44.5t-75 37.5t-102 35.5t-112 45t-102 59.5t-75 85.5t-29 116.5q0 152 125.5 239t335.5 87q235 0 407 -99l-127 -243q-109 71 -270 71q-90 0 -90 -45q0 -26 55 -50.5t133 -52t156 -65t133 -106
t55 -158.5q0 -153 -131 -240.5t-348 -87.5q-100 0 -182.5 13t-139.5 37.5t-81 38t-54 34.5zM434 -211q0 48 35 82.5t86 34.5t86.5 -33t36.5 -84q1 -55 -35 -123t-78 -110l-96 47q25 35 37 80q-33 14 -52.5 42.5t-19.5 63.5z" />
    <glyph glyph-name="uni021A" unicode="&#x21a;" horiz-adv-x="1347" 
d="M41 1434h1266v-326h-430v-1108h-408v1108h-428v326zM631 -317q-33 14 -53.5 42.5t-20.5 63.5q0 48 35.5 82.5t87.5 34.5q50 0 86.5 -33.5t36.5 -83.5q0 -56 -36 -124t-79 -109l-94 47q25 35 37 80z" />
    <glyph glyph-name="uni021B" unicode="&#x21b;" horiz-adv-x="888" 
d="M35 723v301h131v266h389v-266h223v-301h-223v-340q0 -56 18 -85.5t64 -29.5q63 0 121 25l69 -266q-111 -54 -290 -54q-89 0 -155.5 21t-107 56t-65.5 88.5t-34 111.5t-9 133v340h-131zM457 -317q-34 14 -54 42.5t-20 63.5q0 48 35.5 82.5t87.5 34.5q49 0 85 -33.5
t36 -83.5q0 -56 -35.5 -123.5t-77.5 -109.5l-96 47q20 25 39 80z" />
    <glyph glyph-name="uni0237" unicode="&#x237;" horiz-adv-x="675" 
d="M-37 -141q41 -15 84 -15q100 0 100 107v1073h390v-1096q0 -186 -76.5 -274t-261.5 -88q-108 0 -236 31v262z" />
    <glyph glyph-name="circumflex" unicode="&#x2c6;" horiz-adv-x="1021" 
d="M365 1178h-226l269 297h206l269 -297h-224l-147 131z" />
    <glyph glyph-name="caron" unicode="&#x2c7;" horiz-adv-x="1021" 
d="M408 1178l-269 297h223l148 -132l147 132h226l-269 -297h-206z" />
    <glyph glyph-name="uni02C9" unicode="&#x2c9;" horiz-adv-x="802" 
d="M664 1368v-186h-525v186h525z" />
    <glyph glyph-name="breve" unicode="&#x2d8;" horiz-adv-x="921" 
d="M139 1470h168q0 -56 43.5 -91.5t110.5 -35.5t110 35.5t43 91.5h168q0 -145 -84.5 -230t-236.5 -85t-237 85.5t-85 229.5z" />
    <glyph glyph-name="dotaccent" unicode="&#x2d9;" horiz-adv-x="559" 
d="M139 1311q0 47 38 90t104 43q64 0 101.5 -43t37.5 -90t-36 -90t-103 -43q-68 0 -105 43.5t-37 89.5z" />
    <glyph glyph-name="ring" unicode="&#x2da;" horiz-adv-x="743" 
d="M373 1569q57 0 103.5 -21.5t73.5 -54.5t41.5 -69.5t14.5 -71.5t-14.5 -71.5t-41.5 -69.5t-73.5 -54.5t-103.5 -21.5t-103.5 21.5t-74 54.5t-42 69.5t-14.5 71.5t14.5 71.5t42 69.5t74 54.5t103.5 21.5zM373 1262q30 0 50.5 23.5t20.5 66.5t-21 66.5t-50 23.5t-51.5 -23.5
t-22.5 -66.5t22.5 -66.5t51.5 -23.5z" />
    <glyph glyph-name="ogonek" unicode="&#x2db;" horiz-adv-x="731" 
d="M139 -221q0 81 63.5 169.5t141.5 153.5h188q-186 -161 -188 -282q0 -64 76 -64q53 0 110 41l62 -151q-79 -71 -207 -74q-119 0 -182.5 56.5t-63.5 150.5z" />
    <glyph glyph-name="tilde" unicode="&#x2dc;" horiz-adv-x="999" 
d="M297 1182h-158q7 57 21 105t40 95t70.5 74.5t102.5 28.5q56 0 100 -19t65 -41.5t43.5 -41.5t41.5 -19q31 0 53.5 33.5t28.5 64.5h155q-12 -301 -225 -301q-45 0 -85 19t-64 41.5t-54 41.5t-57 19q-58 0 -78 -100z" />
    <glyph glyph-name="hungarumlaut" unicode="&#x2dd;" horiz-adv-x="1296" 
d="M614 1178l385 356l158 -158l-297 -198h-246zM385 1178h-246l387 356l156 -158z" />
    <glyph glyph-name="uni0394" unicode="&#x394;" horiz-adv-x="1689" 
d="M1628 223v-223h-1567v223l603 1211h362zM846 918l-295 -592h588z" />
    <glyph glyph-name="uni03A9" unicode="&#x3a9;" horiz-adv-x="1855" 
d="M61 317h285q-99 58 -159 180t-60 265q0 129 44.5 240.5t122 191.5t179.5 138t218.5 86t238.5 28t237.5 -28.5t217 -86t178 -138t121 -192t45.5 -239.5q0 -118 -50.5 -250.5t-136.5 -194.5h252v-317h-772v315q135 28 217 148t82 262q0 172 -110 283.5t-283 111.5
t-283 -111t-110 -282q0 -94 34.5 -180t104 -149.5t160.5 -80.5v-317h-773v317z" />
    <glyph glyph-name="uni03BC" unicode="&#x3bc;" horiz-adv-x="1384" 
d="M119 -410v1434h389v-506q0 -96 47.5 -153.5t130.5 -57.5q90 0 140.5 65.5t50.5 168.5v483h389v-1024h-389v84q-107 -104 -263 -104q-60 0 -106 24v-414h-389z" />
    <glyph glyph-name="pi" unicode="&#x3c0;" horiz-adv-x="1579" 
d="M242 645l-226 141q52 83 132 139t153 77.5t141 21.5h1082v-270h-170v-379q0 -74 80 -74h90v-301h-189q-162 0 -266 84.5t-104 243.5v426h-201v-754h-377v754q-13 -4 -26.5 -10t-25 -13.5t-22 -15.5t-20 -16t-17.5 -16t-14 -14.5t-10.5 -11.5t-7.5 -9z" />
    <glyph glyph-name="uni0401" unicode="&#x401;" horiz-adv-x="1349" 
d="M139 0v1434h1153v-322h-745v-240h643v-311h-643v-239h745v-322h-1153zM791 1720q0 47 37 90t104 43q66 0 103.5 -43t37.5 -90q0 -46 -37 -89.5t-104 -43.5q-68 0 -104.5 43t-36.5 90zM557 1853q66 0 103.5 -43t37.5 -90q0 -46 -37 -89.5t-104 -43.5t-103 43t-36 90
t36.5 89.5t102.5 43.5z" />
    <glyph glyph-name="uni0402" unicode="&#x402;" horiz-adv-x="1679" 
d="M41 1108v326h975v-326h-285v-234q35 2 107 9t128.5 10.5t106.5 3.5q84 0 161 -16t145 -50.5t118.5 -85t79.5 -124t29 -162.5q0 -216 -121.5 -346.5t-335.5 -130.5q-219 0 -342 67l92 318q71 -41 166 -41q69 0 109 32t40 99q0 62 -45 88t-112 26q-47 0 -101.5 -4
t-122.5 -10.5t-102 -9.5v-547h-407v1108h-283z" />
    <glyph glyph-name="uni0403" unicode="&#x403;" horiz-adv-x="1224" 
d="M1208 1434v-326h-661v-1108h-408v1434h1069zM872 1786l-299 -199h-245l387 357z" />
    <glyph glyph-name="uni0404" unicode="&#x404;" horiz-adv-x="1540" 
d="M74 713q0 163 62.5 302.5t168.5 234t248.5 148t300.5 54.5q215 0 377 -83t248 -208l-273 -200q-118 161 -332 163q-127 2 -228.5 -72t-139.5 -200h588v-272h-590q36 -124 137.5 -197.5t230.5 -73.5q232 0 342 168l263 -182q-31 -54 -83 -106t-127.5 -100.5t-183 -78.5
t-229.5 -30q-160 0 -302 51.5t-248.5 144.5t-168 232t-61.5 305z" />
    <glyph glyph-name="uni0405" unicode="&#x405;" horiz-adv-x="1409" 
d="M55 162l174 293q40 -26 72.5 -44t98.5 -46.5t153.5 -44.5t187.5 -17q96 0 150.5 28.5t54.5 82.5q0 33 -30 59.5t-81.5 45t-117.5 35.5t-139.5 36.5t-146.5 42.5t-139 58.5t-117.5 80t-81.5 111.5t-30 149q0 86 37 160t109 132.5t190.5 92.5t270.5 35q132 0 243.5 -17.5
t192 -49.5t120.5 -53t87 -52l-166 -276q-174 120 -477 120q-199 0 -199 -88q0 -29 30.5 -52t81.5 -39t117.5 -31t140 -32.5t147 -39.5t139.5 -56.5t117 -78.5t81 -110.5t29 -147.5q-2 -207 -172.5 -339.5t-462.5 -132.5q-380 0 -664 185z" />
    <glyph glyph-name="uni0406" unicode="&#x406;" horiz-adv-x="710" 
d="M559 1434v-1434h-407v1434h407z" />
    <glyph glyph-name="uni0407" unicode="&#x407;" horiz-adv-x="645" 
d="M524 0h-407v1434h407v-1434zM135 1587q-67 0 -103 43t-36 90t36.5 90t102.5 43t103.5 -43t37.5 -90q0 -46 -37 -89.5t-104 -43.5zM371 1720q0 47 36.5 90t102.5 43t103.5 -43t37.5 -90q0 -46 -37 -89.5t-104 -43.5t-103 43t-36 90z" />
    <glyph glyph-name="uni0408" unicode="&#x408;" horiz-adv-x="1247" 
d="M33 199l211 252q42 -55 110.5 -97.5t151.5 -42.5q87 0 140.5 57t53.5 162v904h408v-938q0 -234 -154.5 -377.5t-412.5 -143.5q-294 0 -508 224z" />
    <glyph glyph-name="uni0409" unicode="&#x409;" horiz-adv-x="2236" 
d="M672 840q-3 -90 -8 -162t-16 -148t-28 -135.5t-44 -118t-62 -101.5t-83.5 -80.5t-108.5 -61t-137 -36.5t-169 -13l2 342q46 0 82.5 15.5t61.5 39.5t43.5 65t29 80.5t17 98.5t8.5 106t4 115l15 588h1034v-539h295q93 0 168 -10t149.5 -39t125 -76.5t81.5 -127t31 -185.5
q0 -99 -32.5 -180.5t-97.5 -144t-171 -97.5t-244 -35h-713v1108h-225zM1313 569v-243h305q70 0 103.5 35t33.5 98q0 110 -147 110h-295z" />
    <glyph glyph-name="uni040A" unicode="&#x40a;" horiz-adv-x="2281" 
d="M547 0h-408v1434h408v-539h403v539h406v-539h297q92 0 167 -10.5t149.5 -39.5t125 -76t82 -126t31.5 -184q0 -100 -32.5 -182t-97.5 -144.5t-171 -97.5t-244 -35h-713v569h-403v-569zM1653 569h-297v-243h307q137 0 137 133q0 58 -36 84t-111 26z" />
    <glyph glyph-name="uni040B" unicode="&#x40b;" horiz-adv-x="1677" 
d="M41 1108v326h975v-326h-283v-209q167 78 344 78q93 0 165.5 -13t135.5 -45t104.5 -84t65 -133t23.5 -188v-514h-408v473q0 101 -53.5 149t-167.5 48q-116 0 -209 -56v-614h-407v1108h-285z" />
    <glyph glyph-name="uni040C" unicode="&#x40c;" horiz-adv-x="1660" 
d="M547 0h-408v1434h408v-553h133l463 553h481l-598 -717l598 -717h-481l-463 555h-133v-555zM723 1587h-246l385 357l158 -158z" />
    <glyph glyph-name="uni040E" unicode="&#x40e;" horiz-adv-x="1548" 
d="M57 1434h453l362 -621l269 621h432l-504 -1168q-128 -295 -448 -295q-137 0 -243 40.5t-198 127.5l158 242q40 -32 61 -47t57.5 -29t75.5 -14q51 0 88 32t37 83zM485 1880h168q0 -56 42 -91.5t108 -35.5q63 0 110.5 33.5t47.5 93.5h167q0 -145 -84.5 -230t-236.5 -85
t-237 85.5t-85 229.5z" />
    <glyph glyph-name="uni040F" unicode="&#x40f;" horiz-adv-x="1583" 
d="M139 0v1434h408v-1108h489v1108h408v-1432l-449 -2v-236h-407v236h-449z" />
    <glyph glyph-name="uni0410" unicode="&#x410;" horiz-adv-x="1767" 
d="M455 0h-430l647 1434h426l645 -1434h-428l-103 231h-655zM698 555h371l-184 414z" />
    <glyph glyph-name="uni0411" unicode="&#x411;" horiz-adv-x="1472" 
d="M139 0v1434h1164v-326h-756v-213h295q93 0 168.5 -10.5t150.5 -39.5t125.5 -76t82 -126t30.5 -184q-1 -100 -33.5 -182t-98 -144.5t-171.5 -97.5t-244 -35h-713zM844 569h-297v-243h305q72 0 106.5 35t32.5 98q-1 58 -37 84t-110 26z" />
    <glyph glyph-name="uni0412" unicode="&#x412;" horiz-adv-x="1574" 
d="M139 0v1434h779q260 0 397 -104t137 -267q0 -106 -50.5 -186t-137.5 -119q97 -25 167 -114t70 -216q0 -195 -137.5 -311.5t-402.5 -116.5h-822zM547 326h385q76 0 119 35t43 94q0 62 -41.5 94.5t-116.5 32.5h-389v-256zM895 1108h-348v-231h348q75 0 114.5 31t39.5 83
q0 53 -41 85t-113 32z" />
    <glyph glyph-name="uni0413" unicode="&#x413;" horiz-adv-x="1224" 
d="M1208 1434v-326h-661v-1108h-408v1434h1069z" />
    <glyph glyph-name="uni0414" unicode="&#x414;" horiz-adv-x="1701" 
d="M57 -236v562q67 3 124.5 53t96.5 128t70 181t49 207t29.5 211t15 187.5t2.5 140.5h1031v-1108h190v-562h-408v236h-792v-236h-408zM655 326h412v782h-225q-39 -535 -187 -782z" />
    <glyph glyph-name="uni0415" unicode="&#x415;" horiz-adv-x="1390" 
d="M139 1434h1153v-322h-745v-240h643v-311h-643v-239h745v-322h-1153v1434z" />
    <glyph glyph-name="uni0416" unicode="&#x416;" horiz-adv-x="2529" 
d="M-4 1434h481l463 -553h100v553h406v-553h102l463 553h481l-598 -717l598 -717h-481l-463 555h-102v-555h-406v555h-100l-463 -555h-481l598 717z" />
    <glyph glyph-name="uni0417" unicode="&#x417;" horiz-adv-x="1282" 
d="M57 188l197 265q59 -70 156.5 -110t220.5 -40q90 0 148.5 39.5t58.5 108.5q0 75 -77 114t-190 39h-165l2 285h155q76 0 132.5 37.5t56.5 105.5q0 45 -40.5 74t-97.5 29q-53 0 -104.5 -14t-87.5 -33.5t-65.5 -41t-43.5 -35.5t-16 -18l-227 221q107 131 249 188.5t328 57.5
q77 0 150 -14t139 -44.5t115.5 -74t78.5 -106.5t29 -138q0 -89 -56 -176t-142 -121q117 -26 200.5 -126t83.5 -232q0 -90 -39.5 -170.5t-113 -144t-189 -101t-256.5 -37.5q-82 0 -155.5 9.5t-130.5 27.5t-100.5 35t-81 43t-56.5 40t-43 36z" />
    <glyph glyph-name="uni0418" unicode="&#x418;" horiz-adv-x="1662" 
d="M553 0h-414v1434h408v-785l565 785h412v-1434h-408v780z" />
    <glyph glyph-name="uni0419" unicode="&#x419;" horiz-adv-x="1662" 
d="M154 1434h407v-785l565 785h412v-1434h-408v780l-561 -780h-415v1434zM498 1880h168q0 -56 43 -91.5t110 -35.5q69 0 111.5 35.5t42.5 91.5h168q0 -145 -84.5 -230t-237.5 -85q-152 0 -236.5 85t-84.5 230z" />
    <glyph glyph-name="uni041A" unicode="&#x41a;" horiz-adv-x="1660" 
d="M547 0h-408v1434h408v-553h133l463 553h481l-598 -717l598 -717h-481l-463 555h-133v-555z" />
    <glyph glyph-name="uni041B" unicode="&#x41b;" horiz-adv-x="1517" 
d="M16 -16v342q46 0 82.5 15.5t61.5 39.5t43.5 65t29 80t17.5 98.5t9.5 106t4.5 115.5l17 588h1097v-1434h-407l2 1108h-293l-8 -268q-3 -108 -11 -193t-27.5 -177t-50 -160.5t-80 -132.5t-116 -104.5t-160.5 -64.5t-211 -24z" />
    <glyph glyph-name="uni041C" unicode="&#x41c;" horiz-adv-x="1933" 
d="M139 0v1434h412l414 -619l417 619h412v-1434h-408v782l-421 -641l-418 637v-778h-408z" />
    <glyph glyph-name="uni041D" unicode="&#x41d;" horiz-adv-x="1673" 
d="M141 1434h406v-555h577v555h408v-1434h-408v553h-575v-553h-408v1434z" />
    <glyph glyph-name="uni041E" unicode="&#x41e;" horiz-adv-x="1705" 
d="M74 721q0 153 59.5 289t162.5 234t248.5 155t309.5 57t309.5 -57.5t248 -156t162 -234t58.5 -287.5q-1 -154 -60.5 -291.5t-162 -237.5t-247.5 -158t-308 -57q-164 1 -309.5 60t-248.5 159t-162.5 236.5t-59.5 288.5zM481 721q0 -164 109 -280.5t264 -116.5
q154 0 262.5 116t108.5 281q0 163 -108 275t-263 112q-156 0 -264.5 -112.5t-108.5 -274.5z" />
    <glyph glyph-name="uni041F" unicode="&#x41f;" horiz-adv-x="1583" 
d="M139 1434h1305v-1434h-408v1108h-489v-1108h-408v1434z" />
    <glyph glyph-name="uni0420" unicode="&#x420;" horiz-adv-x="1449" 
d="M139 0v1434h717q123 0 225 -39.5t170.5 -108t106.5 -162t39 -200.5q1 -105 -36 -197.5t-105.5 -161.5t-171 -109t-226.5 -40h-311v-416h-408zM547 741h276q88 0 136.5 53t48.5 130q0 79 -49 131.5t-136 52.5h-276v-367z" />
    <glyph glyph-name="uni0421" unicode="&#x421;" horiz-adv-x="1540" 
d="M854 -20q-160 0 -302 51.5t-248.5 144.5t-168 232t-61.5 305q0 163 62.5 302.5t168.5 234t248.5 148t300.5 54.5q215 0 377 -83t248 -208l-273 -200q-120 163 -332 163q-163 0 -278 -114.5t-115 -296.5q0 -181 113 -292.5t278 -111.5q232 0 342 168l263 -182
q-31 -54 -83 -106t-127.5 -100.5t-183 -78.5t-229.5 -30z" />
    <glyph glyph-name="uni0422" unicode="&#x422;" horiz-adv-x="1347" 
d="M41 1108v326h1266v-326h-428l-2 -1108h-408v1108h-428z" />
    <glyph glyph-name="uni0423" unicode="&#x423;" horiz-adv-x="1630" 
d="M57 1434h453l362 -621l269 621h432l-504 -1168q-128 -295 -448 -295q-137 0 -243 40.5t-198 127.5l158 242q38 -31 62 -47t61 -29.5t78 -13.5q58 0 88 39.5t30 75.5z" />
    <glyph glyph-name="uni0424" unicode="&#x424;" horiz-adv-x="1679" 
d="M662 76q-101 13 -186 40t-160.5 76t-128 117t-83 166t-30.5 219q0 123 31 222t84 166.5t129.5 116t160 74.5t183.5 38v174h358v-174q100 -13 185 -40.5t160 -76.5t127.5 -117t83 -165.5t30.5 -217.5q0 -128 -31 -229.5t-83.5 -169t-129 -114.5t-159.5 -71.5t-183 -35.5
v-125h-358v127zM662 985q-205 -64 -205 -289q0 -228 205 -290v579zM1020 985v-577q203 65 203 288q0 229 -203 289z" />
    <glyph glyph-name="uni0425" unicode="&#x425;" horiz-adv-x="1789" 
d="M541 0h-488l598 752l-540 682h483l301 -377l299 377h483l-540 -682l600 -752h-490l-352 446z" />
    <glyph glyph-name="uni0426" unicode="&#x426;" horiz-adv-x="1720" 
d="M139 0v1434h408v-1108h432v1108h407v-1108h297v-562h-407v236h-1137z" />
    <glyph glyph-name="uni0427" unicode="&#x427;" horiz-adv-x="1558" 
d="M680 391q-90 0 -170 14.5t-157 51.5t-132 93.5t-89 146.5t-34 204v533h408v-533q0 -91 72.5 -137.5t209.5 -46.5q110 0 224 65v652h407v-1434h-407v469q-167 -78 -332 -78z" />
    <glyph glyph-name="uni0428" unicode="&#x428;" horiz-adv-x="2091" 
d="M139 1434h408v-1108h295v1108h407v-1108h295v1108h408v-1434h-1813v1434z" />
    <glyph glyph-name="uni0429" unicode="&#x429;" horiz-adv-x="2260" 
d="M139 1434h408v-1108h295v1108h407v-1108h295v1108h408v-1108h272v-562h-407v236h-1678v1434z" />
    <glyph glyph-name="uni042A" unicode="&#x42a;" horiz-adv-x="1667" 
d="M336 1108h-320v326h727v-539h295q93 0 168 -10.5t149.5 -39.5t125 -76t81.5 -126t31 -184q0 -100 -32.5 -182t-97 -144.5t-170.5 -97.5t-244 -35h-713v1108zM743 326h306q73 0 106 32t31 97q0 114 -146 114h-297v-243z" />
    <glyph glyph-name="uni042B" unicode="&#x42b;" horiz-adv-x="2068" 
d="M139 1434h408v-539h295q93 0 168.5 -10.5t150.5 -39.5t125.5 -76t82 -126t30.5 -184q-1 -100 -33.5 -182t-98 -144.5t-171.5 -97.5t-244 -35h-713v1434zM1929 0h-407v1434h407v-1434zM547 569v-243h305q72 0 106.5 32t32.5 95q-3 116 -147 116h-297z" />
    <glyph glyph-name="uni042C" unicode="&#x42c;" horiz-adv-x="1472" 
d="M139 0v1434h408v-539h295q93 0 168.5 -10.5t150.5 -39.5t125.5 -76t82 -126t30.5 -184q-1 -100 -33.5 -182t-98 -144.5t-171.5 -97.5t-244 -35h-713zM547 569v-243h305q72 0 106.5 33.5t32.5 95.5q-1 58 -37 86t-110 28h-297z" />
    <glyph glyph-name="uni042D" unicode="&#x42d;" horiz-adv-x="1515" 
d="M662 1452q158 0 300 -53.5t248.5 -148t169 -234.5t62.5 -303q0 -166 -61.5 -305t-168 -232t-248.5 -144.5t-302 -51.5q-122 0 -229.5 30t-183 78.5t-127.5 100.5t-83 106l262 182q110 -168 342 -168q129 0 230.5 73.5t136.5 197.5h-588v272h586q-36 125 -137.5 198.5
t-229.5 73.5q-212 0 -332 -163l-272 200q86 125 247.5 208t377.5 83z" />
    <glyph glyph-name="uni042E" unicode="&#x42e;" horiz-adv-x="2344" 
d="M547 0h-408v1434h408v-553h184q56 253 265.5 414t494.5 161q165 0 311 -57.5t248.5 -156t162 -234t58.5 -287.5q-1 -154 -60.5 -291t-162.5 -236.5t-248 -157.5t-309 -59q-282 -1 -491 162.5t-267 415.5h-186v-555zM1120 721q0 -164 108.5 -280.5t262.5 -116.5
q155 0 264 115.5t109 281.5q0 163 -109 275t-264 112q-154 0 -262.5 -112.5t-108.5 -274.5z" />
    <glyph glyph-name="uni042F" unicode="&#x42f;" horiz-adv-x="1474" 
d="M479 0h-463l326 475q-130 61 -202 180.5t-74 268.5q-1 107 37 200t106.5 162t171 108.5t225.5 39.5h729v-1434h-407v416h-166zM455 924q0 -77 47.5 -130t136.5 -53h289v367h-289q-87 0 -135.5 -52.5t-48.5 -131.5z" />
    <glyph glyph-name="uni0430" unicode="&#x430;" horiz-adv-x="1386" 
d="M74 508q0 112 40.5 212.5t107.5 171t157.5 111.5t187.5 41q190 0 312 -112v92h389v-1024h-389v98q-121 -118 -301 -118q-98 0 -190 39.5t-161.5 108t-111 168t-41.5 212.5zM449 510q0 -96 60 -163.5t155 -67.5t155 67.5t60 163.5q0 94 -61 161.5t-154 67.5
q-94 0 -154.5 -67.5t-60.5 -161.5z" />
    <glyph glyph-name="uni0431" unicode="&#x431;" horiz-adv-x="1236" 
d="M70 567q-2 123 15 235.5t61.5 219t113 187t174.5 134t240 64.5q32 3 92 4.5t96.5 4t85 13t88.5 29.5l84 -272q-35 -14 -71.5 -24t-85.5 -16.5t-72.5 -9t-87.5 -7t-74 -5.5q-88 -7 -144 -58.5t-83 -131.5q74 49 174 49q237 0 380.5 -130.5t143.5 -350.5q0 -145 -75 -266.5
t-204.5 -191t-283.5 -69.5q-130 0 -237 45.5t-178.5 125.5t-110.5 188t-41 233zM635 729q-73 0 -123.5 -63t-50.5 -164q0 -92 52 -160t122 -68q72 0 124 68t52 160t-52 159.5t-124 67.5z" />
    <glyph glyph-name="uni0432" unicode="&#x432;" horiz-adv-x="1157" 
d="M119 0v1024h543q203 0 316.5 -76.5t113.5 -202.5q0 -74 -37.5 -131t-96.5 -79q71 -15 116.5 -78.5t45.5 -155.5q0 -138 -116.5 -219.5t-331.5 -81.5h-553zM479 254h223q43 0 66 21.5t23 52.5q0 34 -20.5 54.5t-65.5 20.5h-226v-149zM479 631h201q42 0 64 19.5t22 49.5
q0 70 -86 70h-201v-139z" />
    <glyph glyph-name="uni0433" unicode="&#x433;" horiz-adv-x="940" 
d="M934 1024v-301h-426v-723h-389v1024h815z" />
    <glyph glyph-name="uni0434" unicode="&#x434;" horiz-adv-x="1382" 
d="M385 -162h-389v463h166q45 4 79 45t53.5 111.5t31.5 141.5t16.5 163t5.5 145.5t0 116.5h869v-723h169v-463h-389v162h-612v-162zM590 301h239v422h-151q-15 -287 -88 -422z" />
    <glyph glyph-name="uni0435" unicode="&#x435;" horiz-adv-x="1247" 
d="M74 510q0 115 36 212.5t104.5 170.5t175.5 114.5t241 41.5q142 0 250.5 -44.5t174 -125.5t95 -191.5t20.5 -245.5h-702q15 -85 71.5 -132.5t133.5 -47.5q74 0 129.5 25.5t99.5 85.5l225 -164q-59 -92 -186 -163t-301 -71q-252 0 -409.5 153.5t-157.5 381.5zM481 647h348
q-6 57 -52.5 94t-114.5 37q-66 0 -113.5 -34t-67.5 -97z" />
    <glyph glyph-name="uni0436" unicode="&#x436;" horiz-adv-x="2011" 
d="M424 510l-428 514h457l297 -358h61v358h387v-358h64l301 358h452l-430 -514l428 -510h-454l-297 356h-64v-356h-387v356h-59l-299 -356h-455z" />
    <glyph glyph-name="uni0437" unicode="&#x437;" horiz-adv-x="985" 
d="M37 131l156 211q44 -42 118 -71t164 -29q70 0 111 23.5t41 70.5q0 29 -21.5 49.5t-56 28.5t-62 11t-55.5 3h-127v211h119q137 0 137 82q0 31 -30 49t-68 18q-62 0 -121.5 -19t-88 -37t-28.5 -23l-166 186q79 85 183 119.5t247 34.5q103 0 190.5 -28t146.5 -91t59 -152
q0 -67 -42.5 -128.5t-105.5 -86.5q87 -19 149 -91.5t62 -166.5q0 -137 -122.5 -232.5t-336.5 -95.5q-45 0 -86.5 4t-75 9.5t-65.5 15t-55.5 18t-47 20.5t-38 21t-31 21t-24 18.5t-18 16t-11.5 10.5z" />
    <glyph glyph-name="uni0438" unicode="&#x438;" horiz-adv-x="1388" 
d="M512 0h-393v1024h387v-504l368 504h396v-1024h-387v504z" />
    <glyph glyph-name="uni0439" unicode="&#x439;" horiz-adv-x="1388" 
d="M516 0h-393v1024h387v-504l369 504h393v-1024h-387v504zM319 1470h168q0 -56 43.5 -91.5t110.5 -35.5q69 0 111.5 35.5t42.5 91.5h168q0 -145 -84.5 -230t-237.5 -85q-152 0 -237 85.5t-85 229.5z" />
    <glyph glyph-name="uni043A" unicode="&#x43a;" horiz-adv-x="1404" 
d="M119 1024h387v-358h84l301 358h452l-430 -514l428 -510h-454l-297 356h-84v-356h-387v1024z" />
    <glyph glyph-name="uni043B" unicode="&#x43b;" horiz-adv-x="1353" 
d="M637 723q-6 -134 -24.5 -238.5t-62 -202t-110.5 -161t-174.5 -101.5t-249.5 -38v319q44 0 80.5 19t62.5 47t47 75.5t34 89t22 103t13.5 102.5t7 103.5t2.5 89v74.5v20h950v-1024h-389v723h-209z" />
    <glyph glyph-name="uni043C" unicode="&#x43c;" horiz-adv-x="1476" 
d="M119 1024h334l282 -375l283 375h340v-1024h-389v399l-234 -336l-231 334v-397h-385v1024z" />
    <glyph glyph-name="uni043D" unicode="&#x43d;" horiz-adv-x="1361" 
d="M506 0h-387v1022l387 2v-360h348v358l387 2l2 -1024h-389v362h-348v-362z" />
    <glyph glyph-name="uni043E" unicode="&#x43e;" horiz-adv-x="1275" 
d="M639 -25q-176 0 -306 72.5t-194.5 193t-64.5 271.5q0 152 64 272.5t193.5 192.5t305.5 72q177 0 307 -72t194 -192.5t64 -272.5q0 -151 -64.5 -271.5t-194 -193t-304.5 -72.5zM637 743q-79 0 -126.5 -66.5t-47.5 -164.5q0 -96 48 -162.5t126 -66.5q80 0 128 66t48 163
q0 99 -47.5 165t-128.5 66z" />
    <glyph glyph-name="uni043F" unicode="&#x43f;" horiz-adv-x="1314" 
d="M119 0v1024h1077v-1024h-389v721h-301v-721h-387z" />
    <glyph glyph-name="uni0440" unicode="&#x440;" horiz-adv-x="1386" 
d="M119 1024h389v-94q124 114 313 114q97 0 187 -41t157.5 -111.5t107.5 -171t40 -212.5q0 -114 -41.5 -213.5t-110.5 -167.5t-160.5 -107.5t-189.5 -39.5q-180 0 -303 120v-510h-389v1434zM508 508q0 -95 60.5 -162t154.5 -67q95 0 156 67t61 162t-61.5 163t-155.5 68
q-93 0 -154 -67.5t-61 -163.5z" />
    <glyph glyph-name="uni0441" unicode="&#x441;" horiz-adv-x="1171" 
d="M629 -33q-165 0 -293 74t-195 196.5t-67 270.5q0 112 39 211t109.5 173.5t177 117.5t233.5 43q87 0 166 -21.5t137 -57t99.5 -73.5t68.5 -78l-211 -184q-77 106 -203 106q-94 0 -160.5 -65.5t-66.5 -163.5q0 -105 65 -170t166 -65q124 0 197 114l221 -194
q-28 -36 -64.5 -70t-96 -74.5t-143.5 -65t-179 -24.5z" />
    <glyph glyph-name="uni0442" unicode="&#x442;" horiz-adv-x="1064" 
d="M41 721v303h983v-303h-297v-721h-389v721h-297z" />
    <glyph glyph-name="uni0443" unicode="&#x443;" horiz-adv-x="1447" 
d="M588 8l-539 1016h422l293 -565l223 565h412l-477 -1184q-59 -145 -181 -218t-276 -73q-131 0 -215 33.5t-158 91.5l121 228q81 -66 186 -66q123 0 168 117z" />
    <glyph glyph-name="uni0444" unicode="&#x444;" horiz-adv-x="1667" 
d="M672 -2q-103 10 -189 31.5t-163 62t-130.5 97t-84.5 139t-31 184.5q0 456 598 514v408h323v-410q129 -12 233 -45t188 -92t130.5 -154t46.5 -221q0 -108 -32 -193t-85.5 -141t-131.5 -95t-162.5 -58.5t-186.5 -28.5l-2 -406h-321v408zM483 512q0 -160 189 -201v402
q-189 -42 -189 -201zM995 711v-400q92 22 140.5 73t48.5 126q0 79 -48.5 130t-140.5 71z" />
    <glyph glyph-name="uni0445" unicode="&#x445;" horiz-adv-x="1372" 
d="M489 0h-444l420 524l-395 500h436l180 -223l178 223h439l-398 -500l422 -524h-444l-197 248z" />
    <glyph glyph-name="uni0446" unicode="&#x446;" horiz-adv-x="1349" 
d="M967 0h-848v1024h389v-723h317v723h389v-723h140v-463h-387v162z" />
    <glyph glyph-name="uni0447" unicode="&#x447;" horiz-adv-x="1308" 
d="M553 225q-213 0 -344 115t-131 336v348h389v-348q0 -75 38 -111.5t120 -36.5q75 0 176 72v424h389v-1024h-389v287q-124 -62 -248 -62z" />
    <glyph glyph-name="uni0448" unicode="&#x448;" horiz-adv-x="1841" 
d="M119 1024h387v-715h219v715h389v-715h219v715h389v-1024h-1603v1024z" />
    <glyph glyph-name="uni0449" unicode="&#x449;" horiz-adv-x="1964" 
d="M119 0v1024h387v-715h219v715h389v-715h217v715h389v-715h248v-469h-389v160h-1460z" />
    <glyph glyph-name="uni044A" unicode="&#x44a;" horiz-adv-x="1300" 
d="M-25 723v301h629v-285h125q498 0 498 -366q0 -83 -25.5 -147.5t-69.5 -106.5t-107 -69t-133 -38.5t-153 -11.5h-526v723h-238zM602 289h166q51 0 75.5 23t24.5 63q0 86 -108 86h-158v-172z" />
    <glyph glyph-name="uni044B" unicode="&#x44b;" horiz-adv-x="1765" 
d="M119 0v1024h391v-285h125q498 0 498 -366q0 -83 -25.5 -147.5t-69.5 -106.5t-107 -69t-133 -38.5t-153 -11.5h-526zM1647 0h-390v1024h390v-1024zM508 461v-172h166q51 0 75.5 23t24.5 63q0 86 -108 86h-158z" />
    <glyph glyph-name="uni044C" unicode="&#x44c;" horiz-adv-x="1206" 
d="M645 0h-526v1024h391v-285h125q498 0 498 -366q0 -83 -25.5 -147.5t-69.5 -106.5t-107 -69t-133 -38.5t-153 -11.5zM508 461v-172h166q51 0 75.5 23t24.5 63q0 86 -108 86h-158z" />
    <glyph glyph-name="uni044D" unicode="&#x44d;" horiz-adv-x="1150" 
d="M522 -33q-95 0 -179 24.5t-143.5 65t-96 74.5t-64.5 70l207 182q80 -123 237 -123q74 0 134.5 44t87.5 114h-349v188h349q-24 68 -84 111t-138 43q-147 0 -231 -115l-205 178q27 40 68 78t99 73.5t137 57t167 21.5q127 0 233.5 -43t177 -117.5t109.5 -173.5t39 -211
q0 -148 -67 -270.5t-195 -196.5t-293 -74z" />
    <glyph glyph-name="uni044E" unicode="&#x44e;" horiz-adv-x="1835" 
d="M508 0h-389v1024h389v-362h143q43 174 185.5 280.5t359.5 106.5q177 0 307 -72t194 -192.5t64 -272.5q0 -151 -64.5 -271.5t-194 -193t-304.5 -72.5q-215 0 -358.5 106t-186.5 279h-145v-360zM1022 512q0 -97 47.5 -163t126.5 -66q80 0 128 66t48 163q0 99 -47.5 165
t-128.5 66q-79 0 -126.5 -66.5t-47.5 -164.5z" />
    <glyph glyph-name="uni044F" unicode="&#x44f;" horiz-adv-x="1265" 
d="M492 0h-412l207 342q-91 51 -142 132t-51 173q0 106 61.5 193t167.5 135.5t234 48.5h590v-1024h-389v270h-103zM481 647q0 -44 26.5 -71.5t76.5 -26.5h174v199h-174q-50 0 -76.5 -27.5t-26.5 -73.5z" />
    <glyph glyph-name="uni0451" unicode="&#x451;" horiz-adv-x="1247" 
d="M641 -25q-252 0 -409.5 153.5t-157.5 381.5q0 115 36 212.5t104.5 170.5t175.5 114.5t241 41.5q142 0 250.5 -44.5t174 -125.5t95 -191.5t20.5 -245.5h-702q15 -85 71.5 -132.5t133.5 -47.5q74 0 129.5 25.5t99.5 85.5l225 -164q-59 -92 -186 -163t-301 -71zM799 1178
q-67 0 -103.5 43.5t-36.5 89.5q0 47 37 90t103 43t103.5 -43t37.5 -90t-36.5 -90t-104.5 -43zM426 1178q-68 0 -104.5 43t-36.5 90t37.5 90t103.5 43q64 0 101.5 -43t37.5 -90t-36 -90t-103 -43zM481 647h348q-6 57 -52.5 94t-114.5 37q-66 0 -113.5 -34t-67.5 -97z" />
    <glyph glyph-name="uni0452" unicode="&#x452;" horiz-adv-x="1492" 
d="M41 1126v185h199v123h389v-123h368v-185h-368v-200q122 125 303 125q99 0 181.5 -33t143 -95.5t94.5 -160.5t35 -221l3 -545q0 -163 -83.5 -251.5t-271.5 -88.5q-232 0 -354 96l115 178q27 -34 106 -34q43 0 69.5 27t26.5 71v508q0 97 -46.5 155.5t-131.5 59.5
q-88 1 -139 -64t-51 -168v-485h-389v1126h-199z" />
    <glyph glyph-name="uni0453" unicode="&#x453;" horiz-adv-x="929" 
d="M934 1024v-301h-426v-723h-389v1024h815zM684 1376l-299 -198h-246l387 356z" />
    <glyph glyph-name="uni0454" unicode="&#x454;" horiz-adv-x="1171" 
d="M74 508q0 112 39 211t109.5 173.5t177 117.5t233.5 43q87 0 166 -21.5t137 -57t99.5 -73.5t68.5 -78l-205 -178q-84 115 -231 115q-78 0 -138 -43t-84 -111h349v-188h-349q25 -70 86.5 -114t135.5 -44q157 0 237 123l207 -182q-28 -36 -64.5 -70t-96 -74.5t-143.5 -65
t-179 -24.5q-165 0 -293 74t-195 196.5t-67 270.5z" />
    <glyph glyph-name="uni0455" unicode="&#x455;" horiz-adv-x="1036" 
d="M51 96l142 230q43 -34 128 -56t189 -22q35 0 61.5 14.5t26.5 36.5q0 24 -29 44.5t-75 37.5t-102 35.5t-112 45t-102 59.5t-75 85.5t-29 116.5q0 152 125.5 239t335.5 87q235 0 407 -99l-127 -243q-109 71 -270 71q-90 0 -90 -45q0 -26 55 -50.5t133 -52t156 -65t133 -106
t55 -158.5q0 -153 -131 -240.5t-348 -87.5q-100 0 -182.5 13t-139.5 37.5t-81 38t-54 34.5z" />
    <glyph glyph-name="uni0456" unicode="&#x456;" horiz-adv-x="675" 
d="M532 0h-389v1024h389v-1024zM338 1116q-92 0 -154.5 48.5t-62.5 117.5t63 118t154 48q87 -2 153 -51t66 -115q0 -67 -65.5 -116.5t-153.5 -49.5z" />
    <glyph glyph-name="uni0457" unicode="&#x457;" horiz-adv-x="643" 
d="M127 1024h389v-1024h-389v1024zM369 1311q0 47 36.5 90t102.5 43t103.5 -43t37.5 -90q0 -46 -37 -89.5t-104 -43.5t-103 43t-36 90zM-6 1311q0 47 37 90t104 43q64 0 101.5 -43t37.5 -90t-36 -90t-103 -43q-68 0 -104.5 43t-36.5 90z" />
    <glyph glyph-name="uni0458" unicode="&#x458;" horiz-adv-x="675" 
d="M199 -434q-108 0 -236 31v262q46 -17 82 -17q50 2 76 27t26 82v1073h390v-1096q0 -186 -76.5 -274t-261.5 -88zM338 1116q-93 0 -156 49t-63 119q0 67 64 115.5t155 48.5q86 0 152.5 -49.5t66.5 -114.5q0 -69 -65.5 -118.5t-153.5 -49.5z" />
    <glyph glyph-name="uni0459" unicode="&#x459;" horiz-adv-x="1904" 
d="M-4 -12v301q51 0 90.5 24t64.5 69t42 97t25.5 120t11.5 125t3 124q0 37 -1 96.5t-1 79.5h977v-285h125q88 0 159.5 -10.5t135.5 -36.5t107.5 -67t69 -105t26.5 -147t-24.5 -147.5t-69.5 -106.5t-107 -69t-133.5 -38.5t-153.5 -11.5h-526v723h-201q-5 -134 -23.5 -238
t-61.5 -200.5t-110 -159t-174.5 -100t-250.5 -37.5zM1206 461v-172h168q49 0 74 23t25 63q0 86 -109 86h-158z" />
    <glyph glyph-name="uni045A" unicode="&#x45a;" horiz-adv-x="1992" 
d="M119 0v1024h389v-367h397v367h391v-285h125q88 0 159.5 -10.5t136 -36.5t108 -67t69 -105t25.5 -147t-25.5 -147.5t-69 -106.5t-106.5 -69t-133 -38.5t-153 -11.5h-527v356h-397v-356h-389zM1452 461h-158v-172h166q51 0 76 23t25 63q0 86 -109 86z" />
    <glyph glyph-name="uni045B" unicode="&#x45b;" horiz-adv-x="1492" 
d="M41 1311h199v123h389v-123h368v-185h-368v-200q122 125 303 125q203 0 328.5 -132.5t125.5 -377.5v-541h-389v502q0 98 -47.5 156t-130.5 59q-88 1 -139 -64.5t-51 -167.5v-485h-389v1126h-199v185z" />
    <glyph glyph-name="uni045C" unicode="&#x45c;" horiz-adv-x="1404" 
d="M119 1024h387v-358h84l301 358h452l-430 -514l428 -510h-454l-297 356h-84v-356h-387v1024zM508 1178h-246l387 356l158 -158z" />
    <glyph glyph-name="uni045E" unicode="&#x45e;" horiz-adv-x="1382" 
d="M49 1024h422l293 -565l223 565h412l-477 -1184q-59 -145 -181 -218t-276 -73q-131 0 -215 33.5t-158 91.5l121 228q81 -66 186 -66q123 0 168 117l21 55zM395 1470h168q0 -56 43.5 -91.5t110.5 -35.5q68 0 110.5 35.5t42.5 91.5h168q0 -145 -84 -230t-237 -85
q-152 0 -237 85.5t-85 229.5z" />
    <glyph glyph-name="uni045F" unicode="&#x45f;" horiz-adv-x="1337" 
d="M475 0h-356v1024h389v-723h321v723h390v-1024h-355v-162h-389v162z" />
    <glyph glyph-name="uni0490" unicode="&#x490;" horiz-adv-x="1259" 
d="M139 1434h695v237h409l-2 -563h-694v-1108h-408v1434z" />
    <glyph glyph-name="uni0491" unicode="&#x491;" horiz-adv-x="1028" 
d="M119 1024h522v172h389l2 -473h-540v-723h-373v1024z" />
    <glyph glyph-name="Wgrave" unicode="&#x1e80;" horiz-adv-x="2607" 
d="M573 0l-516 1434h420l307 -850l310 850h419l310 -850l307 850h420l-516 -1434h-422l-307 854l-310 -854h-422zM1329 1587l-297 199l158 158l385 -357h-246z" />
    <glyph glyph-name="wgrave" unicode="&#x1e81;" horiz-adv-x="2037" 
d="M53 1024h410l184 -537l182 537h377l183 -537l184 537h412l-396 -1024h-401l-170 446l-172 -446h-402zM1044 1178l-296 198l155 158l387 -356h-246z" />
    <glyph glyph-name="Wacute" unicode="&#x1e82;" horiz-adv-x="2607" 
d="M573 0l-516 1434h420l307 -850l310 850h419l310 -850l307 850h420l-516 -1434h-422l-307 854l-310 -854h-422zM1278 1587h-246l387 357l156 -158z" />
    <glyph glyph-name="wacute" unicode="&#x1e83;" horiz-adv-x="2037" 
d="M53 1024h410l184 -537l182 537h377l183 -537l184 537h412l-396 -1024h-401l-170 446l-172 -446h-402zM993 1178h-245l385 356l157 -158z" />
    <glyph glyph-name="Wdieresis" unicode="&#x1e84;" horiz-adv-x="2607" 
d="M57 1434h420l307 -850l310 850h419l310 -850l307 850h420l-516 -1434h-422l-307 854l-310 -854h-422zM1350 1720q0 47 37 90t104 43q66 0 103.5 -43t37.5 -90q0 -46 -37 -89.5t-104 -43.5q-68 0 -104.5 43t-36.5 90zM977 1720q0 47 36.5 90t102.5 43t103.5 -43t37.5 -90
q0 -46 -37 -89.5t-104 -43.5t-103 43t-36 90z" />
    <glyph glyph-name="wdieresis" unicode="&#x1e85;" horiz-adv-x="2037" 
d="M53 1024h410l184 -537l182 537h377l183 -537l184 537h412l-396 -1024h-401l-170 446l-172 -446h-402zM1206 1178q-68 0 -104.5 43t-36.5 90t37 90t104 43q65 0 102.5 -43t37.5 -90q0 -46 -36.5 -89.5t-103.5 -43.5zM831 1178q-68 0 -104.5 43t-36.5 90t37.5 90t103.5 43
t104 -43t38 -90q0 -46 -37.5 -89.5t-104.5 -43.5z" />
    <glyph glyph-name="endash" unicode="&#x2013;" horiz-adv-x="954" 
d="M16 362v300h922v-300h-922z" />
    <glyph glyph-name="emdash" unicode="&#x2014;" horiz-adv-x="1671" 
d="M16 362v300h1639v-300h-1639z" />
    <glyph glyph-name="quoteleft" unicode="&#x2018;" horiz-adv-x="651" 
d="M98 1038q0 99 66.5 224t144.5 198l180 -86q-39 -56 -67 -139q59 -27 95 -80t36 -117q0 -89 -66.5 -153t-160.5 -64q-93 0 -160.5 62t-67.5 155z" />
    <glyph glyph-name="quoteright" unicode="&#x2019;" horiz-adv-x="651" 
d="M98 1243q0 88 66.5 152.5t161.5 64.5q93 0 159.5 -62t67.5 -155q1 -100 -65.5 -224t-145.5 -198l-180 86q38 55 67 140q-59 27 -95 79.5t-36 116.5z" />
    <glyph glyph-name="quotesinglbase" unicode="&#x201a;" horiz-adv-x="651" 
d="M98 199q0 88 66.5 152t161.5 65q93 2 159.5 -61t67.5 -156q1 -100 -65.5 -224t-145.5 -200l-180 88q39 54 67 139q-59 25 -95 78.5t-36 118.5z" />
    <glyph glyph-name="quotedblleft" unicode="&#x201c;" horiz-adv-x="1212" 
d="M98 1038q-1 99 66 224t145 198l180 -86q-39 -56 -67 -139q59 -27 95 -80t36 -117q0 -90 -66 -153.5t-161 -63.5q-93 0 -160.5 62t-67.5 155zM659 1038q-1 98 65.5 223t143.5 199l183 -86q-42 -56 -70 -139q59 -27 96 -80t37 -117q0 -89 -66.5 -153t-160.5 -64t-161 61.5
t-67 155.5z" />
    <glyph glyph-name="quotedblright" unicode="&#x201d;" horiz-adv-x="1212" 
d="M98 1243q0 90 66.5 153.5t161.5 63.5q93 0 159.5 -62t67.5 -155q1 -100 -65.5 -224t-145.5 -198l-180 86q38 55 67 140q-59 27 -95 79.5t-36 116.5zM659 1243q0 90 66 153.5t162 63.5q92 0 159 -62.5t68 -154.5q1 -99 -66 -223t-145 -199l-180 86q40 58 68 140
q-59 27 -95.5 79.5t-36.5 116.5z" />
    <glyph glyph-name="quotedblbase" unicode="&#x201e;" horiz-adv-x="1212" 
d="M98 199q0 88 66.5 152t161.5 65q93 2 159.5 -61t67.5 -156q1 -100 -65.5 -224t-145.5 -200l-180 88q39 54 67 139q-59 25 -95 78.5t-36 118.5zM659 199q0 88 66.5 152t161.5 65q92 2 159 -61t68 -156q1 -99 -66 -223t-145 -201l-180 88q41 56 68 139q-59 25 -95.5 78.5
t-36.5 118.5z" />
    <glyph glyph-name="dagger" unicode="&#x2020;" horiz-adv-x="1079" 
d="M336 743h-279v326h279v365h407v-365h279v-326h-279v-1153h-407v1153z" />
    <glyph glyph-name="daggerdbl" unicode="&#x2021;" horiz-adv-x="1079" 
d="M57 240h279v503h-279v326h279v365h407v-365h279v-326h-279v-503h279v-326h-279v-324h-407v324h-279v326z" />
    <glyph glyph-name="bullet" unicode="&#x2022;" horiz-adv-x="749" 
d="M139 629q0 92 68.5 157.5t167.5 65.5q95 0 165 -66.5t70 -156.5q0 -91 -70.5 -159.5t-164.5 -68.5q-98 0 -167 67t-69 161z" />
    <glyph glyph-name="ellipsis" unicode="&#x2026;" horiz-adv-x="1951" 
d="M1399 199q0 89 66.5 153t160.5 64q92 0 159.5 -65t67.5 -152q0 -88 -68 -153.5t-159 -65.5q-95 0 -161 64.5t-66 154.5zM98 199q0 88 66.5 152.5t161.5 64.5q92 0 159.5 -65t67.5 -152t-68.5 -153t-158.5 -66q-95 0 -161.5 64.5t-66.5 154.5zM750 199q0 89 65.5 153
t161.5 64q90 0 157.5 -65t67.5 -152q0 -88 -68 -153.5t-159 -65.5q-93 0 -159 64.5t-66 154.5z" />
    <glyph glyph-name="perthousand" unicode="&#x2030;" horiz-adv-x="2770" 
d="M1085 393q0 192 95 304t284 112q191 0 287 -111t94 -305q-2 -190 -97 -300t-284 -111q-192 -1 -285.5 107.5t-93.5 303.5zM1954 393q0 192 95 304t284 112q191 0 286 -111t95 -305q0 -190 -96 -300t-285 -111q-192 -1 -285.5 107.5t-93.5 303.5zM57 1034q0 192 95.5 303
t285.5 111q189 0 285 -111t94 -303t-97 -303t-282 -110q-193 1 -287 110t-94 303zM371 0l927 1434h238l-928 -1434h-237zM2204 393q0 -40 4.5 -74t17 -71t40 -58t67.5 -20q136 2 131 223q-1 44 -5.5 77t-17 70t-40 57.5t-68.5 20.5q-134 0 -129 -225zM307 1034q0 -40 5 -75
t18 -71.5t40.5 -58t67.5 -20.5q129 2 129 225q0 226 -129 226q-131 0 -131 -226zM1335 393q0 -39 5 -73.5t17.5 -71t40 -57.5t66.5 -21q131 0 131 223q0 225 -131 225q-129 0 -129 -225z" />
    <glyph glyph-name="guilsinglleft" unicode="&#x2039;" horiz-adv-x="655" 
d="M289 111l-232 401l232 401h289l-230 -401l230 -401h-289z" />
    <glyph glyph-name="guilsinglright" unicode="&#x203a;" horiz-adv-x="655" 
d="M367 913l231 -401l-231 -401h-289l229 401l-229 401h289z" />
    <glyph glyph-name="fraction" unicode="&#x2044;" horiz-adv-x="591" 
d="M-23 0h-237l928 1434h237z" />
    <glyph glyph-name="uni2070" unicode="&#x2070;" horiz-adv-x="913" 
d="M39 1307q0 208 104.5 328t313.5 120q211 0 314 -120t103 -328q0 -206 -104.5 -326.5t-312.5 -120.5q-216 0 -317 118t-101 329zM305 1307q0 -47 7 -87t22.5 -78t47 -60t75.5 -21q149 2 149 246q0 47 -6.5 87t-22 77.5t-46.5 59t-74 21.5q-152 0 -152 -245z" />
    <glyph glyph-name="uni2074" unicode="&#x2074;" horiz-adv-x="909" 
d="M483 1047h-475v147l529 547h213v-492h151v-202h-151v-175h-267v175zM346 1249h137v154z" />
    <glyph glyph-name="uni2075" unicode="&#x2075;" horiz-adv-x="923" 
d="M68 965l116 168q42 -30 104 -49t115 -19q191 5 191 115q0 30 -20.5 53.5t-52 36t-62.5 18.5t-58 6q-98 0 -176 -55l-137 96l45 406h651v-193h-422l-6 -73q33 4 103 4t138.5 -18t128.5 -53t97 -94.5t37 -135.5q0 -69 -28 -124.5t-73 -91.5t-105 -60.5t-121.5 -35
t-124.5 -10.5q-207 0 -340 109z" />
    <glyph glyph-name="uni2076" unicode="&#x2076;" horiz-adv-x="911" 
d="M469 848q-99 0 -176.5 29.5t-124.5 75t-77.5 106.5t-42 118t-11.5 115q0 62 14 123t50 122.5t89.5 108t139.5 76t194 29.5q202 0 330 -100l-115 -150q-41 28 -98.5 46t-103.5 18q-90 0 -140.5 -43.5t-68.5 -106.5q33 29 85 44.5t103 15.5q69 0 133.5 -19t117 -55.5
t84.5 -95t32 -131.5q0 -140 -116 -233t-298 -93zM494 1276q-61 0 -106.5 -34t-45.5 -81q0 -46 39.5 -73t97.5 -27q61 0 104.5 29.5t43.5 80.5t-39 78t-94 27z" />
    <glyph glyph-name="uni2077" unicode="&#x2077;" horiz-adv-x="913" 
d="M866 1599l-499 -727h-306l459 666h-475v203h821v-142z" />
    <glyph glyph-name="uni2078" unicode="&#x2078;" horiz-adv-x="911" 
d="M41 1128q0 58 30.5 109t86.5 86q-88 71 -88 166q0 82 61.5 144t148.5 90t181 28t179.5 -29.5t143.5 -91t58 -141.5q0 -96 -86 -166q116 -76 116 -195q0 -89 -63 -154t-155 -94.5t-197 -29.5q-77 0 -150 17.5t-133 51t-96.5 88t-36.5 121.5zM309 1133q0 -78 148 -78
q149 0 149 78q0 33 -41 55t-108 22q-69 0 -108.5 -21.5t-39.5 -55.5zM457 1415q54 0 84 20t32 48q2 25 -29 43t-87 18q-16 0 -33 -2t-38 -7.5t-34.5 -18t-13.5 -29.5q0 -29 32 -50.5t87 -21.5z" />
    <glyph glyph-name="uni2079" unicode="&#x2079;" horiz-adv-x="911" 
d="M29 1425q0 138 116 232t297 94q99 0 177 -29.5t125 -75t77.5 -106.5t41.5 -118t11 -115q0 -62 -14 -122.5t-49.5 -123t-88.5 -108.5t-139 -75.5t-194 -29.5q-201 0 -332 100l117 150q39 -28 97 -46t104 -18q91 0 141 43t68 105q-64 -58 -187 -58q-94 -1 -175.5 31
t-137 102.5t-55.5 167.5zM285 1427q0 -51 39.5 -77.5t95.5 -26.5q61 0 106 33t45 82q0 45 -40.5 71.5t-98.5 26.5q-61 0 -104 -29t-43 -80z" />
    <glyph glyph-name="franc" unicode="&#x20a3;" horiz-adv-x="1460" 
d="M47 340h189v1094h1153v-322h-746v-297h643v-321h-643v-154h240v-186h-240v-154h-407v154h-189v186z" />
    <glyph glyph-name="lira" unicode="&#x20a4;" horiz-adv-x="1206" 
d="M57 858h166q-8 70 -8 105q0 234 123.5 360.5t382.5 126.5q40 0 80.5 -4t74.5 -11.5t66.5 -16.5t59 -19.5t50 -20.5t40.5 -19t29.5 -16.5t18.5 -11.5l7 -4l-158 -242q-12 8 -33 19.5t-80.5 31t-113.5 19.5h-4q-83 0 -123.5 -49.5t-38.5 -138.5q0 -47 10 -109h336v-131
h-309q12 -56 16 -80q20 -3 106.5 -9t98.5 -7l88 -107l-190 -22q-2 0 -38.5 -4t-43.5 -6q3 -107 -39 -187h461v-305h-1035v305h123q45 6 72.5 38.5t34 66.5t4.5 69q-3 3 -26 11t-27 12l-181 22l49 107q10 2 77.5 7.5t82.5 8.5q-4 24 -16 80h-193v131z" />
    <glyph glyph-name="dong" unicode="&#x20ab;" horiz-adv-x="1388" 
d="M74 506q0 113 40.5 214t107.5 171.5t157.5 111.5t187.5 41q190 0 314 -114v192h-318v187h318v125h389v-125h90v-187h-90v-1122h-389v100q-123 -120 -303 -120q-98 0 -190 39.5t-161.5 108t-111 167.5t-41.5 211zM76 -123h1194v-186h-1194v186zM449 508q0 -95 60.5 -162
t156.5 -67q94 0 153.5 67t59.5 162q0 97 -60.5 164.5t-154.5 66.5q-94 0 -154.5 -68t-60.5 -163z" />
    <glyph glyph-name="Euro" unicode="&#x20ac;" horiz-adv-x="1308" 
d="M16 492v176h97q0 8 -1 25t-1 26q0 31 2 47h-97v174h123q64 229 240 372.5t422 143.5q251 0 450 -147l-168 -242q-128 92 -282 92q-96 0 -173 -57.5t-118 -161.5h534v-174h-571v-98h569l2 -176h-534q39 -102 116 -157.5t175 -55.5q170 0 276 96l174 -219
q-107 -88 -212.5 -131t-237.5 -43q-250 0 -426.5 138.5t-235.5 371.5h-123z" />
    <glyph glyph-name="uni2113" unicode="&#x2113;" horiz-adv-x="831" 
d="M106 205l-110 133l160 129v594q0 166 89.5 271.5t239.5 105.5q81 0 139.5 -28t88.5 -74t43.5 -94t13.5 -99q0 -214 -101 -399.5t-300 -354.5l-2 -98q0 -74 29.5 -102.5t103.5 -28.5q43 0 93.5 24t80.5 54l100 -142q-80 -54 -144 -81t-143 -27q-154 0 -239.5 64.5
t-85.5 170.5v25zM569 1139q0 50 -18.5 96.5t-56.5 46.5q-61 0 -91 -63.5t-30 -151.5l-2 -420q198 210 198 492z" />
    <glyph glyph-name="uni2116" unicode="&#x2116;" horiz-adv-x="2535" 
d="M139 1434h412l565 -785v785h408v-1434h-414l-563 780v-780h-408v1434zM2064 664q-163 0 -279 115t-116 278q0 164 116 279.5t279 115.5t278.5 -115.5t115.5 -279.5q0 -163 -115.5 -278t-278.5 -115zM1714 281v215h717v-215h-717zM1898 1057q0 -74 48.5 -126t117.5 -52
q67 0 115.5 52t50.5 126q0 73 -49 125.5t-117 52.5q-69 0 -117.5 -52t-48.5 -126z" />
    <glyph glyph-name="trademark" unicode="&#x2122;" horiz-adv-x="1542" 
d="M743 764v670h170l170 -260l172 260h168v-670h-211v297l-129 -189l-127 189v-297h-213zM233 1260h-176v174h568v-174h-179v-496h-213v496z" />
    <glyph glyph-name="estimated" unicode="&#x212e;" horiz-adv-x="1601" 
d="M74 715q0 149 57 285t153.5 236t232 159t284.5 59t284 -59t232 -158t154 -235.5t57 -286.5v-68h-1092v-391q57 -66 160 -109t207 -43q183 0 309 68t207 215l133 -78q-110 -160 -262.5 -244.5t-388.5 -84.5q-198 2 -365.5 101.5t-264.5 268t-97 365.5zM436 1186v-420h738
v416q-141 147 -371 147t-367 -143z" />
    <glyph glyph-name="twothirds" unicode="&#x2154;" horiz-adv-x="2304" 
d="M1411 135l137 154q51 -47 129.5 -70.5t147.5 -23.5q67 0 105 21t38 54q-1 27 -29.5 46t-73.5 27.5t-82.5 11.5t-74.5 3h-76v177l70 -3h14q29 0 59 4.5t60.5 14.5t50 30t19.5 48q0 57 -97 57q-61 0 -133 -26.5t-133 -75.5l-129 145q143 152 414 152q159 0 252.5 -57
t93.5 -154q0 -80 -43.5 -129t-104.5 -64q74 -7 139.5 -65.5t65.5 -153.5q0 -63 -28.5 -112.5t-73 -79t-103.5 -49t-114 -26.5t-111 -7q-145 0 -242 46t-147 105zM236 1114l-162 137q127 201 413 201q77 0 143 -15t119 -45t83 -82t30 -120q0 -56 -24 -110t-72 -104.5t-88 -85
t-103 -81.5l-51 -39h348v-205h-784v170l193 135q155 109 217 170q77 78 77 131q0 30 -24.5 51t-81.5 21q-145 0 -233 -129zM842 0h-236l928 1434h235z" />
    <glyph glyph-name="oneeighth" unicode="&#x215b;" horiz-adv-x="2222" 
d="M1434 449q-86 73 -86 167q0 62 35.5 113.5t92.5 83t124.5 48.5t136.5 18q94 1 180 -29t144.5 -92t58.5 -142q0 -96 -88 -167q55 -34 85.5 -84.5t30.5 -108.5q0 -68 -36 -122.5t-96.5 -88t-133 -51.5t-149.5 -19q-105 0 -196.5 30t-154.5 95.5t-65 155.5q-1 57 30.5 107.5
t86.5 85.5zM78 1229l309 205h221v-666h217v-203h-745v203h260v367l-119 -80zM557 0l928 1434h235l-927 -1434h-236zM1585 260q0 -78 148 -78q149 0 149 78q0 33 -40.5 54.5t-108.5 21.5q-69 0 -108.5 -21.5t-39.5 -54.5zM1733 543q54 0 84 19.5t32 47.5q2 24 -29.5 43
t-86.5 19q-57 0 -88 -17.5t-31 -40.5q0 -29 33 -50t86 -21z" />
    <glyph glyph-name="threeeighths" unicode="&#x215c;" horiz-adv-x="2185" 
d="M1397 449q-88 75 -88 167q0 63 35.5 114t93 82.5t125 48.5t137.5 18q94 1 180 -29t144 -92t57 -142q0 -97 -86 -167q55 -34 85.5 -84.5t30.5 -108.5q0 -68 -36 -122.5t-96.5 -88t-133 -51.5t-149.5 -19q-105 0 -197.5 30.5t-155.5 96t-63 154.5q0 58 30.5 108.5
t86.5 84.5zM74 700l139 154q50 -47 127.5 -70.5t146.5 -23.5q67 0 105.5 22t38.5 56q0 27 -28.5 45.5t-74 26.5t-83 11t-74.5 3h-74l-2 178l70 -2q30 0 59.5 3.5t65 12.5t57 29t20.5 49q0 29 -26 44t-70 15q-61 0 -132 -27t-132 -77l-131 147q143 152 413 152
q159 0 253 -57.5t94 -153.5q0 -82 -43 -131t-105 -62q33 -4 67.5 -19.5t66 -42t51.5 -67.5t20 -90q0 -127 -112.5 -201.5t-303.5 -74.5q-151 0 -251 46t-152 105zM518 0l928 1434h235l-927 -1434h-236zM1696 182q149 0 149 78q0 33 -40.5 54.5t-108.5 21.5
q-69 0 -108.5 -21.5t-39.5 -54.5q0 -78 148 -78zM1577 614q0 -29 32 -50t87 -21q54 0 85 19.5t31 47.5q0 25 -30.5 43.5t-85.5 18.5q-57 0 -88 -17.5t-31 -40.5z" />
    <glyph glyph-name="fiveeighths" unicode="&#x215d;" horiz-adv-x="2152" 
d="M1247 256q0 58 31 108.5t86 84.5q-86 73 -86 167q0 62 35.5 113.5t93 83t125 48.5t135.5 18q93 1 178.5 -28.5t144.5 -91.5t60 -143q0 -96 -88 -167q55 -34 86 -84.5t31 -108.5q0 -68 -37 -123t-98 -88.5t-133 -51t-148 -18.5q-102 0 -194 29.5t-157 95.5t-65 156z
M74 657l119 168q44 -32 108 -49.5t125 -17.5q80 0 127 30.5t47 85.5q0 52 -57 82.5t-135 30.5q-52 0 -91 -11.5t-86 -43.5l-137 96l45 406h652v-193h-424l-7 -74q24 4 74 4q189 0 310.5 -82.5t121.5 -218.5q0 -143 -123.5 -232t-326.5 -89q-210 0 -342 108zM717 0h-236
l928 1434h236zM1663 182q149 0 149 78q0 33 -41 54.5t-108 21.5t-107 -21t-40 -55q0 -78 147 -78zM1544 614q0 -31 34 -51t85 -20q52 0 84.5 19t32.5 48q0 18 -12.5 31t-32.5 19.5t-38 9t-34 2.5q-55 0 -87 -17t-32 -41z" />
    <glyph glyph-name="seveneighths" unicode="&#x215e;" horiz-adv-x="1943" 
d="M1038 256q0 58 30.5 108.5t86.5 84.5q-91 77 -88 167q2 67 42 120t101 82.5t126.5 45t127.5 15.5q92 0 174.5 -30.5t139 -91.5t61.5 -141q5 -93 -86 -167q55 -34 86 -84.5t31 -108.5q0 -68 -36.5 -122.5t-96.5 -88t-132.5 -51.5t-150.5 -19q-105 0 -198 30.5t-156 96
t-62 154.5zM74 1434h821v-142l-502 -727h-305l461 666h-475v203zM270 0l928 1434h238l-928 -1434h-238zM1307 260q0 -78 147 -78q150 0 150 78q0 29 -30 47.5t-60.5 23.5t-59.5 5q-70 0 -108.5 -21.5t-38.5 -54.5zM1454 543q54 -1 85.5 19t31.5 48q0 25 -31 43.5t-86 18.5
q-56 0 -87.5 -17t-31.5 -47q0 -27 32 -46t87 -19z" />
    <glyph glyph-name="arrowleft" unicode="&#x2190;" horiz-adv-x="1302" 
d="M139 545l332 383h246l-225 -279h671v-207h-671l225 -276h-246z" />
    <glyph glyph-name="arrowup" unicode="&#x2191;" horiz-adv-x="1042" 
d="M518 1024l385 -332v-246l-278 226v-672h-209v672l-277 -226v246z" />
    <glyph glyph-name="arrowright" unicode="&#x2192;" horiz-adv-x="1302" 
d="M586 928h245l332 -383l-332 -379h-245l225 276h-672v207h672z" />
    <glyph glyph-name="arrowdown" unicode="&#x2193;" horiz-adv-x="1042" 
d="M522 0l-383 332v246l279 -226v672h209v-672l276 226v-246z" />
    <glyph glyph-name="arrowboth" unicode="&#x2194;" horiz-adv-x="1622" 
d="M471 131l-332 379l332 383h246l-225 -279h641l-226 279h244l332 -383l-332 -379h-246l225 277h-638l225 -277h-246z" />
    <glyph glyph-name="arrowupdn" unicode="&#x2195;" horiz-adv-x="1042" 
d="M139 1057l379 332l385 -332v-244l-278 225v-641l278 226v-246l-385 -332l-379 332v246l277 -226v639l-277 -225v246z" />
    <glyph glyph-name="uni2196" unicode="&#x2196;" horiz-adv-x="1110" 
d="M174 891l504 37l174 -174l-356 -39l475 -473l-146 -148l-475 475l-37 -356l-174 174z" />
    <glyph glyph-name="uni2197" unicode="&#x2197;" horiz-adv-x="1112" 
d="M936 893l37 -506l-174 -172l-37 354l-475 -475l-148 148l475 475l-354 37l172 174z" />
    <glyph glyph-name="uni2198" unicode="&#x2198;" horiz-adv-x="1110" 
d="M936 131l-504 -37l-174 174l356 37l-475 475l148 148l475 -475l37 354l172 -172z" />
    <glyph glyph-name="uni2199" unicode="&#x2199;" horiz-adv-x="1112" 
d="M176 106l-37 506l174 172l37 -356l475 475l148 -145l-475 -475l354 -37l-172 -174z" />
    <glyph glyph-name="arrowdblleft" unicode="&#x21d0;" horiz-adv-x="1384" 
d="M139 512l332 383h272l-96 -121h598v-188h-729l-59 -74l57 -70h731v-188h-600l100 -121h-274z" />
    <glyph glyph-name="arrowdblup" unicode="&#x21d1;" horiz-adv-x="1042" 
d="M139 500v274l379 332l385 -332v-272l-121 96v-598h-190v729l-72 59l-71 -57v-731h-189v600z" />
    <glyph glyph-name="arrowdblright" unicode="&#x21d2;" horiz-adv-x="1384" 
d="M139 442h731l58 70l-60 74h-729v188h598l-96 121h272l332 -383l-332 -379h-274l100 121h-600v188z" />
    <glyph glyph-name="arrowdbldown" unicode="&#x21d3;" horiz-adv-x="1042" 
d="M139 567l121 -98v598h189v-727l73 -59l70 55v731h188v-598l123 98v-274l-381 -332l-383 332v274z" />
    <glyph glyph-name="arrowdblboth" unicode="&#x21d4;" horiz-adv-x="1716" 
d="M139 551l332 383h272l-96 -121h424l-98 121h274l330 -383l-330 -379h-274l98 121h-426l100 -121h-274zM516 625l-59 -74l57 -70h688l58 70l-60 74h-684z" />
    <glyph glyph-name="partialdiff" unicode="&#x2202;" horiz-adv-x="1255" 
d="M37 440q1 158 74 279.5t198.5 186.5t282.5 65q67 0 123 -22.5t88 -59.5q-7 53 -22.5 97t-42 82t-68.5 59.5t-97 21.5q-66 0 -138.5 -15t-110 -29t-52.5 -22l-122 260q18 13 81 37t177 49t217 25q142 0 252.5 -53.5t177 -145.5t100 -207.5t33.5 -248.5q0 -124 -22.5 -240
t-73.5 -222.5t-124.5 -186t-183.5 -126.5t-243 -47q-135 0 -248.5 56t-183.5 163t-72 244zM553 299q71 0 123.5 58.5t52.5 144.5q0 46 -11 82.5t-41.5 63.5t-76.5 28q-56 1 -97 -35.5t-59 -87t-18 -104.5q0 -68 36 -108t91 -42z" />
    <glyph glyph-name="product" unicode="&#x220f;" horiz-adv-x="1533" 
d="M547 -412h-408v2057h1256v-2057h-408v1731h-440v-1731z" />
    <glyph glyph-name="summation" unicode="&#x2211;" horiz-adv-x="1296" 
d="M98 1434h1164v-322h-674l373 -602l-371 -598h649v-322h-1141v273l402 647l-402 649v275z" />
    <glyph glyph-name="minus" unicode="&#x2212;" horiz-adv-x="995" 
d="M119 477v303h758v-303h-758z" />
    <glyph glyph-name="uni2215" unicode="&#x2215;" horiz-adv-x="923" 
d="M1040 1618l-852 -1792h-305l854 1794z" />
    <glyph glyph-name="uni2219" unicode="&#x2219;" horiz-adv-x="733" 
d="M139 719q0 90 66.5 153.5t161.5 63.5q92 0 159.5 -65t67.5 -152t-68.5 -153t-158.5 -66q-95 0 -161.5 64.5t-66.5 154.5z" />
    <glyph glyph-name="radical" unicode="&#x221a;" horiz-adv-x="1308" 
d="M815 -410h-289l-530 1059h442l197 -446l532 1442h566v-345h-267z" />
    <glyph glyph-name="infinity" unicode="&#x221e;" horiz-adv-x="1724" 
d="M78 717q0 160 118 266.5t296 106.5q220 0 372 -166q148 166 371 166q175 0 293.5 -106.5t118.5 -264.5t-118.5 -266.5t-293.5 -108.5q-223 0 -371 166q-152 -166 -375 -166q-178 0 -294.5 107t-116.5 266zM1229 866q-70 0 -120.5 -39t-98.5 -110q49 -73 98.5 -111.5
t120.5 -38.5q64 0 104.5 43.5t42.5 108.5q2 63 -40 105t-107 42zM348 717q0 -63 43.5 -105.5t106.5 -44.5q71 0 120.5 38.5t98.5 111.5q-47 71 -97.5 109.5t-121.5 39.5q-63 -2 -106.5 -44t-43.5 -105z" />
    <glyph glyph-name="integral" unicode="&#x222b;" horiz-adv-x="739" 
d="M-147 -350l108 260q10 -3 55 -13t52 -10q43 0 65.5 24.5t22.5 70.5v1282q0 179 110.5 277.5t292.5 98.5q82 0 171.5 -21t156.5 -58l-101 -230q-6 1 -37 8.5t-50.5 11t-36.5 3.5q-51 0 -75 -23t-24 -76v-1288q0 -179 -111 -278t-294 -99q-160 0 -305 60z" />
    <glyph glyph-name="approxequal" unicode="&#x2248;" horiz-adv-x="1370" 
d="M492 682q47 0 89.5 -10t79.5 -30t58 -34t53 -39q2 -1 15 -11.5t16.5 -13t15.5 -11.5t17.5 -12t17 -10t19 -9.5l18 -6t20 -5t19.5 -1.5q114 0 139 170h213q-10 -62 -27 -115.5t-46 -102.5t-67.5 -83.5t-92.5 -54.5t-119 -20q-49 0 -93 10t-81.5 29.5t-59.5 34t-53 38.5
q-30 24 -47 36.5t-48 27t-56 14.5q-41 0 -72 -15t-50.5 -41.5t-30 -49t-20.5 -52.5h-231q25 81 56.5 143t79 115t115.5 81t153 28zM492 1112q47 0 89.5 -10t79.5 -30t58 -34t53 -39q36 -28 50 -38.5t47 -25.5t61 -15q113 0 139 170h213q-10 -62 -27 -115.5t-46 -102.5
t-67.5 -83.5t-92.5 -55t-119 -20.5q-49 0 -93 10t-81.5 29.5t-59.5 34t-53 38.5q-4 3 -18.5 14.5t-21 16t-20 14.5t-23 14.5t-21.5 10t-24 8t-23 2.5q-41 -1 -72 -16t-50.5 -42t-30 -49.5t-20.5 -52.5h-231q25 82 56.5 144t79 114.5t115 80.5t153.5 28z" />
    <glyph glyph-name="notequal" unicode="&#x2260;" horiz-adv-x="1056" 
d="M119 1067h491l64 133h170l-64 -133h158v-270h-287l-76 -158h363v-268h-492l-63 -138h-172l65 138h-157v268h287l75 158h-362v270z" />
    <glyph glyph-name="lessequal" unicode="&#x2264;" horiz-adv-x="1210" 
d="M98 676v248l994 397v-277l-646 -245l646 -246v-274zM100 0v209h992v-209h-992z" />
    <glyph glyph-name="greaterequal" unicode="&#x2265;" horiz-adv-x="1210" 
d="M119 553l643 246l-643 245v277l993 -397v-248l-993 -397v274zM1110 0h-991v209h991v-209z" />
    <glyph glyph-name="lozenge" unicode="&#x25ca;" horiz-adv-x="1417" 
d="M840 0h-265l-477 721l480 713h264l477 -713zM709 352l247 367l-245 364l-248 -366z" />
    <glyph glyph-name="zero.dnom" horiz-adv-x="913" 
d="M39 434q0 208 104.5 328.5t313.5 120.5q210 0 313.5 -120t103.5 -329q0 -206 -104.5 -326t-312.5 -120q-216 0 -317 117t-101 329zM305 434q0 -47 7 -87t22.5 -78t47 -60t75.5 -21q149 2 149 246q0 47 -6.5 87t-22 77.5t-46.5 59.5t-74 22q-152 0 -152 -246z" />
    <glyph glyph-name="zero.numr" horiz-adv-x="913" 
d="M39 999q0 208 104.5 328.5t313.5 120.5q210 0 313.5 -120t103.5 -329q0 -206 -104.5 -326t-312.5 -120q-216 0 -317 117.5t-101 328.5zM305 999q0 -47 7 -87t22.5 -77.5t47 -59t75.5 -21.5q149 2 149 245q0 47 -6.5 87t-22 77.5t-46.5 59.5t-74 22q-152 0 -152 -246z" />
    <glyph glyph-name="zero.onum" horiz-adv-x="1329" 
d="M666 -16q-127 0 -228.5 33.5t-168 90.5t-110.5 136t-62.5 165t-18.5 183q0 99 18.5 186.5t62.5 167.5t110.5 137t168 91t228.5 34t228.5 -34.5t167 -92.5t109 -138t62 -166t18.5 -183q0 -98 -18.5 -184.5t-62 -166t-109 -136t-167 -90t-228.5 -33.5zM485 592
q0 -138 41 -208.5t140 -70.5q97 0 136.5 69t41.5 210q2 143 -39 215t-139 72q-99 0 -140 -70.5t-41 -216.5z" />
    <glyph glyph-name="zero.subs" horiz-adv-x="913" 
d="M39 127q0 208 104.5 328t313.5 120q211 0 314 -120t103 -328q0 -206 -104.5 -326t-312.5 -120q-216 0 -317 117t-101 329zM305 127q0 -47 7 -87t22.5 -78t47 -60t75.5 -21q149 2 149 246q0 47 -6.5 87t-22 77.5t-46.5 59.5t-74 22q-152 0 -152 -246z" />
    <glyph glyph-name="zero.tab" 
d="M717 -23q-147 0 -258.5 42t-178.5 109.5t-108.5 166.5t-56.5 199t-15 221q0 119 19 223.5t64.5 201.5t114.5 165.5t176 109.5t243 41q138 0 246.5 -42t176.5 -111.5t112.5 -166.5t62 -200t16.5 -219q-1 -120 -19 -223.5t-62.5 -200.5t-112.5 -165.5t-175.5 -109.5
t-244.5 -41zM717 1124q-110 0 -159.5 -104t-49.5 -305q0 -406 209 -406q110 0 158.5 104.5t48.5 301.5q0 409 -207 409z" />
    <glyph glyph-name="one.dnom" horiz-adv-x="921" 
d="M115 662l309 206h219v-665h219v-203h-745v203h260v364l-119 -80z" />
    <glyph glyph-name="one.numr" horiz-adv-x="921" 
d="M115 1229l309 205h219v-666h219v-203h-745v203h260v367l-119 -80z" />
    <glyph glyph-name="one.onum" horiz-adv-x="983" 
d="M4 889l510 299h309v-1188h-407v727l-226 -135z" />
    <glyph glyph-name="one.subs" horiz-adv-x="921" 
d="M115 354l309 207h219v-665h219v-203h-745v203h260v366l-119 -82z" />
    <glyph glyph-name="one.tab" 
d="M111 1130l522 304l321 2v-1135h363v-301h-1184v301h416v713l-258 -152z" />
    <glyph glyph-name="two.dnom" horiz-adv-x="892" 
d="M211 549l-160 139q131 199 418 199q162 0 265.5 -65t103.5 -199q0 -102 -74.5 -192t-194.5 -175l-69 -51h348v-205h-782v168l190 137q3 2 43 30t56 40.5t53.5 41.5t56.5 48.5t43 45.5t34.5 49t10.5 44q0 74 -104 74q-146 0 -238 -129z" />
    <glyph glyph-name="two.numr" horiz-adv-x="892" 
d="M211 1114l-160 139q129 199 418 199q77 0 142 -15t116.5 -45.5t81 -82t29.5 -119.5q0 -44 -16 -88t-40.5 -80t-62 -74t-71.5 -66t-79 -61l-69 -51h348v-205h-782v170l190 135q13 10 63 46.5t81.5 62t71.5 61.5t60.5 69.5t20.5 61.5q0 30 -23.5 51t-80.5 21
q-146 0 -238 -129z" />
    <glyph glyph-name="two.onum" horiz-adv-x="1159" 
d="M57 948q105 124 246.5 191t302.5 67q79 0 159 -19t153 -57.5t119 -106t46 -153.5q0 -254 -331 -510l-66 -51h416v-309h-989v233l256 193q12 9 55 40.5t71.5 53t69.5 57t66 64.5t44 63.5t19 63.5q0 53 -34.5 77.5t-90.5 24.5q-75 0 -157 -47.5t-131 -113.5z" />
    <glyph glyph-name="two.subs" horiz-adv-x="892" 
d="M211 242l-160 139q131 199 418 199q104 0 184.5 -25.5t132.5 -86.5t52 -151q0 -54 -22.5 -107t-64.5 -100.5t-84.5 -84.5t-99.5 -78l-67 -49h348v-205h-782v168l190 137q6 4 33 23t40.5 29.5t42 31t45.5 35.5t41 36t38.5 38t29 36.5t21 37.5t6.5 34q0 30 -23.5 51
t-80.5 21q-146 0 -238 -129z" />
    <glyph glyph-name="two.tab" 
d="M305 936l-225 246q65 65 124 110t139.5 85.5t182 60.5t226.5 20q99 0 186.5 -15.5t163 -49.5t130 -83.5t85.5 -120.5t31 -157q0 -58 -22 -119t-65.5 -120t-87 -108.5t-107 -105t-103 -87.5t-97.5 -76l-151 -115h618v-301h-1220v246l379 276q203 146 300 235
q172 158 173 255q2 69 -49.5 103.5t-163.5 35.5q-250 3 -447 -215z" />
    <glyph glyph-name="three.dnom" horiz-adv-x="907" 
d="M39 135l137 154q51 -47 129 -70.5t146 -23.5t105.5 21t37.5 54q0 27 -28 46t-73.5 27.5t-83 11.5t-75.5 3h-74v177l68 -3h14q41 0 80.5 7t74.5 30.5t35 59.5q0 57 -98 57q-60 0 -132 -26.5t-132 -75.5l-131 145q143 152 416 152q159 0 252.5 -57t93.5 -154
q0 -80 -43.5 -129t-106.5 -64q46 -4 91.5 -28.5t80 -75t35.5 -115.5q0 -126 -113.5 -201t-302.5 -73q-153 0 -254 45.5t-149 105.5z" />
    <glyph glyph-name="three.numr" horiz-adv-x="907" 
d="M39 700l137 154q51 -47 129 -70.5t146 -23.5t105.5 22t37.5 56q0 27 -28 45.5t-73.5 26.5t-83 11t-75.5 3h-74v178l68 -2q29 0 59 3.5t65.5 12.5t57.5 29t22 49t-26.5 44t-71.5 15q-60 0 -132 -27t-132 -77l-131 147q143 152 416 152q159 0 252.5 -57.5t93.5 -153.5
q0 -81 -44 -130t-106 -63q34 -4 68.5 -19.5t66 -42t51.5 -67.5t21 -90q0 -127 -113 -201.5t-303 -74.5q-152 0 -253 46t-150 105z" />
    <glyph glyph-name="three.onum" horiz-adv-x="1282" 
d="M57 -55l197 264q59 -70 157 -110.5t220 -39.5q90 0 148.5 39.5t58.5 108.5q0 77 -76.5 115t-190.5 38h-165l2 285l155 -2q75 0 132 38.5t57 106.5q0 45 -40.5 74t-97.5 29q-53 0 -104.5 -14t-87.5 -33.5t-65.5 -40.5t-43.5 -35t-16 -18l-227 221q107 131 249 188.5
t328 57.5q97 0 186.5 -23t163.5 -67.5t118 -118.5t44 -168q0 -89 -56 -176t-142 -121q117 -26 200.5 -126.5t83.5 -232.5q0 -90 -39.5 -170.5t-113 -143.5t-189 -100.5t-256.5 -37.5q-82 0 -155.5 9.5t-130.5 27.5t-100.5 35t-81 43t-56.5 40t-43 36z" />
    <glyph glyph-name="three.subs" horiz-adv-x="907" 
d="M37 -172l139 154q51 -47 129.5 -71t145.5 -24q68 0 105.5 21t37.5 55q0 27 -28 46t-73.5 27.5t-83 11.5t-75.5 3h-74v176h68q30 0 59.5 3.5t65 12.5t57.5 29.5t22 49.5q0 27 -26.5 42t-71.5 17q-60 0 -132 -27.5t-132 -77.5l-131 146q141 153 416 153q160 -1 253 -58.5
t93 -154.5q0 -80 -43.5 -128.5t-106.5 -63.5q34 -3 68.5 -18.5t66 -41.5t51.5 -67t21 -90q0 -127 -113 -202t-303 -75q-153 0 -253.5 46t-151.5 106z" />
    <glyph glyph-name="three.tab" 
d="M57 188l215 265q63 -69 170 -109.5t240 -40.5q137 0 204.5 38t67.5 105q0 79 -88.5 118.5t-247.5 39.5h-180v285h170q54 0 106 15t90 49t38 79q0 46 -46.5 74.5t-129.5 28.5q-64 0 -126.5 -15t-107 -35.5t-80.5 -43t-53.5 -37.5t-19.5 -19l-207 229q116 130 271 188
t357 58q106 0 203.5 -23t177.5 -68t128 -119t48 -167q0 -88 -61.5 -175t-153.5 -122q129 -27 219.5 -127.5t90.5 -234.5q0 -90 -43 -170t-123 -142.5t-206 -99.5t-280 -37q-89 0 -169.5 9.5t-142 27.5t-109 35t-88.5 43t-62 40t-47 36z" />
    <glyph glyph-name="four.dnom" horiz-adv-x="894" 
d="M467 174h-459v148l514 546h213v-493h152v-201h-152v-174h-268v174zM330 375h139v155z" />
    <glyph glyph-name="four.numr" horiz-adv-x="909" 
d="M483 739h-475v148l529 547h213v-492h151v-203h-151v-174h-267v174zM346 942h137v154z" />
    <glyph glyph-name="four.onum" horiz-adv-x="1339" 
d="M51 266l617 922h426l-551 -846h291l-3 340h379l2 -340h115v-319h-115v-269h-378v269h-783v243z" />
    <glyph glyph-name="four.subs" horiz-adv-x="909" 
d="M483 -133h-475v147l529 547h213v-491h151v-203h-151v-174h-267v174zM346 70h137v153z" />
    <glyph glyph-name="four.tab" 
d="M80 516l768 918h364v-844h131v-326h-131v-264h-407v264h-725v252zM567 590h238v293z" />
    <glyph glyph-name="five.dnom" horiz-adv-x="923" 
d="M68 92l116 168q41 -30 105.5 -48.5t128.5 -18.5q80 0 128 30.5t48 83.5q0 52 -58 83.5t-135 31.5q-52 0 -90 -11.5t-86 -43.5l-137 96l45 405h651v-192h-442l-6 -76q36 6 90 6q190 0 312 -82.5t122 -218.5q0 -143 -124.5 -232t-327.5 -89q-212 0 -340 108z" />
    <glyph glyph-name="five.numr" horiz-adv-x="923" 
d="M68 657l116 168q41 -30 105.5 -48.5t128.5 -18.5q81 0 128.5 30.5t47.5 85.5q0 51 -58 82t-135 31q-52 0 -90 -11.5t-86 -43.5l-137 96l45 406h651v-193h-442l-6 -74q24 4 90 4q190 0 312 -82.5t122 -218.5q0 -143 -124.5 -232t-327.5 -89q-212 0 -340 108z" />
    <glyph glyph-name="five.onum" horiz-adv-x="1253" 
d="M608 -272q-138 0 -284.5 33t-235.5 89l119 302q66 -41 160.5 -68t195.5 -27t173.5 53.5t72.5 149.5q0 90 -72 139.5t-166 49.5q-153 0 -268 -89l-188 91l86 735h925v-318h-612l-14 -143q39 8 127 8q89 0 173 -17.5t160 -55t133 -92t90.5 -134t33.5 -174.5
q0 -124 -50.5 -226t-136 -168t-194.5 -102t-228 -36z" />
    <glyph glyph-name="five.subs" horiz-adv-x="923" 
d="M68 -215l116 168q41 -31 106 -49.5t128 -18.5q80 0 128 30.5t48 84.5q0 53 -58 84t-135 31q-53 0 -90.5 -11.5t-85.5 -44.5l-137 97l45 405h651v-192h-442l-6 -74q24 4 90 4q190 0 312 -82.5t122 -218.5q0 -143 -124.5 -232.5t-327.5 -89.5q-210 0 -340 109z" />
    <glyph glyph-name="five.tab" 
d="M668 -25q-147 0 -307.5 33t-258.5 90l129 301q70 -39 173.5 -67.5t216.5 -28.5q48 1 94.5 13t88.5 35.5t67.5 64t25.5 92.5q0 63 -43 107.5t-100 62.5t-119 18q-177 0 -301 -88l-205 90l92 736h1032v-318h-698l-16 -147q52 14 155 14q90 0 177.5 -16t171.5 -53
t146.5 -90.5t101 -135t38.5 -180.5q0 -104 -38.5 -192.5t-103 -150t-150 -105.5t-179 -64.5t-190.5 -20.5z" />
    <glyph glyph-name="six.dnom" horiz-adv-x="911" 
d="M37 418q0 61 13.5 121t49 123t89 110t140 77t195.5 30q198 0 330 -101l-115 -149q-39 25 -94.5 44t-107.5 19q-153 0 -209 -149q83 59 188 59q69 0 134 -19t118 -55t85 -95t32 -132q0 -138 -116 -233t-300 -95q-100 0 -178 30t-124.5 76t-77 107.5t-41.5 118t-11 113.5z
M494 403q-63 0 -107.5 -34.5t-44.5 -81.5q0 -44 39 -71.5t98 -27.5q62 0 105 29.5t43 79.5q0 48 -38 77t-95 29z" />
    <glyph glyph-name="six.numr" horiz-adv-x="911" 
d="M37 985q0 61 13.5 120.5t49 122t89 109.5t140 77t195.5 30q198 0 330 -101l-115 -149q-39 25 -94.5 44t-107.5 19q-155 0 -209 -149q83 59 188 59q70 0 135 -19.5t117.5 -56t84.5 -95t32 -130.5q0 -138 -116 -231.5t-300 -93.5q-100 0 -178 30t-124.5 76t-77 107
t-41.5 117.5t-11 113.5zM494 969q-62 0 -107 -34.5t-45 -80.5q0 -45 38.5 -72.5t98.5 -27.5q62 0 105 29t43 81q0 48 -38 76.5t-95 28.5z" />
    <glyph glyph-name="six.onum" horiz-adv-x="1327" 
d="M68 694q0 121 25.5 231.5t82 208.5t138.5 170t202.5 114t267.5 42q153 0 274 -40t181 -87l-156 -270q0 3 -35.5 23t-106.5 41.5t-142 21.5q-68 0 -123 -23t-90 -63t-56.5 -87t-31.5 -102q7 3 44 24.5t64 33.5t77.5 24.5t104.5 12.5q226 0 364 -125t138 -340
q0 -163 -83.5 -285t-218.5 -183t-298 -61q-127 0 -231.5 39t-176 106.5t-120.5 159.5t-71.5 196t-22.5 218zM707 672q-82 0 -136 -49t-53 -131q2 -80 54 -135.5t135 -55.5q81 0 133 50.5t51 131.5q0 77 -48.5 133t-135.5 56z" />
    <glyph glyph-name="six.subs" horiz-adv-x="911" 
d="M37 113q0 61 13.5 120.5t49 121.5t89 109t140 77t195.5 30q199 0 330 -100l-115 -149q-39 25 -94.5 44t-107.5 19q-153 0 -209 -149q83 59 188 59q70 0 135 -19.5t117.5 -56t84.5 -95t32 -130.5q0 -138 -116 -233t-300 -95q-100 0 -178 30t-124.5 76t-77 108t-41.5 118.5
t-11 114.5zM494 96q-63 0 -107.5 -34.5t-44.5 -81.5q0 -44 39 -71.5t98 -27.5q62 0 105 29.5t43 79.5q0 48 -38 77t-95 29z" />
    <glyph glyph-name="six.tab" 
d="M733 -25q-135 0 -246 39t-187 106.5t-128 159.5t-76 196t-24 218q0 121 27 231.5t86.5 208.5t146.5 170t215 114t284 42q161 0 288.5 -40t195.5 -87l-166 -270q-5 5 -40 23.5t-110.5 40.5t-150.5 22q-73 0 -131 -23t-95.5 -63t-60 -87t-33.5 -102q8 4 47 24.5t68 33
t83 25t110 12.5q238 0 384.5 -124t147.5 -339q1 -162 -87.5 -285t-232 -184.5t-315.5 -61.5zM748 672q-85 0 -142 -49.5t-57 -130.5q0 -80 56.5 -135.5t144.5 -55.5q84 0 139.5 51.5t56.5 132.5q2 80 -50.5 133.5t-147.5 53.5z" />
    <glyph glyph-name="seven.dnom" horiz-adv-x="913" 
d="M866 727l-499 -727h-306l459 666h-475v202h821v-141z" />
    <glyph glyph-name="seven.numr" horiz-adv-x="913" 
d="M866 1292l-499 -727h-306l459 666h-475v203h821v-142z" />
    <glyph glyph-name="seven.onum" horiz-adv-x="1169" 
d="M1143 950l-598 -1196h-443l553 1108h-598v326h1086v-238z" />
    <glyph glyph-name="seven.subs" horiz-adv-x="913" 
d="M866 420l-499 -727h-306l459 665h-475v203h821v-141z" />
    <glyph glyph-name="seven.tab" 
d="M1386 1124l-727 -1124h-460l716 1114h-770v320h1241v-310z" />
    <glyph glyph-name="eight.dnom" horiz-adv-x="911" 
d="M41 256q0 58 30.5 108.5t86.5 84.5q-88 75 -88 167q0 63 35.5 114.5t93 83t125.5 48.5t137 17q94 0 179.5 -30t143.5 -91.5t58 -141.5q0 -97 -86 -167q55 -34 85.5 -84.5t30.5 -108.5q0 -68 -36 -122.5t-96.5 -88t-133 -51.5t-149.5 -19q-105 0 -197.5 30t-155.5 96
t-63 155zM309 260q0 -78 148 -78q149 0 149 78q0 33 -40.5 54.5t-108.5 21.5q-69 0 -108.5 -21.5t-39.5 -54.5zM457 543q54 0 84 19.5t32 47.5q2 24 -29.5 43t-86.5 19q-57 0 -88 -17.5t-31 -40.5q0 -29 32 -50t87 -21z" />
    <glyph glyph-name="eight.numr" horiz-adv-x="911" 
d="M41 821q0 58 30.5 109t86.5 86q-88 71 -88 166q0 82 61.5 144t148.5 90t181 28t179.5 -29t143.5 -90.5t58 -142.5q0 -96 -86 -166q116 -76 116 -195q0 -89 -63 -154t-155 -94.5t-197 -29.5q-77 0 -150 17.5t-133 51t-96.5 88t-36.5 121.5zM309 825q0 -77 148 -77
q149 3 149 77q0 33 -41 55.5t-108 22.5q-69 0 -108.5 -21.5t-39.5 -56.5zM457 1108q54 0 84 20t32 48q2 25 -29.5 44t-86.5 19q-57 0 -88 -18t-31 -41q0 -29 32 -50.5t87 -21.5z" />
    <glyph glyph-name="eight.onum" horiz-adv-x="1345" 
d="M674 -35q-181 0 -319.5 52t-218 154.5t-79.5 242.5q0 99 57 187.5t160 150.5q-174 116 -174 303q0 85 35.5 155.5t93.5 117t133.5 79t153.5 47t156 14.5q80 0 159 -14t154 -46.5t132.5 -79t92.5 -116.5t35 -155q0 -190 -172 -305q103 -61 159 -149.5t56 -188.5
q0 -210 -169.5 -329.5t-444.5 -119.5zM674 610q-85 -2 -147 -44.5t-62 -119.5q0 -78 61.5 -118.5t147.5 -42.5q85 -2 146.5 39.5t60.5 119.5t-62 122t-145 44zM672 1176q-70 0 -122 -41.5t-52 -102.5t49.5 -104t120.5 -43q68 0 123 41t55 106q0 62 -51 103t-123 41z" />
    <glyph glyph-name="eight.subs" horiz-adv-x="911" 
d="M41 -51q0 120 117 194q-88 71 -88 166q0 82 61.5 144t148.5 90t181 28t179.5 -29.5t143.5 -91t58 -141.5q0 -95 -86 -168q55 -34 85.5 -84t30.5 -108q0 -89 -63 -154t-155 -95t-197 -30t-197.5 30t-155.5 95t-63 154zM309 -47q0 -78 148 -78q149 0 149 78q0 33 -41 55.5
t-108 22.5q-69 -1 -108.5 -23t-39.5 -55zM457 236q54 0 84 19.5t32 47.5q2 25 -29.5 43.5t-86.5 18.5q-57 0 -88 -17.5t-31 -40.5q0 -29 32 -50t87 -21z" />
    <glyph glyph-name="eight.tab" 
d="M59 432q0 194 189 322q-142 119 -142 278q0 100 53 183.5t140.5 137.5t196 83.5t221.5 29.5t221.5 -29.5t195.5 -83.5t140 -137.5t53 -183.5q0 -163 -141 -278q191 -127 188 -322q0 -115 -54 -205.5t-146 -145.5t-208.5 -83.5t-248.5 -28.5q-130 0 -246.5 28.5t-209.5 84
t-147.5 146t-54.5 204.5zM444 432q0 -71 73.5 -113.5t201.5 -42.5t200 42.5t72 113.5q0 41 -29.5 73t-74 49.5t-88.5 26.5t-80 9q-117 -2 -196 -47t-79 -111zM494 1032q0 -57 62.5 -96t160.5 -39q98 -1 161.5 38.5t63.5 96.5q0 54 -62.5 91.5t-162.5 37.5
q-102 0 -162.5 -36.5t-60.5 -92.5z" />
    <glyph glyph-name="nine.dnom" horiz-adv-x="911" 
d="M31 551q0 138 115 233t298 95q100 -1 178.5 -31t125.5 -76t77.5 -107.5t42 -118t11.5 -114.5q0 -60 -14 -120t-49.5 -122.5t-88.5 -109.5t-140 -77t-196 -30q-196 0 -332 101l117 149q39 -25 94.5 -44t106.5 -19q155 0 211 149q-83 -59 -189 -59q-95 0 -176.5 31.5
t-136.5 101.5t-55 168zM455 664q-62 0 -105 -29.5t-43 -79.5q0 -48 38 -77t95 -29q63 0 108.5 34.5t45.5 81.5q0 44 -40 71.5t-99 27.5z" />
    <glyph glyph-name="nine.numr" horiz-adv-x="911" 
d="M31 1118q0 137 115 231.5t298 94.5q100 0 178.5 -30t125.5 -76t77.5 -107.5t42 -118t11.5 -113.5q0 -61 -14 -121t-49.5 -122t-88.5 -109t-140 -76.5t-196 -29.5q-198 0 -332 100l117 150q37 -26 93 -45t108 -19q156 0 211 147q-31 -22 -82 -39.5t-107 -17.5
q-95 0 -177 32.5t-136.5 103t-54.5 165.5zM455 1229q-62 0 -105 -29.5t-43 -79.5q0 -48 38 -76t95 -28q63 0 108.5 33.5t45.5 80.5q0 44 -40 71.5t-99 27.5z" />
    <glyph glyph-name="nine.onum" horiz-adv-x="1327" 
d="M37 680q0 123 48.5 224t131 166.5t191 101.5t229.5 36q127 0 231.5 -39t176.5 -106.5t121 -159.5t71.5 -196t22.5 -218q0 -121 -25.5 -231.5t-82 -208.5t-139 -169.5t-203 -113.5t-267.5 -42q-152 0 -273.5 40t-181.5 86l156 271l8 -5q7 -4 21 -11.5t33 -16.5t44 -18
t52 -17t60 -13t66 -5q132 -1 206 77.5t95 198.5q-1 0 -43 -24.5t-66 -35t-75.5 -23.5t-105.5 -13q-225 0 -363.5 125t-138.5 340zM621 883q-81 0 -133.5 -51t-51.5 -132q2 -77 50 -131.5t135 -54.5q84 0 136.5 47.5t51.5 130.5q-2 80 -53.5 135.5t-134.5 55.5z" />
    <glyph glyph-name="nine.subs" horiz-adv-x="911" 
d="M31 246q0 137 115 231t298 94q100 0 178.5 -30t125.5 -76t77.5 -107t42 -117.5t11.5 -113.5q0 -61 -14 -121t-49.5 -123t-88.5 -110t-140 -77t-196 -30q-196 0 -332 101l117 149q39 -25 94.5 -44t106.5 -19q155 0 211 149q-83 -59 -189 -59q-95 0 -176.5 32t-136.5 102.5
t-55 168.5zM455 356q-62 0 -105 -29t-43 -79q0 -48 38 -76.5t95 -30.5q63 0 108.5 35t45.5 82q0 44 -39.5 71t-99.5 27z" />
    <glyph glyph-name="nine.tab" 
d="M72 930q-1 123 50.5 224.5t139 167.5t202.5 102t243 36q135 0 246 -39t187 -106.5t128 -159.5t76 -196t24 -218q0 -121 -27 -231t-87 -208.5t-147 -170.5t-215 -114t-284 -42q-162 0 -289.5 40.5t-193.5 88.5l164 271q5 -5 40.5 -23.5t111.5 -40.5t151 -22q72 0 130 23
t95 62.5t59.5 86.5t32.5 102q-7 -3 -46 -24.5t-67 -34t-82 -25t-110 -12.5q-239 0 -385.5 124.5t-146.5 338.5zM494 950q0 -80 51.5 -132t144.5 -52q87 0 143 49t56 131q0 79 -56 135t-143 56q-85 0 -140.5 -52.5t-55.5 -134.5z" />
    <glyph glyph-name="space.tab" horiz-adv-x="614" 
 />
    <glyph glyph-name="numbersign.tab" 
d="M55 293v237h221l86 383h-172v238h226l63 283h273l-64 -283h250l63 283h273l-64 -283h170v-238h-221l-86 -383h172v-237h-223l-66 -293h-274l66 293h-250l-64 -293h-274l63 293h-168zM635 913l-84 -383h248l86 383h-250z" />
    <glyph glyph-name="percent.tab" 
d="M57 1034q0 192 71.5 303t215.5 111q143 0 215 -110.5t72 -303.5q0 -191 -72 -302.5t-215 -110.5q-146 1 -216.5 109.5t-70.5 303.5zM805 393q0 193 71.5 304.5t215.5 111.5q143 0 214.5 -111t69.5 -305q-1 -63 -9 -118t-28.5 -110.5t-52 -94.5t-84 -63.5t-119.5 -24.5
q-142 0 -210 109t-68 302zM451 0h-175l711 1434h174zM242 1034q0 -40 4 -75t14 -71.5t31.5 -58t52.5 -20.5q102 2 102 225q0 226 -102 226t-102 -226zM989 393q0 -39 4 -74t14 -71t32 -57.5t53 -20.5q102 2 102 223q0 225 -102 225q-32 0 -54 -21t-32 -56.5t-14 -71
t-3 -76.5z" />
    <glyph glyph-name="plus.tab" 
d="M559 565h-328v303h328v301h313v-301h330v-303h-330v-301h-313v301z" />
    <glyph glyph-name="minus.tab" 
d="M322 565v303h790v-303h-790z" />
    <glyph glyph-name="divide.tab" 
d="M1061 623h-688v188h688v-188zM565 377q0 58 44.5 99.5t107.5 43.5q61 0 106 -43t45 -100q0 -61 -44.5 -103.5t-106.5 -42.5q-64 0 -108 42t-44 104zM717 1204q61 0 106 -43t45 -100q0 -61 -44.5 -103.5t-106.5 -42.5q-64 0 -108 42t-44 104q0 58 44.5 99.5t107.5 43.5z
" />
    <glyph glyph-name="multiply.tab" 
d="M254 469l248 250l-246 246l215 215l246 -248l248 248l215 -215l-248 -248l248 -246l-215 -215l-246 246l-250 -248z" />
    <glyph glyph-name="comma.tab" horiz-adv-x="614" 
d="M211 2q-59 25 -95 78.5t-36 118.5q0 89 65.5 152.5t161.5 64.5q93 2 160 -61t68 -156q1 -99 -66 -223t-145 -201l-181 88q41 56 68 139z" />
    <glyph glyph-name="period.tab" horiz-adv-x="614" 
d="M80 199q0 89 66.5 153t160.5 64q92 0 160 -65t68 -152q0 -88 -68.5 -153.5t-159.5 -65.5q-95 0 -161 64.5t-66 154.5z" />
    <glyph glyph-name="slash.tab" 
d="M1294 1618l-852 -1792h-303l854 1794z" />
    <glyph glyph-name="colon.tab" horiz-adv-x="614" 
d="M80 829q0 90 66 154t161 64q92 0 160 -65.5t68 -150.5q0 -88 -69 -153.5t-159 -65.5q-94 0 -160.5 64t-66.5 153zM80 199q0 89 66.5 153t160.5 64q92 0 160 -65t68 -152q0 -88 -68.5 -153.5t-159.5 -65.5q-93 0 -160 64.5t-67 154.5z" />
    <glyph glyph-name="semicolon.tab" horiz-adv-x="614" 
d="M211 2q-59 25 -95 78.5t-36 118.5q0 88 66 152t161 65q92 2 159.5 -61t68.5 -156q1 -99 -66 -223t-145 -201l-181 88q41 56 68 139zM80 829q0 90 66 154t161 64q90 0 159 -65.5t69 -150.5q0 -88 -69 -153.5t-159 -65.5q-95 0 -161 63.5t-66 153.5z" />
    <glyph glyph-name="less.tab" 
d="M1214 139l-995 441v274l995 440v-358l-495 -219l495 -219v-359z" />
    <glyph glyph-name="equal.tab" 
d="M1126 797h-819v270h819v-270zM307 639h819v-268h-819v268z" />
    <glyph glyph-name="greater.tab" 
d="M219 498l496 219l-496 219v358l995 -440v-274l-995 -441v359z" />
    <glyph glyph-name="bar.tab" horiz-adv-x="614" 
d="M469 1583v-1993h-324v1993h324z" />
    <glyph glyph-name="dollar.tab" 
d="M143 233l154 211q54 -60 136.5 -113.5t158.5 -76.5v403q-73 20 -127.5 39t-116 52.5t-101 73.5t-65.5 100.5t-26 134.5q0 91 36 163.5t98.5 118.5t138 73t163.5 36v141l266 -2v-151q102 -22 208.5 -70.5t174.5 -110.5l-129 -215q-43 52 -114 90.5t-140 51.5v-342
q74 -21 129 -41.5t115.5 -55.5t99.5 -76.5t64.5 -103.5t25.5 -137q0 -181 -123.5 -297t-310.5 -141v-164h-266v174q-121 25 -246 88t-203 147zM858 580v-344q68 21 109 70.5t41 119.5q0 31 -13 56t-37.5 43.5t-46.5 30.5t-53 24zM440 1061q0 -29 13.5 -53t38.5 -42t47 -28.5
t53 -22.5v289q-152 -27 -152 -143z" />
    <glyph glyph-name="Euro.tab" 
d="M195 766h-97v174h125q62 229 238 372.5t422 143.5q251 0 450 -147l-168 -242q-128 92 -282 92q-96 0 -173 -57.5t-116 -161.5h532v-174h-571v-47q0 -35 2 -51h569v-176h-534q39 -102 116 -157.5t175 -55.5q173 0 276 96l176 -219q-107 -88 -212.5 -131t-239.5 -43
q-250 0 -425.5 138t-236.5 372h-123v176h97v51v47z" />
    <glyph glyph-name="cent.tab" 
d="M762 1255l37 179h209l-45 -213q91 -32 159 -84.5t105 -110.5l-201 -164q-51 70 -119 101l-106 -510q70 3 134 36.5t101 90.5l197 -177q-180 -231 -492 -231l-34 -172h-209l45 207q-161 58 -253.5 195t-92.5 309q0 161 74.5 286t203 192t287.5 66zM604 502l101 481
q-92 -20 -147.5 -95t-55.5 -171q0 -67 26.5 -123.5t75.5 -91.5z" />
    <glyph glyph-name="sterling.tab" 
d="M172 305h123q109 43 113 150q0 41 -17 141h-219v227h172q-14 82 -14 140q0 487 506 487q40 0 80 -4t74.5 -11.5t66.5 -16.5t58.5 -19.5t50 -20.5t41 -19t30 -16.5t19.5 -11.5l6 -4l-158 -242l-7 4q-7 4 -19 10t-28 13.5t-36.5 15t-42.5 13.5t-48 10t-51 4
q-163 0 -163 -188q0 -50 16 -144h463v-227h-418q16 -86 14 -129q-3 -92 -39 -162h461v-305h-1034v305z" />
    <glyph glyph-name="yen.tab" 
d="M461 709l-410 725h400l266 -457l266 457h401l-411 -725h196v-213h-276v-111h276v-213h-276v-172h-352v172h-277v213h277v111h-277v213h197z" />
    <glyph glyph-name="section.tab" 
d="M195 -123l198 236q68 -62 171 -105t194 -43q67 0 112 28t45 89q0 34 -38.5 61t-100 46.5t-135.5 39.5t-148 48.5t-135.5 66t-100 98t-38.5 138.5q0 138 139 223q-139 101 -139 276q0 79 27.5 143t73 106t108.5 70.5t130.5 41t141.5 12.5q125 0 266 -42t238 -114
l-141 -247q-177 114 -373 114q-145 0 -145 -80q0 -32 38.5 -55.5t99.5 -40.5t135.5 -35.5t148.5 -48.5t135 -72t99 -113.5t38 -164.5q0 -133 -86 -236q86 -89 86 -235q0 -100 -39 -180.5t-105.5 -130.5t-152 -76.5t-182.5 -26.5q-152 0 -306.5 56t-258.5 153zM643 686
q-98 -20 -98 -74q0 -23 24.5 -44t65.5 -36.5t78 -26.5t80 -21.5t55 -14.5q26 14 46.5 37t20.5 47q0 20 -21.5 39t-59 34t-70 25.5t-72.5 21t-49 13.5z" />
    <glyph glyph-name="degree.tab" 
d="M717 1452q141 0 241.5 -100.5t100.5 -241.5t-100.5 -241.5t-241.5 -100.5t-241.5 100.5t-100.5 241.5t100.5 241.5t241.5 100.5zM537 1110q0 -74 53.5 -127t126.5 -53q75 0 127.5 53t52.5 127q0 75 -53 127.5t-127 52.5q-73 0 -126.5 -53t-53.5 -127z" />
    <glyph glyph-name="plusminus.tab" 
d="M231 961h330v301h313v-301h328v-304h-328v-301h-313v301h-330v304zM231 252h971v-252h-971v252z" />
    <glyph glyph-name="periodcentered.tab" horiz-adv-x="614" 
d="M80 719q0 90 66 153.5t161 63.5q92 0 160 -65t68 -152q0 -88 -68.5 -153.5t-159.5 -65.5q-93 0 -160 64.5t-67 154.5z" />
    <glyph glyph-name="Q.ss01" horiz-adv-x="1705" 
d="M692 -6q-179 34 -320 138t-219.5 258t-78.5 331q0 153 59.5 289t162.5 234t248.5 155t309.5 57t309 -57.5t247.5 -156t162 -234t59.5 -287.5q0 -257 -156.5 -453.5t-406.5 -261.5q86 -170 322 -170q113 0 241 41v-303q-122 -35 -239 -35q-160 0 -297 49t-244 152.5
t-160 253.5zM481 721q0 -164 109 -280.5t264 -116.5q154 0 263 116.5t108 280.5t-109 275.5t-262 111.5q-156 0 -264.5 -112.5t-108.5 -274.5z" />
    <glyph glyph-name="a.ss01" horiz-adv-x="1249" 
d="M74 293q0 142 124.5 233.5t325.5 91.5h228q-8 75 -58.5 115.5t-144.5 40.5q-184 0 -313 -82l-109 228q3 1 25.5 12.5t38 18.5t48 20t60 22t69.5 20.5t82 18.5t91 12t102 5q268 1 384 -108t116 -353v-588h-389v106q-47 -58 -133 -92t-181 -34q-163 0 -264.5 87t-101.5 226
zM565 426q-66 -2 -106.5 -26.5t-40.5 -73.5q0 -47 37 -74t96 -27q77 0 138.5 43.5t62.5 108.5v49h-187z" />
    <glyph glyph-name="agrave.ss01" horiz-adv-x="1249" 
d="M74 293q0 142 124.5 233.5t325.5 91.5h228q-8 75 -58.5 115.5t-144.5 40.5q-184 0 -313 -82l-109 228q3 1 25.5 12.5t38 18.5t48 20t60 22t69.5 20.5t82 18.5t91 12t102 5q268 1 384 -108t116 -353v-588h-389v106q-47 -58 -133 -92t-181 -34q-163 0 -264.5 87t-101.5 226
zM668 1178l-297 198l155 158l387 -356h-245zM565 426q-66 -2 -106.5 -26.5t-40.5 -73.5q0 -47 37 -74t96 -27q77 0 138.5 43.5t62.5 108.5v49h-187z" />
    <glyph glyph-name="aacute.ss01" horiz-adv-x="1249" 
d="M74 293q0 142 124.5 233.5t325.5 91.5h228q-8 75 -58.5 115.5t-144.5 40.5q-184 0 -313 -82l-109 228q3 1 25.5 12.5t38 18.5t48 20t60 22t69.5 20.5t82 18.5t91 12t102 5q268 1 384 -108t116 -353v-588h-389v106q-47 -58 -133 -92t-181 -34q-163 0 -264.5 87t-101.5 226
zM371 1178l385 356l157 -158l-297 -198h-245zM565 426q-66 -2 -106.5 -26.5t-40.5 -73.5q0 -47 37 -74t96 -27q77 0 138.5 43.5t62.5 108.5v49h-187z" />
    <glyph glyph-name="acircumflex.ss01" horiz-adv-x="1249" 
d="M74 293q0 142 124.5 233.5t325.5 91.5h228q-8 75 -58.5 115.5t-144.5 40.5q-184 0 -313 -82l-109 228q3 1 25.5 12.5t38 18.5t48 20t60 22t69.5 20.5t82 18.5t91 12t102 5q268 1 384 -108t116 -353v-588h-389v106q-47 -58 -133 -92t-181 -34q-163 0 -264.5 87t-101.5 226
zM496 1178h-226l269 297h206l269 -297h-223l-148 131zM565 426q-66 -2 -106.5 -26.5t-40.5 -73.5q0 -47 37 -74t96 -27q77 0 138.5 43.5t62.5 108.5v49h-187z" />
    <glyph glyph-name="atilde.ss01" horiz-adv-x="1249" 
d="M74 293q0 142 124.5 233.5t325.5 91.5h228q-8 75 -58.5 115.5t-144.5 40.5q-184 0 -313 -82l-109 228q3 1 25.5 12.5t38 18.5t48 20t60 22t69.5 20.5t82 18.5t91 12t102 5q268 1 384 -108t116 -353v-588h-389v106q-47 -58 -133 -92t-181 -34q-163 0 -264.5 87t-101.5 226
zM281 1182q40 301 233 303q56 0 100 -19t65 -41.5t44 -41.5t43 -19q31 0 52 33t28 65h155q-12 -301 -223 -301q-46 0 -86.5 19t-64.5 41.5t-54 41.5t-57 19q-32 0 -51 -30.5t-27 -69.5h-157zM565 426q-66 -2 -106.5 -26.5t-40.5 -73.5q0 -47 37 -74t96 -27q77 0 138.5 43.5
t62.5 108.5v49h-187z" />
    <glyph glyph-name="adieresis.ss01" horiz-adv-x="1249" 
d="M74 293q0 142 124.5 233.5t325.5 91.5h228q-8 75 -58.5 115.5t-144.5 40.5q-184 0 -313 -82l-109 228q3 1 25.5 12.5t38 18.5t48 20t60 22t69.5 20.5t82 18.5t91 12t102 5q268 1 384 -108t116 -353v-588h-389v106q-47 -58 -133 -92t-181 -34q-163 0 -264.5 87t-101.5 226
zM313 1311q0 47 38 90t104 43q65 0 102 -42.5t39 -90.5q0 -46 -37 -89.5t-104 -43.5q-68 0 -105 43.5t-37 89.5zM829 1178q-68 0 -104.5 43t-36.5 90t37 90t104 43q65 0 102.5 -43t37.5 -90q0 -46 -36.5 -89.5t-103.5 -43.5zM565 426q-66 -2 -106.5 -26.5t-40.5 -73.5
q0 -47 37 -74t96 -27q77 0 138.5 43.5t62.5 108.5v49h-187z" />
    <glyph glyph-name="aring.ss01" horiz-adv-x="1249" 
d="M74 293q0 142 124.5 233.5t325.5 91.5h228q-8 75 -58.5 115.5t-144.5 40.5q-184 0 -313 -82l-109 228q3 1 25.5 12.5t38 18.5t48 20t60 22t69.5 20.5t82 18.5t91 12t102 5q268 1 384 -108t116 -353v-588h-389v106q-47 -58 -133 -92t-181 -34q-163 0 -264.5 87t-101.5 226
zM410 1352q0 35 14 71.5t41 70t73 54.5t103 21t103.5 -21.5t73.5 -54.5t41.5 -69.5t14.5 -71.5t-14.5 -71.5t-41.5 -69.5t-73.5 -54.5t-103.5 -21.5t-103 21t-73 54.5t-41 70t-14 71.5zM565 426q-66 -2 -106.5 -26.5t-40.5 -73.5q0 -47 37 -74t96 -27q77 0 138.5 43.5
t62.5 108.5v49h-187zM641 1442q-29 0 -50.5 -23.5t-21.5 -66.5t21.5 -66.5t50.5 -23.5q30 0 52 23.5t22 66.5t-22 66.5t-52 23.5z" />
    <glyph glyph-name="amacron.ss01" horiz-adv-x="1249" 
d="M74 293q0 142 124.5 233.5t325.5 91.5h228q-8 75 -58.5 115.5t-144.5 40.5q-184 0 -313 -82l-109 228q3 1 25.5 12.5t38 18.5t48 20t60 22t69.5 20.5t82 18.5t91 12t102 5q268 1 384 -108t116 -353v-588h-389v106q-47 -58 -133 -92t-181 -34q-163 0 -264.5 87t-101.5 226
zM381 1368h522v-186h-522v186zM565 426q-66 -2 -106.5 -26.5t-40.5 -73.5q0 -47 37 -74t96 -27q77 0 138.5 43.5t62.5 108.5v49h-187z" />
    <glyph glyph-name="abreve.ss01" horiz-adv-x="1249" 
d="M74 293q0 142 124.5 233.5t325.5 91.5h228q-8 75 -58.5 115.5t-144.5 40.5q-184 0 -313 -82l-109 228q3 1 25.5 12.5t38 18.5t48 20t60 22t69.5 20.5t82 18.5t91 12t102 5q268 1 384 -108t116 -353v-588h-389v106q-47 -58 -133 -92t-181 -34q-163 0 -264.5 87t-101.5 226
zM641 1155q-152 0 -237 85.5t-85 229.5h168q0 -56 43.5 -91.5t110.5 -35.5q69 0 111.5 35.5t42.5 91.5h168q0 -145 -84.5 -230t-237.5 -85zM565 426q-66 -2 -106.5 -26.5t-40.5 -73.5q0 -47 37 -74t96 -27q77 0 138.5 43.5t62.5 108.5v49h-187z" />
    <glyph glyph-name="aogonek.ss01" horiz-adv-x="1249" 
d="M74 293q0 142 124.5 233.5t325.5 91.5h228q-8 75 -58.5 115.5t-144.5 40.5q-184 0 -313 -82l-109 228q3 1 25.5 12.5t38 18.5t48 20t60 22t69.5 20.5t82 18.5t91 12t102 5q266 1 383 -108.5t117 -352.5v-588h-219q-70 -93 -70 -172q0 -65 76 -61q57 0 110 38l62 -149
q-83 -74 -207 -74q-120 0 -183 55.5t-63 149.5q0 114 105 248v71q-47 -58 -133 -92t-181 -34q-164 0 -265 86.5t-101 226.5zM418 326q-1 -46 36 -73.5t97 -27.5q77 0 138.5 43.5t62.5 108.5v49h-187q-66 -2 -106.5 -26.5t-40.5 -73.5z" />
    </font>
</defs>
</svg>
